SplineFontDB: 3.2
FontName: WeblogmaYekan
FullName: WeblogmaYekan
FamilyName: WeblogmaYekan
Weight: Book
Copyright: Copyright (c) 2014 by Weblogma. All rights reserved.
Version: 2.01 - Build 1379
ItalicAngle: 0
UnderlinePosition: -412
UnderlineWidth: 44
Ascent: 800
Descent: 200
InvalidEm: 0
sfntRevision: 0x00020000
LayerCount: 2
Layer: 0 1 "Back" 1
Layer: 1 1 "Fore" 0
XUID: [1021 929 -196887176 24534]
StyleMap: 0x0040
FSType: 0
OS2Version: 3
OS2_WeightWidthSlopeOnly: 0
OS2_UseTypoMetrics: 0
CreationTime: 1389682583
ModificationTime: 1586988398
PfmFamily: 17
TTFWeight: 400
TTFWidth: 5
LineGap: 0
VLineGap: 0
Panose: 2 0 4 0 0 0 0 0 0 0
OS2TypoAscent: 1007
OS2TypoAOffset: 0
OS2TypoDescent: -510
OS2TypoDOffset: 0
OS2TypoLinegap: 0
OS2WinAscent: 1007
OS2WinAOffset: 0
OS2WinDescent: 510
OS2WinDOffset: 0
HheadAscent: 664
HheadAOffset: 0
HheadDescent: -336
HheadDOffset: 0
OS2SubXSize: 700
OS2SubYSize: 650
OS2SubXOff: 0
OS2SubYOff: 143
OS2SupXSize: 700
OS2SupYSize: 650
OS2SupXOff: 0
OS2SupYOff: 453
OS2StrikeYSize: 50
OS2StrikeYPos: 259
OS2Vendor: 'MZ73'
OS2CodePages: 00000040.00000000
OS2UnicodeRanges: 00006000.80000000.00000008.00000000
Lookup: 1 0 0 "'aalt' Access All Alternates in Latin lookup 0" { "'aalt' Access All Alternates in Latin lookup 0 subtable"  } ['aalt' ('latn' <'dflt' > ) ]
Lookup: 3 0 0 "'aalt' Access All Alternates in Latin lookup 1" { "'aalt' Access All Alternates in Latin lookup 1 subtable"  } ['aalt' ('latn' <'dflt' > ) ]
Lookup: 1 1 0 "'init' Initial Forms in Arabic lookup 2" { "'init' Initial Forms in Arabic lookup 2 subtable"  } ['init' ('arab' <'dflt' > ) ]
Lookup: 1 1 0 "'medi' Medial Forms in Arabic lookup 3" { "'medi' Medial Forms in Arabic lookup 3 subtable"  } ['medi' ('arab' <'dflt' > ) ]
Lookup: 1 1 0 "'fina' Terminal Forms in Arabic lookup 4" { "'fina' Terminal Forms in Arabic lookup 4 subtable"  } ['fina' ('arab' <'dflt' > ) ]

StartChar: .notdef
Encoding: 65536 -1 0
Width: 444
Flags: W
LayerCount: 2
Fore
SplineSet
55 0 m 1,0,-1
 55 590 l 1,1,-1
 388 590 l 1,2,-1
 388 0 l 1,3,-1
 55 0 l 1,0,-1
110 55 m 1,4,-1
 333 55 l 1,5,-1
 333 534 l 1,6,-1
 110 534 l 1,7,-1
 110 55 l 1,4,-1
EndSplineSet
EndChar

StartChar: exclam.001
Encoding: 65540 -1 4
Width: 203
Flags: W
LayerCount: 2
Fore
SplineSet
142 329 m 2,0,1
 142 324 142 324 136 270 c 2,2,-1
 124 150 l 1,3,-1
 83 150 l 1,4,-1
 65 329 l 1,5,-1
 65 500 l 1,6,-1
 142 500 l 1,7,-1
 142 329 l 2,0,1
161 52 m 0,8,9
 161 0 161 0 102 0 c 0,10,11
 48 0 48 0 48 52 c 0,12,13
 48 100 48 100 105 100 c 0,14,15
 161 100 161 100 161 52 c 0,8,9
EndSplineSet
EndChar

StartChar: percent.001
Encoding: 65541 -1 5
Width: 638
Flags: W
LayerCount: 2
Fore
SplineSet
607 20 m 0,0,1
 607 -28 607 -28 567 -63 c 0,2,3
 530 -95 530 -95 481 -95 c 0,4,5
 436 -95 436 -95 397 -61 c 0,6,7
 358 -25 358 -25 358 21 c 0,8,9
 358 68 358 68 397.5 107 c 128,-1,10
 437 146 437 146 485 146 c 256,11,12
 533 146 533 146 570 107.5 c 128,-1,13
 607 69 607 69 607 20 c 0,0,1
554 24 m 0,14,15
 554 50 554 50 532.5 71 c 128,-1,16
 511 92 511 92 485 92 c 0,17,18
 456 92 456 92 433.5 70 c 128,-1,19
 411 48 411 48 411 20 c 0,20,21
 411 -12 411 -12 444 -32 c 0,22,23
 463 -46 463 -46 485 -46 c 0,24,25
 512 -46 512 -46 533 -24.5 c 128,-1,26
 554 -3 554 -3 554 24 c 0,14,15
489 403 m 1,27,-1
 209 -105 l 1,28,-1
 134 -105 l 1,29,-1
 411 403 l 1,30,-1
 489 403 l 1,27,-1
279 285 m 256,31,32
 279 238 279 238 238 203 c 0,33,34
 199 169 199 169 149 169 c 0,35,36
 103 169 103 169 66 204.5 c 128,-1,37
 29 240 29 240 29 288 c 256,38,39
 29 336 29 336 67 371.5 c 128,-1,40
 105 407 105 407 154 407 c 0,41,42
 202 407 202 407 240.5 369.5 c 128,-1,43
 279 332 279 332 279 285 c 256,31,32
224 288 m 0,44,45
 224 314 224 314 201 334.5 c 128,-1,46
 178 355 178 355 149 355 c 0,47,48
 122 355 122 355 102 333.5 c 128,-1,49
 82 312 82 312 82 283 c 0,50,51
 82 256 82 256 105 237 c 0,52,53
 127 220 127 220 155 220 c 256,54,55
 183 220 183 220 203.5 240.5 c 128,-1,56
 224 261 224 261 224 288 c 0,44,45
EndSplineSet
EndChar

StartChar: parenleft.001
Encoding: 65542 -1 6
Width: 312
Flags: W
LayerCount: 2
Fore
SplineSet
279 606 m 1,0,1
 208 471 208 471 180 386 c 0,2,3
 139 265 139 265 139 146 c 0,4,5
 139 -4 139 -4 170 -122 c 0,6,7
 203 -237 203 -237 277 -370 c 1,8,-1
 234 -370 l 1,9,10
 146 -243 146 -243 105 -137 c 0,11,12
 59 -12 59 -12 59 126 c 0,13,14
 59 256 59 256 110 379 c 0,15,16
 146 465 146 465 238 606 c 1,17,-1
 279 606 l 1,0,1
EndSplineSet
EndChar

StartChar: parenright.001
Encoding: 65543 -1 7
Width: 312
Flags: W
LayerCount: 2
Fore
SplineSet
253 115 m 0,0,1
 253 -18 253 -18 203 -142 c 0,2,3
 166 -228 166 -228 73 -370 c 1,4,-1
 32 -370 l 1,5,6
 173 -110 173 -110 173 90 c 0,7,8
 173 251 173 251 142 359 c 0,9,10
 116 446 116 446 34 606 c 1,11,-1
 77 606 l 1,12,13
 166 476 166 476 205 375 c 0,14,15
 253 250 253 250 253 115 c 0,0,1
EndSplineSet
EndChar

StartChar: asterisk.001
Encoding: 65544 -1 8
Width: 295
Flags: W
LayerCount: 2
Fore
SplineSet
265 49 m 1,0,-1
 256 31 l 1,1,-1
 153 89 l 1,2,-1
 153 -29 l 1,3,-1
 134 -29 l 1,4,-1
 134 89 l 1,5,-1
 31 29 l 1,6,-1
 21 48 l 1,7,-1
 123 105 l 1,8,-1
 21 165 l 1,9,-1
 31 184 l 1,10,-1
 134 126 l 1,11,-1
 134 243 l 1,12,-1
 153 243 l 1,13,-1
 153 126 l 1,14,-1
 255 185 l 1,15,-1
 265 167 l 1,16,-1
 163 107 l 1,17,-1
 265 49 l 1,0,-1
163 107 m 1,18,-1
 153 126 l 1,19,-1
 134 126 l 1,20,-1
 123 105 l 1,21,-1
 134 89 l 1,22,-1
 153 89 l 1,23,-1
 163 107 l 1,18,-1
EndSplineSet
EndChar

StartChar: plus.001
Encoding: 65545 -1 9
Width: 553
Flags: W
LayerCount: 2
Fore
SplineSet
517 104 m 1,0,-1
 314 104 l 1,1,-1
 314 -98 l 1,2,-1
 241 -98 l 1,3,-1
 241 104 l 1,4,-1
 39 104 l 1,5,-1
 39 181 l 1,6,-1
 241 181 l 1,7,-1
 241 381 l 1,8,-1
 314 381 l 1,9,-1
 314 181 l 1,10,-1
 517 181 l 1,11,-1
 517 104 l 1,0,-1
EndSplineSet
EndChar

StartChar: comma.001
Encoding: 65546 -1 10
Width: 114
Flags: W
LayerCount: 2
Fore
SplineSet
2 15 m 0,0,1
 2 62 2 62 61 62 c 0,2,3
 96 62 96 62 108 44 c 0,4,5
 116 30 116 30 116 -8 c 0,6,7
 116 -77 116 -77 105 -105 c 0,8,9
 87 -153 87 -153 28 -160 c 1,10,-1
 28 -131 l 1,11,12
 63 -128 63 -128 74 -99 c 0,13,14
 81 -83 81 -83 83 -39 c 1,15,16
 2 -39 2 -39 2 15 c 0,0,1
EndSplineSet
EndChar

StartChar: hyphen.001
Encoding: 65547 -1 11
Width: 498
Flags: W
LayerCount: 2
Fore
SplineSet
467 104 m 1,0,-1
 41 104 l 1,1,-1
 41 181 l 1,2,-1
 467 181 l 1,3,-1
 467 104 l 1,0,-1
EndSplineSet
EndChar

StartChar: period.001
Encoding: 65548 -1 12
Width: 244
Flags: W
LayerCount: 2
Fore
SplineSet
181 42 m 0,0,1
 181 -10 181 -10 121 -10 c 0,2,3
 66 -10 66 -10 66 42 c 0,4,5
 66 90 66 90 125 90 c 0,6,7
 181 90 181 90 181 42 c 0,0,1
EndSplineSet
EndChar

StartChar: slash.001
Encoding: 65549 -1 13
Width: 421
Flags: W
LayerCount: 2
Fore
SplineSet
392 403 m 1,0,-1
 110 -105 l 1,1,-1
 36 -105 l 1,2,-1
 314 403 l 1,3,-1
 392 403 l 1,0,-1
EndSplineSet
EndChar

StartChar: zero.001
Encoding: 1632 1632 14
AltUni2: 0006f0.ffffffff.0
Width: 525
Flags: W
LayerCount: 2
Fore
SplineSet
401 138 m 0,0,1
 401 87 401 87 357.5 48.5 c 128,-1,2
 314 10 314 10 263 10 c 0,3,4
 208 10 208 10 165.5 48.5 c 128,-1,5
 123 87 123 87 123 141 c 0,6,7
 123 194 123 194 166.5 236.5 c 128,-1,8
 210 279 210 279 265 279 c 0,9,10
 318 279 318 279 359.5 234.5 c 128,-1,11
 401 190 401 190 401 138 c 0,0,1
339 141 m 0,12,13
 339 170 339 170 315.5 193.5 c 128,-1,14
 292 217 292 217 261 217 c 0,15,16
 229 217 229 217 206.5 192.5 c 128,-1,17
 184 168 184 168 184 137 c 0,18,19
 184 107 184 107 209 86 c 0,20,21
 234 66 234 66 265 66 c 0,22,23
 294 66 294 66 316.5 88 c 128,-1,24
 339 110 339 110 339 141 c 0,12,13
EndSplineSet
EndChar

StartChar: one.001
Encoding: 1633 1633 15
AltUni2: 0006f1.ffffffff.0
Width: 525
Flags: W
LayerCount: 2
Fore
SplineSet
319 -87 m 1,0,-1
 243 -87 l 1,1,-1
 243 151 l 2,2,3
 243 271 243 271 206 396 c 1,4,-1
 280 420 l 1,5,-1
 308 315 l 2,6,7
 308 313 308 313 311 288 c 0,8,9
 319 218 319 218 319 151 c 2,10,-1
 319 -87 l 1,0,-1
EndSplineSet
EndChar

StartChar: two.001
Encoding: 1634 1634 16
AltUni2: 0006f2.ffffffff.0
Width: 525
Flags: W
LayerCount: 2
Fore
SplineSet
416 278 m 0,0,1
 416 234 416 234 377 204 c 0,2,3
 341 176 341 176 297 176 c 0,4,5
 263 176 263 176 224 202 c 1,6,-1
 225 -87 l 1,7,-1
 146 -87 l 1,8,-1
 146 142 l 2,9,10
 146 296 146 296 109 396 c 1,11,-1
 185 420 l 1,12,-1
 216 292 l 2,13,14
 228 243 228 243 273 243 c 0,15,16
 306 243 306 243 323 269 c 0,17,18
 336 287 336 287 334 305 c 2,19,-1
 321 397 l 1,20,21
 346 406 346 406 394 421 c 1,22,23
 416 314 416 314 416 278 c 0,0,1
EndSplineSet
EndChar

StartChar: three.001
Encoding: 1635 1635 17
AltUni2: 0006f3.ffffffff.0
Width: 525
Flags: W
LayerCount: 2
Fore
SplineSet
504 283 m 0,0,1
 504 241 504 241 468 211 c 0,2,3
 435 183 435 183 391 183 c 0,4,5
 343 183 343 183 295 236 c 1,6,7
 295 181 295 181 213 181 c 0,8,9
 172 181 172 181 136 200 c 1,10,-1
 137 -87 l 1,11,-1
 61 -87 l 1,12,-1
 61 142 l 2,13,14
 61 286 61 286 21 396 c 1,15,-1
 99 420 l 1,16,-1
 128 292 l 2,17,18
 140 243 140 243 188 243 c 0,19,20
 214 243 214 243 229 260 c 0,21,22
 252 281 252 281 248 305 c 2,23,-1
 233 397 l 1,24,-1
 308 426 l 1,25,26
 325 333 325 333 325 293 c 0,27,28
 325 288 325 288 323 266 c 1,29,30
 344 241 344 241 373 241 c 0,31,32
 396 241 396 241 412.5 257 c 128,-1,33
 429 273 429 273 429 296 c 0,34,35
 429 301 429 301 429 305 c 2,36,-1
 417 397 l 1,37,-1
 488 420 l 1,38,-1
 503 294 l 2,39,40
 504 289 504 289 504 283 c 0,0,1
EndSplineSet
EndChar

StartChar: four.001
Encoding: 1636 1636 18
AltUni2: 0006f4.ffffffff.0
Width: 525
Flags: W
LayerCount: 2
Fore
SplineSet
467 203 m 1,0,1
 382 163 382 163 306 163 c 0,2,3
 241 163 241 163 170 193 c 1,4,-1
 171 -87 l 1,5,-1
 96 -87 l 1,6,-1
 96 146 l 2,7,8
 96 262 96 262 59 396 c 1,9,-1
 131 420 l 1,10,11
 153 339 153 339 166 268 c 1,12,-1
 206 249 l 1,13,14
 206 425 206 425 348 425 c 0,15,16
 393 425 393 425 442 399 c 1,17,-1
 417 332 l 1,18,19
 385 355 385 355 351 355 c 0,20,21
 320 355 320 355 296 334 c 128,-1,22
 272 313 272 313 272 282 c 0,23,24
 272 231 272 231 331 231 c 0,25,26
 376 231 376 231 442 265 c 1,27,-1
 467 203 l 1,0,1
EndSplineSet
EndChar

StartChar: five.001
Encoding: 1637 1637 19
AltUni2: 0006f5.ffffffff.0
Width: 525
Flags: W
LayerCount: 2
Fore
SplineSet
505 31 m 0,0,1
 505 -30 505 -30 458 -69 c 0,2,3
 416 -104 416 -104 352 -104 c 0,4,5
 294 -104 294 -104 254 -73 c 1,6,7
 200 -105 200 -105 148 -105 c 0,8,9
 89 -105 89 -105 53 -59 c 0,10,11
 21 -16 21 -16 21 46 c 0,12,13
 21 141 21 141 98 235 c 2,14,-1
 183 340 l 1,15,-1
 151 361 l 1,16,-1
 203 421 l 1,17,18
 505 195 505 195 505 31 c 0,0,1
423 51 m 0,19,20
 423 143 423 143 241 294 c 1,21,22
 103 148 103 148 103 52 c 0,23,24
 103 -21 103 -21 168 -21 c 0,25,26
 229 -21 229 -21 229 48 c 0,27,28
 229 52 229 52 225 77 c 1,29,-1
 302 77 l 1,30,31
 308 66 308 66 308 48 c 0,32,33
 308 10 308 10 299 -5 c 1,34,35
 321 -20 321 -20 350 -20 c 0,36,37
 423 -20 423 -20 423 51 c 0,19,20
EndSplineSet
EndChar

StartChar: six.001
Encoding: 1638 1638 20
AltUni2: 0006f6.ffffffff.0
Width: 525
Flags: W
LayerCount: 2
Fore
SplineSet
421 209 m 1,0,1
 390 183 390 183 360 146 c 2,2,-1
 295 66 l 2,3,4
 244 4 244 4 183 -106 c 1,5,-1
 112 -65 l 1,6,7
 149 7 149 7 255 144 c 1,8,9
 187 144 187 144 146 180 c 0,10,11
 104 217 104 217 104 284 c 0,12,13
 104 346 104 346 142.5 386.5 c 128,-1,14
 181 427 181 427 241 427 c 0,15,16
 284 427 284 427 339 397 c 1,17,-1
 314 328 l 1,18,19
 281 347 281 347 251 347 c 0,20,21
 223 347 223 347 203 328.5 c 128,-1,22
 183 310 183 310 183 281 c 0,23,24
 183 220 183 220 253 220 c 0,25,26
 301 220 301 220 358 256 c 1,27,-1
 421 209 l 1,0,1
EndSplineSet
EndChar

StartChar: seven.001
Encoding: 1639 1639 21
AltUni2: 0006f7.ffffffff.0
Width: 525
Flags: W
LayerCount: 2
Fore
SplineSet
481 387 m 1,0,-1
 417 277 l 2,1,2
 386 224 386 224 360 163 c 0,3,4
 321 66 321 66 292 -87 c 1,5,-1
 231 -87 l 1,6,7
 212 47 212 47 164 161 c 0,8,9
 128 248 128 248 46 387 c 1,10,-1
 112 421 l 1,11,12
 185 299 185 299 214 222 c 0,13,14
 217 214 217 214 229 169 c 2,15,-1
 260 57 l 1,16,-1
 268 56 l 1,17,18
 300 213 300 213 352 308 c 2,19,-1
 414 421 l 1,20,21
 444 405 444 405 481 387 c 1,0,-1
EndSplineSet
EndChar

StartChar: eight.001
Encoding: 1640 1640 22
AltUni2: 0006f8.ffffffff.0
Width: 525
Flags: W
LayerCount: 2
Fore
SplineSet
481 -49 m 1,0,1
 445 -65 445 -65 413 -85 c 1,2,3
 342 38 342 38 312 117 c 0,4,5
 308 130 308 130 296 175 c 2,6,-1
 268 281 l 1,7,-1
 260 282 l 1,8,9
 243 211 243 211 214 118 c 0,10,11
 191 48 191 48 111 -85 c 1,12,13
 73 -63 73 -63 44 -48 c 1,14,15
 129 96 129 96 164 178 c 0,16,17
 208 283 208 283 232 426 c 1,18,-1
 293 425 l 1,19,20
 325 230 325 230 407 80 c 0,21,22
 431 35 431 35 481 -49 c 1,0,1
EndSplineSet
EndChar

StartChar: nine.001
Encoding: 1641 1641 23
AltUni2: 0006f9.ffffffff.0
Width: 525
Flags: W
LayerCount: 2
Fore
SplineSet
405 -87 m 1,0,-1
 328 -87 l 1,1,-1
 328 181 l 1,2,3
 281 164 281 164 241 164 c 0,4,5
 185 164 185 164 153 195 c 128,-1,6
 121 226 121 226 121 281 c 0,7,8
 121 342 121 342 158 384 c 0,9,10
 196 427 196 427 256 427 c 0,11,12
 293 427 293 427 336 400 c 0,13,14
 405 360 405 360 405 167 c 2,15,-1
 405 -87 l 1,0,-1
320 260 m 1,16,17
 317 280 317 280 309 318 c 1,18,19
 299 346 299 346 277 351 c 0,20,21
 276 352 276 352 252 355 c 0,22,23
 223 355 223 355 205 334.5 c 128,-1,24
 187 314 187 314 187 284 c 0,25,26
 187 232 187 232 241 232 c 0,27,28
 273 232 273 232 320 260 c 1,16,17
EndSplineSet
EndChar

StartChar: colon.001
Encoding: 65550 -1 24
Width: 244
Flags: W
LayerCount: 2
Fore
SplineSet
185 235 m 0,0,1
 185 184 185 184 126 184 c 0,2,3
 69 184 69 184 69 235 c 0,4,5
 69 283 69 283 129 283 c 0,6,7
 185 283 185 283 185 235 c 0,0,1
186 52 m 0,8,9
 186 0 186 0 126 0 c 0,10,11
 103 0 103 0 86.5 14 c 128,-1,12
 70 28 70 28 70 52 c 0,13,14
 70 100 70 100 131 100 c 0,15,16
 186 100 186 100 186 52 c 0,8,9
EndSplineSet
EndChar

StartChar: equal
Encoding: 61 61 25
Width: 531
Flags: W
LayerCount: 2
Fore
SplineSet
481 163 m 1,0,-1
 52 163 l 1,1,-1
 52 239 l 1,2,-1
 481 239 l 1,3,-1
 481 163 l 1,0,-1
481 0 m 1,4,-1
 52 0 l 1,5,-1
 52 76 l 1,6,-1
 481 76 l 1,7,-1
 481 0 l 1,4,-1
EndSplineSet
EndChar

StartChar: bracketleft
Encoding: 91 91 26
Width: 334
Flags: W
LayerCount: 2
Fore
SplineSet
302 -361 m 1,0,-1
 69 -361 l 1,1,-1
 69 767 l 1,2,-1
 302 767 l 1,3,-1
 302 693 l 1,4,-1
 149 693 l 1,5,-1
 148 -288 l 1,6,-1
 302 -288 l 1,7,-1
 302 -361 l 1,0,-1
EndSplineSet
EndChar

StartChar: bracketright
Encoding: 93 93 27
Width: 340
Flags: W
LayerCount: 2
Fore
SplineSet
68 -293 m 1,0,-1
 222 -293 l 1,1,-1
 221 690 l 1,2,-1
 68 690 l 1,3,-1
 68 764 l 1,4,-1
 300 764 l 1,5,-1
 301 -367 l 1,6,-1
 68 -367 l 1,7,-1
 68 -293 l 1,0,-1
EndSplineSet
EndChar

StartChar: braceleft
Encoding: 123 123 28
Width: 456
Flags: W
LayerCount: 2
Fore
SplineSet
367 -306 m 1,0,1
 275 -288 275 -288 218 -229 c 0,2,3
 156 -166 156 -166 156 -74 c 0,4,5
 156 -36 156 -36 172 30 c 0,6,7
 185 84 185 84 185 98 c 0,8,9
 185 155 185 155 142 195 c 0,10,11
 102 231 102 231 42 239 c 1,12,-1
 42 261 l 1,13,14
 185 292 185 292 185 392 c 0,15,16
 185 417 185 417 174 464 c 0,17,18
 159 536 159 536 159 575 c 0,19,20
 159 667 159 667 219 729 c 0,21,22
 275 790 275 790 367 805 c 1,23,-1
 367 782 l 1,24,25
 311 773 311 773 274 738 c 0,26,27
 234 700 234 700 234 646 c 0,28,29
 234 618 234 618 242 577 c 0,30,31
 260 482 260 482 260 451 c 0,32,33
 260 317 260 317 89 250 c 1,34,35
 258 183 258 183 258 42 c 0,36,37
 258 12 258 12 242 -65 c 0,38,39
 231 -113 231 -113 231 -145 c 0,40,41
 231 -252 231 -252 367 -283 c 1,42,-1
 367 -306 l 1,0,1
EndSplineSet
EndChar

StartChar: braceright
Encoding: 125 125 29
Width: 421
Flags: W
LayerCount: 2
Fore
SplineSet
57 -282 m 1,0,1
 191 -251 191 -251 191 -144 c 0,2,3
 191 -109 191 -109 183 -63 c 0,4,5
 165 17 165 17 165 45 c 0,6,7
 165 183 165 183 334 253 c 1,8,9
 163 320 163 320 163 453 c 0,10,11
 163 477 163 477 183 578 c 0,12,13
 188 613 188 613 188 647 c 0,14,15
 188 703 188 703 149 739 c 0,16,17
 113 773 113 773 57 783 c 1,18,-1
 57 807 l 1,19,20
 148 791 148 791 205 730 c 0,21,22
 266 669 266 669 266 577 c 0,23,24
 266 543 266 543 248 465 c 0,25,26
 240 424 240 424 240 393 c 0,27,28
 240 293 240 293 382 262 c 1,29,-1
 382 240 l 1,30,31
 323 232 323 232 283 196 c 0,32,33
 240 156 240 156 240 99 c 0,34,35
 240 87 240 87 252 31 c 0,36,37
 267 -32 267 -32 267 -73 c 0,38,39
 267 -164 267 -164 206 -228 c 0,40,41
 148 -288 148 -288 57 -304 c 1,42,-1
 57 -282 l 1,0,1
EndSplineSet
EndChar

StartChar: guillemotleft
Encoding: 171 171 30
Width: 401
Flags: W
LayerCount: 2
Fore
SplineSet
359 2 m 1,0,-1
 222 110 l 1,1,-1
 222 194 l 1,2,-1
 359 303 l 1,3,-1
 359 241 l 1,4,-1
 247 153 l 1,5,-1
 359 66 l 1,6,-1
 359 2 l 1,0,-1
183 2 m 1,7,-1
 42 110 l 1,8,-1
 42 194 l 1,9,-1
 183 303 l 1,10,-1
 183 241 l 1,11,-1
 67 153 l 1,12,-1
 183 66 l 1,13,-1
 183 2 l 1,7,-1
EndSplineSet
EndChar

StartChar: guillemotright
Encoding: 187 187 31
Width: 401
Flags: W
LayerCount: 2
Fore
SplineSet
358 110 m 1,0,-1
 220 2 l 1,1,-1
 220 65 l 1,2,-1
 333 150 l 1,3,-1
 220 240 l 1,4,-1
 220 303 l 1,5,-1
 358 194 l 1,6,-1
 358 110 l 1,0,-1
181 110 m 1,7,-1
 41 2 l 1,8,-1
 41 65 l 1,9,-1
 153 150 l 1,10,-1
 41 240 l 1,11,-1
 41 303 l 1,12,-1
 181 194 l 1,13,-1
 181 110 l 1,7,-1
EndSplineSet
EndChar

StartChar: multiply
Encoding: 215 215 32
Width: 553
Flags: W
LayerCount: 2
Fore
SplineSet
512 -39 m 1,0,-1
 457 -93 l 1,1,-1
 279 87 l 1,2,-1
 98 -93 l 1,3,-1
 44 -40 l 1,4,-1
 226 142 l 1,5,-1
 43 322 l 1,6,-1
 97 377 l 1,7,-1
 277 195 l 1,8,-1
 459 378 l 1,9,-1
 512 322 l 1,10,-1
 332 142 l 1,11,-1
 512 -39 l 1,0,-1
EndSplineSet
EndChar

StartChar: divide
Encoding: 247 247 33
Width: 508
Flags: W
LayerCount: 2
Fore
SplineSet
308 322 m 0,0,1
 308 299 308 299 289.5 280.5 c 128,-1,2
 271 262 271 262 248 262 c 0,3,4
 224 262 224 262 207 281 c 0,5,6
 192 300 192 300 192 325 c 0,7,8
 192 348 192 348 209.5 364 c 128,-1,9
 227 380 227 380 249 380 c 0,10,11
 272 380 272 380 290 363 c 128,-1,12
 308 346 308 346 308 322 c 0,0,1
476 98 m 1,13,-1
 31 98 l 1,14,-1
 31 175 l 1,15,-1
 476 175 l 1,16,-1
 476 98 l 1,13,-1
304 -52 m 256,17,18
 304 -75 304 -75 286 -92 c 128,-1,19
 268 -109 268 -109 243 -109 c 0,20,21
 221 -109 221 -109 203 -90 c 0,22,23
 188 -72 188 -72 188 -49 c 0,24,25
 188 -24 188 -24 206 -8 c 128,-1,26
 224 8 224 8 248 8 c 0,27,28
 271 8 271 8 287.5 -10.5 c 128,-1,29
 304 -29 304 -29 304 -52 c 256,17,18
EndSplineSet
EndChar

StartChar: lefttoright
Encoding: 8206 8206 36
Width: 18
Flags: W
LayerCount: 2
Fore
SplineSet
117 626 m 1,0,-1
 66 572 l 1,1,-1
 52 585 l 1,2,-1
 87 618 l 1,3,-1
 18 618 l 1,4,-1
 18 0 l 1,5,-1
 0 0 l 1,6,-1
 0 635 l 1,7,-1
 85 635 l 1,8,-1
 52 667 l 1,9,-1
 66 680 l 1,10,-1
 117 626 l 1,0,-1
EndSplineSet
EndChar

StartChar: righttoleft
Encoding: 8207 8207 37
Width: 18
Flags: W
LayerCount: 2
Fore
SplineSet
18 0 m 1,0,-1
 0 0 l 1,1,-1
 0 618 l 1,2,-1
 -69 618 l 1,3,-1
 -35 585 l 1,4,-1
 -48 572 l 1,5,-1
 -102 626 l 1,6,-1
 -48 680 l 1,7,-1
 -35 667 l 1,8,-1
 -67 635 l 1,9,-1
 18 635 l 1,10,-1
 18 0 l 1,0,-1
EndSplineSet
EndChar

StartChar: quoteleft
Encoding: 8216 8216 38
Width: 287
Flags: W
LayerCount: 2
Fore
SplineSet
203 424 m 0,0,1
 203 376 203 376 143 376 c 0,2,3
 108 376 108 376 97 395 c 0,4,5
 88 407 88 407 88 445 c 0,6,7
 88 515 88 515 99 544 c 0,8,9
 117 592 117 592 175 598 c 1,10,-1
 175 569 l 1,11,12
 143 566 143 566 129 536 c 0,13,14
 123 519 123 519 121 477 c 1,15,16
 203 477 203 477 203 424 c 0,0,1
EndSplineSet
EndChar

StartChar: quoteright
Encoding: 8217 8217 39
Width: 247
Flags: W
LayerCount: 2
Fore
SplineSet
66 550 m 0,0,1
 66 598 66 598 125 598 c 0,2,3
 161 598 161 598 172 579 c 0,4,5
 181 566 181 566 181 528 c 0,6,7
 181 457 181 457 169 429 c 0,8,9
 150 381 150 381 93 376 c 1,10,-1
 93 404 l 1,11,12
 128 407 128 407 140 437 c 0,13,14
 146 452 146 452 147 496 c 1,15,16
 66 496 66 496 66 550 c 0,0,1
EndSplineSet
EndChar

StartChar: quotedblleft
Encoding: 8220 8220 40
Width: 268
Flags: W
LayerCount: 2
Fore
SplineSet
131 421 m 0,0,1
 131 373 131 373 71 373 c 0,2,3
 36 373 36 373 25 392 c 0,4,5
 17 405 17 405 17 443 c 0,6,7
 17 514 17 514 28 542 c 0,8,9
 47 591 47 591 104 595 c 1,10,-1
 104 567 l 1,11,12
 69 564 69 564 58 534 c 0,13,14
 51 518 51 518 50 476 c 1,15,16
 131 476 131 476 131 421 c 0,0,1
262 424 m 0,17,18
 262 376 262 376 203 376 c 0,19,20
 167 376 167 376 156 395 c 0,21,22
 147 407 147 407 147 445 c 0,23,24
 147 515 147 515 158 544 c 0,25,26
 177 592 177 592 234 598 c 1,27,-1
 234 569 l 1,28,29
 202 566 202 566 188 536 c 0,30,31
 183 519 183 519 181 477 c 1,32,33
 262 477 262 477 262 424 c 0,17,18
EndSplineSet
EndChar

StartChar: quotedblright
Encoding: 8221 8221 41
Width: 268
Flags: W
LayerCount: 2
Fore
SplineSet
147 550 m 0,0,1
 147 598 147 598 206 598 c 0,2,3
 243 598 243 598 254 579 c 0,4,5
 262 566 262 566 262 528 c 0,6,7
 262 457 262 457 251 429 c 0,8,9
 232 381 232 381 175 376 c 1,10,-1
 175 404 l 1,11,12
 208 407 208 407 222 437 c 0,13,14
 228 452 228 452 229 496 c 1,15,16
 147 496 147 496 147 550 c 0,0,1
17 548 m 0,17,18
 17 595 17 595 75 595 c 0,19,20
 110 595 110 595 123 576 c 0,21,22
 131 563 131 563 131 526 c 0,23,24
 131 456 131 456 121 427 c 0,25,26
 103 379 103 379 44 373 c 1,27,-1
 44 401 l 1,28,29
 77 406 77 406 89 436 c 0,30,31
 96 452 96 452 98 494 c 1,32,33
 17 494 17 494 17 548 c 0,17,18
EndSplineSet
EndChar

StartChar: guilsinglleft
Encoding: 8249 8249 42
Width: 273
Flags: W
LayerCount: 2
Fore
SplineSet
212 2 m 1,0,-1
 73 110 l 1,1,-1
 73 194 l 1,2,-1
 212 303 l 1,3,-1
 212 241 l 1,4,-1
 101 153 l 1,5,-1
 212 66 l 1,6,-1
 212 2 l 1,0,-1
EndSplineSet
EndChar

StartChar: guilsinglright
Encoding: 8250 8250 43
Width: 248
Flags: W
LayerCount: 2
Fore
SplineSet
205 110 m 1,0,-1
 66 2 l 1,1,-1
 66 65 l 1,2,-1
 181 150 l 1,3,-1
 66 240 l 1,4,-1
 66 303 l 1,5,-1
 205 194 l 1,6,-1
 205 110 l 1,0,-1
EndSplineSet
EndChar

StartChar: u060C
Encoding: 1548 1548 44
Width: 224
Flags: W
LayerCount: 2
Fore
SplineSet
168 48 m 0,0,1
 168 0 168 0 109 0 c 0,2,3
 73 0 73 0 62 19 c 0,4,5
 54 32 54 32 54 69 c 0,6,7
 54 140 54 140 65 168 c 0,8,9
 83 217 83 217 142 223 c 1,10,-1
 142 193 l 1,11,12
 106 189 106 189 95 161 c 0,13,14
 89 145 89 145 87 102 c 1,15,16
 168 102 168 102 168 48 c 0,0,1
EndSplineSet
EndChar

StartChar: u061B
Encoding: 1563 1563 45
Width: 244
Flags: W
LayerCount: 2
Fore
SplineSet
184 224 m 0,0,1
 184 176 184 176 125 176 c 0,2,3
 88 176 88 176 75 194 c 0,4,5
 67 208 67 208 67 245 c 0,6,7
 67 314 67 314 78 343 c 0,8,9
 96 388 96 388 154 396 c 1,10,-1
 154 369 l 1,11,12
 120 361 120 361 109 336 c 0,13,14
 103 320 103 320 102 277 c 1,15,16
 184 277 184 277 184 224 c 0,0,1
185 48 m 0,17,18
 185 0 185 0 126 0 c 0,19,20
 69 0 69 0 69 48 c 0,21,22
 69 100 69 100 129 100 c 0,23,24
 185 100 185 100 185 48 c 0,17,18
EndSplineSet
EndChar

StartChar: u061F
Encoding: 1567 1567 46
Width: 351
Flags: W
LayerCount: 2
Fore
SplineSet
321 336 m 1,0,-1
 245 336 l 1,1,2
 245 433 245 433 177 433 c 0,3,4
 112 433 112 433 112 373 c 0,5,6
 112 351 112 351 123 340 c 2,7,-1
 161 299 l 2,8,9
 197 259 197 259 205 239 c 0,10,11
 215 212 215 212 220 146 c 1,12,-1
 145 146 l 1,13,14
 145 191 145 191 131 220 c 0,15,16
 123 238 123 238 91 267 c 0,17,18
 59 299 59 299 49 314 c 0,19,20
 32 340 32 340 32 376 c 0,21,22
 32 437 32 437 75 471 c 0,23,24
 114 501 114 501 178 501 c 0,25,26
 223 501 223 501 259 480 c 0,27,28
 298 457 298 457 312 418 c 0,29,30
 320 391 320 391 321 336 c 1,0,-1
231 48 m 0,31,32
 231 26 231 26 214 12 c 0,33,34
 199 0 199 0 176 0 c 0,35,36
 156 0 156 0 141.5 14 c 128,-1,37
 127 28 127 28 127 48 c 0,38,39
 127 91 127 91 180 91 c 0,40,41
 231 91 231 91 231 48 c 0,31,32
EndSplineSet
EndChar

StartChar: u0640
Encoding: 1600 1600 47
Width: 203
Flags: W
LayerCount: 2
Fore
SplineSet
220 0 m 1,0,-1
 -10 0 l 1,1,-1
 -10 78 l 1,2,-1
 220 78 l 1,3,-1
 220 0 l 1,0,-1
EndSplineSet
EndChar

StartChar: u064B
Encoding: 1611 1611 48
Width: 0
Flags: W
LayerCount: 2
Fore
SplineSet
236 771 m 1,0,-1
 99 696 l 1,1,-1
 87 719 l 1,2,-1
 224 794 l 1,3,-1
 236 771 l 1,0,-1
235 721 m 1,4,-1
 99 647 l 1,5,-1
 87 668 l 1,6,-1
 224 743 l 1,7,-1
 235 721 l 1,4,-1
EndSplineSet
EndChar

StartChar: u064C
Encoding: 1612 1612 49
Width: 0
Flags: W
LayerCount: 2
Fore
SplineSet
243 741 m 0,0,1
 243 702 243 702 223 690 c 2,2,-1
 99 625 l 1,3,-1
 87 646 l 1,4,5
 109 660 109 660 113 668 c 1,6,7
 113 684 113 684 94 684 c 0,8,9
 82 684 82 684 73 679 c 1,10,-1
 65 693 l 1,11,12
 89 703 89 703 102 703 c 0,13,14
 126 703 126 703 132 668 c 1,15,-1
 166 687 l 1,16,17
 131 707 131 707 131 737 c 0,18,19
 131 776 131 776 169 791 c 0,20,21
 183 796 183 796 186 796 c 0,22,23
 208 796 208 796 225.5 780.5 c 128,-1,24
 243 765 243 765 243 741 c 0,0,1
224 741 m 0,25,26
 224 756 224 756 212 765.5 c 128,-1,27
 200 775 200 775 186 775 c 0,28,29
 150 775 150 775 150 738 c 0,30,31
 150 704 150 704 188 704 c 0,32,33
 200 704 200 704 212 716.5 c 128,-1,34
 224 729 224 729 224 741 c 0,25,26
EndSplineSet
EndChar

StartChar: u064D
Encoding: 1613 1613 50
Width: 0
Flags: W
LayerCount: 2
Fore
SplineSet
98 -317 m 1,0,-1
 -38 -390 l 1,1,-1
 -50 -370 l 1,2,-1
 86 -295 l 1,3,-1
 98 -317 l 1,0,-1
98 -379 m 1,4,-1
 -38 -453 l 1,5,-1
 -50 -432 l 1,6,-1
 86 -356 l 1,7,-1
 98 -379 l 1,4,-1
EndSplineSet
EndChar

StartChar: u064E
Encoding: 1614 1614 51
Width: 0
Flags: W
LayerCount: 2
Fore
SplineSet
235 719 m 1,0,-1
 99 646 l 1,1,-1
 87 666 l 1,2,-1
 224 742 l 1,3,-1
 235 719 l 1,0,-1
EndSplineSet
EndChar

StartChar: u064F
Encoding: 1615 1615 52
Width: 0
Flags: W
LayerCount: 2
Fore
SplineSet
220 738 m 0,0,1
 220 699 220 699 197 687 c 2,2,-1
 99 635 l 1,3,-1
 87 655 l 1,4,-1
 142 686 l 1,5,6
 107 705 107 705 107 734 c 0,7,8
 107 774 107 774 146 788 c 0,9,10
 158 793 158 793 161 793 c 0,11,12
 185 793 185 793 202.5 777.5 c 128,-1,13
 220 762 220 762 220 738 c 0,0,1
199 739 m 0,14,15
 199 753 199 753 187.5 762.5 c 128,-1,16
 176 772 176 772 161 772 c 0,17,18
 127 772 127 772 127 735 c 0,19,20
 127 701 127 701 164 701 c 0,21,22
 176 701 176 701 187.5 714 c 128,-1,23
 199 727 199 727 199 739 c 0,14,15
EndSplineSet
EndChar

StartChar: u0650
Encoding: 1616 1616 53
Width: 0
Flags: W
LayerCount: 2
Fore
SplineSet
94 -327 m 1,0,-1
 -42 -400 l 1,1,-1
 -54 -379 l 1,2,-1
 83 -304 l 1,3,-1
 94 -327 l 1,0,-1
EndSplineSet
EndChar

StartChar: u0651
Encoding: 1617 1617 54
Width: 0
Flags: W
LayerCount: 2
Fore
SplineSet
278 747 m 1,0,1
 278 721 278 721 263 702 c 0,2,3
 247 682 247 682 222 682 c 0,4,5
 202 682 202 682 173 706 c 1,6,7
 152 682 152 682 125 682 c 0,8,9
 101 682 101 682 86 703 c 0,10,11
 73 722 73 722 73 747 c 1,12,-1
 92 747 l 1,13,14
 92 704 92 704 128 704 c 0,15,16
 163 704 163 704 164 747 c 1,17,-1
 186 747 l 1,18,19
 186 704 186 704 223 704 c 0,20,21
 257 704 257 704 258 747 c 1,22,-1
 278 747 l 1,0,1
EndSplineSet
EndChar

StartChar: u0652
Encoding: 1618 1618 55
Width: 0
Flags: W
LayerCount: 2
Fore
SplineSet
211 710 m 256,0,1
 211 687 211 687 194 671.5 c 128,-1,2
 177 656 177 656 152 656 c 0,3,4
 130 656 130 656 115 673.5 c 128,-1,5
 100 691 100 691 100 715 c 0,6,7
 100 738 100 738 117 752.5 c 128,-1,8
 134 767 134 767 158 767 c 256,9,10
 182 767 182 767 196.5 750 c 128,-1,11
 211 733 211 733 211 710 c 256,0,1
190 711 m 0,12,13
 190 738 190 738 165 746 c 0,14,15
 157 749 157 749 155 749 c 0,16,17
 142 749 142 749 130 738 c 128,-1,18
 118 727 118 727 118 711 c 0,19,20
 118 697 118 697 130 686 c 128,-1,21
 142 675 142 675 155 675 c 0,22,23
 169 675 169 675 179.5 687 c 128,-1,24
 190 699 190 699 190 711 c 0,12,13
EndSplineSet
EndChar

StartChar: u0621
Encoding: 1569 1569 76
Width: 229
Flags: W
LayerCount: 2
Fore
SplineSet
204 85 m 1,0,-1
 41 0 l 1,1,-1
 28 27 l 1,2,-1
 85 57 l 1,3,4
 34 84 34 84 34 129 c 0,5,6
 34 165 34 165 56 187.5 c 128,-1,7
 78 210 78 210 112 210 c 0,8,9
 136 210 136 210 158 202 c 1,10,-1
 146 176 l 1,11,12
 130 185 130 185 114 185 c 0,13,14
 62 185 62 185 62 129 c 0,15,16
 62 85 62 85 106 85 c 0,17,18
 141 85 141 85 189 110 c 1,19,-1
 204 85 l 1,0,-1
EndSplineSet
EndChar

StartChar: u0622
Encoding: 1570 1570 77
AltUni2: 00fe81.ffffffff.0
Width: 290
Flags: W
LayerCount: 2
Fore
SplineSet
293 544 m 1,0,-1
 98 544 l 2,1,2
 85 544 85 544 52 539 c 0,3,4
 33 537 33 537 26 531 c 0,5,6
 15 522 15 522 -1 487 c 1,7,-1
 -71 515 l 1,8,9
 -44 575 -44 575 -21 593 c 0,10,11
 5 613 5 613 81 620 c 0,12,13
 104 622 104 622 191 622 c 0,14,15
 225 622 225 622 293 620 c 1,16,-1
 293 544 l 1,0,-1
187 0 m 1,17,-1
 110 0 l 1,18,-1
 110 500 l 1,19,-1
 187 500 l 1,20,-1
 187 0 l 1,17,-1
EndSplineSet
Substitution2: "Single Substitution lookup 9 subtable" u0622
Substitution2: "'fina' Terminal Forms in Arabic lookup 4 subtable" Hcircumflex
AlternateSubs2: "'aalt' Access All Alternates in Latin lookup 1 subtable" Hcircumflex u0622
EndChar

StartChar: Hcircumflex
Encoding: 65154 65154 78
Width: 249
Flags: W
LayerCount: 2
Fore
SplineSet
314 546 m 1,0,-1
 119 546 l 2,1,2
 114 545 114 545 73 541 c 0,3,4
 55 539 55 539 48 533 c 0,5,6
 36 523 36 523 21 489 c 1,7,-1
 -51 517 l 1,8,9
 -23 577 -23 577 -3 593 c 0,10,11
 29 617 29 617 95 620 c 0,12,13
 144 622 144 622 254 622 c 2,14,-1
 314 622 l 1,15,-1
 314 546 l 1,0,-1
262 0 m 1,16,17
 183 0 183 0 146 20 c 0,18,19
 96 48 96 48 96 119 c 2,20,-1
 96 488 l 1,21,-1
 174 488 l 1,22,-1
 174 153 l 2,23,24
 174 101 174 101 190 88 c 0,25,26
 205 78 205 78 262 78 c 1,27,-1
 262 0 l 1,16,17
EndSplineSet
Substitution2: "Single Substitution lookup 9 subtable" Hcircumflex
Substitution2: "'aalt' Access All Alternates in Latin lookup 0 subtable" Hcircumflex
EndChar

StartChar: u0623
Encoding: 1571 1571 79
AltUni2: 00fe83.ffffffff.0
Width: 249
Flags: W
LayerCount: 2
Fore
SplineSet
163 0 m 1,0,-1
 86 0 l 1,1,-1
 86 500 l 1,2,-1
 163 500 l 1,3,-1
 163 0 l 1,0,-1
183 603 m 1,4,-1
 74 549 l 1,5,-1
 66 566 l 1,6,-1
 103 587 l 1,7,8
 69 604 69 604 69 634 c 0,9,10
 69 655 69 655 85 671 c 128,-1,11
 101 687 101 687 122 687 c 0,12,13
 131 687 131 687 150 679 c 1,14,-1
 144 663 l 1,15,16
 134 669 134 669 121 669 c 0,17,18
 90 669 90 669 90 632 c 0,19,20
 90 604 90 604 119 604 c 0,21,22
 143 604 143 604 171 622 c 1,23,-1
 183 603 l 1,4,-1
EndSplineSet
Substitution2: "Single Substitution lookup 9 subtable" u0623
Substitution2: "'fina' Terminal Forms in Arabic lookup 4 subtable" uFE84
AlternateSubs2: "'aalt' Access All Alternates in Latin lookup 1 subtable" uFE84 u0623
EndChar

StartChar: uFE84
Encoding: 65156 65156 80
Width: 203
Flags: W
LayerCount: 2
Fore
SplineSet
222 0 m 1,0,1
 122 0 122 0 82 38 c 0,2,3
 55 63 55 63 55 119 c 2,4,-1
 55 488 l 1,5,-1
 132 488 l 1,6,-1
 132 153 l 2,7,8
 132 100 132 100 150 87 c 0,9,10
 163 80 163 80 222 78 c 1,11,-1
 222 0 l 1,0,1
148 600 m 1,12,-1
 43 546 l 1,13,-1
 34 563 l 1,14,-1
 70 584 l 1,15,16
 38 601 38 601 38 631 c 0,17,18
 38 652 38 652 53 668.5 c 128,-1,19
 68 685 68 685 89 685 c 0,20,21
 100 685 100 685 119 675 c 1,22,-1
 111 660 l 1,23,24
 103 666 103 666 89 666 c 0,25,26
 58 666 58 666 58 630 c 0,27,28
 58 601 58 601 87 601 c 0,29,30
 110 601 110 601 141 618 c 1,31,-1
 148 600 l 1,12,-1
EndSplineSet
Substitution2: "Single Substitution lookup 9 subtable" uFE84
Substitution2: "'aalt' Access All Alternates in Latin lookup 0 subtable" uFE84
EndChar

StartChar: u0624
Encoding: 1572 1572 81
AltUni2: 00fe85.ffffffff.0
Width: 387
Flags: W
LayerCount: 2
Fore
SplineSet
196 387 m 1,0,-1
 65 319 l 1,1,-1
 54 341 l 1,2,-1
 99 366 l 1,3,4
 59 387 59 387 59 423 c 0,5,6
 59 450 59 450 76.5 469.5 c 128,-1,7
 94 489 94 489 122 489 c 0,8,9
 132 489 132 489 160 479 c 1,10,-1
 148 459 l 1,11,12
 139 467 139 467 126 467 c 0,13,14
 107 467 107 467 95 454 c 128,-1,15
 83 441 83 441 83 423 c 0,16,17
 83 388 83 388 117 388 c 0,18,19
 142 388 142 388 185 410 c 1,20,-1
 196 387 l 1,0,-1
348 -10 m 2,21,22
 348 -90 348 -90 289 -145 c 0,23,24
 231 -197 231 -197 150 -197 c 2,25,-1
 50 -197 l 1,26,-1
 40 -119 l 1,27,-1
 139 -119 l 2,28,29
 192 -119 192 -119 229 -87 c 0,30,31
 269 -53 269 -53 269 0 c 1,32,33
 174 0 174 0 129 26 c 0,34,35
 68 60 68 60 68 146 c 0,36,37
 68 228 68 228 95 266 c 0,38,39
 127 312 127 312 204 312 c 0,40,41
 298 312 298 312 329 241 c 0,42,43
 348 197 348 197 348 88 c 2,44,-1
 348 -10 l 2,21,22
269 78 m 1,45,-1
 269 158 l 2,46,47
 269 234 269 234 208 234 c 0,48,49
 148 234 148 234 148 154 c 0,50,51
 148 102 148 102 186 86 c 0,52,53
 206 78 206 78 269 78 c 1,45,-1
EndSplineSet
Substitution2: "Single Substitution lookup 9 subtable" u0624
Substitution2: "'fina' Terminal Forms in Arabic lookup 4 subtable" uFE86
AlternateSubs2: "'aalt' Access All Alternates in Latin lookup 1 subtable" uFE86 u0624
EndChar

StartChar: uFE86
Encoding: 65158 65158 82
Width: 387
Flags: W
LayerCount: 2
Fore
SplineSet
209 387 m 1,0,-1
 78 319 l 1,1,-1
 67 341 l 1,2,-1
 111 366 l 1,3,4
 73 387 73 387 73 423 c 0,5,6
 73 451 73 451 90 470 c 128,-1,7
 107 489 107 489 136 489 c 0,8,9
 146 489 146 489 173 479 c 1,10,-1
 163 459 l 1,11,12
 149 467 149 467 142 467 c 0,13,14
 123 467 123 467 110.5 454 c 128,-1,15
 98 441 98 441 98 423 c 0,16,17
 98 387 98 387 131 387 c 0,18,19
 157 387 157 387 200 409 c 1,20,-1
 209 387 l 1,0,-1
398 0 m 1,21,-1
 348 0 l 1,22,23
 348 -87 348 -87 289.5 -142 c 128,-1,24
 231 -197 231 -197 145 -197 c 2,25,-1
 44 -197 l 1,26,-1
 34 -119 l 1,27,-1
 132 -119 l 2,28,29
 187 -119 187 -119 224 -87 c 0,30,31
 264 -53 264 -53 264 0 c 1,32,33
 168 0 168 0 123 25 c 0,34,35
 62 59 62 59 62 146 c 0,36,37
 62 227 62 227 89 266 c 0,38,39
 122 312 122 312 199 312 c 0,40,41
 295 312 295 312 327 236 c 0,42,43
 348 188 348 188 348 78 c 1,44,-1
 398 78 l 1,45,-1
 398 0 l 1,21,-1
267 78 m 1,46,-1
 267 151 l 2,47,48
 267 201 267 201 241 220 c 0,49,50
 222 234 222 234 203 234 c 0,51,52
 143 234 143 234 143 154 c 0,53,54
 143 102 143 102 183 86 c 0,55,56
 203 78 203 78 267 78 c 1,46,-1
EndSplineSet
Substitution2: "Single Substitution lookup 9 subtable" uFE86
Substitution2: "'aalt' Access All Alternates in Latin lookup 0 subtable" uFE86
EndChar

StartChar: u0625
Encoding: 1573 1573 83
AltUni2: 00fe87.ffffffff.0
Width: 249
Flags: W
LayerCount: 2
Fore
SplineSet
163 0 m 1,0,-1
 86 0 l 1,1,-1
 86 500 l 1,2,-1
 163 500 l 1,3,-1
 163 0 l 1,0,-1
194 -149 m 1,4,-1
 88 -203 l 1,5,-1
 79 -186 l 1,6,-1
 115 -165 l 1,7,8
 83 -148 83 -148 83 -117 c 0,9,10
 83 -96 83 -96 97.5 -81 c 128,-1,11
 112 -66 112 -66 134 -66 c 0,12,13
 145 -66 145 -66 164 -73 c 1,14,-1
 156 -90 l 1,15,16
 147 -84 147 -84 133 -84 c 0,17,18
 104 -84 104 -84 104 -119 c 0,19,20
 104 -148 104 -148 132 -148 c 0,21,22
 155 -148 155 -148 185 -130 c 1,23,-1
 194 -149 l 1,4,-1
EndSplineSet
Substitution2: "Single Substitution lookup 9 subtable" u0625
Substitution2: "'fina' Terminal Forms in Arabic lookup 4 subtable" uFE88
AlternateSubs2: "'aalt' Access All Alternates in Latin lookup 1 subtable" uFE88 u0625
EndChar

StartChar: uFE88
Encoding: 65160 65160 84
Width: 203
Flags: W
LayerCount: 2
Fore
SplineSet
222 0 m 1,0,1
 122 0 122 0 82 38 c 0,2,3
 55 63 55 63 55 119 c 2,4,-1
 55 488 l 1,5,-1
 132 488 l 1,6,-1
 132 153 l 2,7,8
 132 100 132 100 150 87 c 0,9,10
 163 80 163 80 222 78 c 1,11,-1
 222 0 l 1,0,1
188 -159 m 1,12,-1
 81 -213 l 1,13,-1
 72 -195 l 1,14,-1
 109 -175 l 1,15,16
 76 -158 76 -158 76 -127 c 0,17,18
 76 -105 76 -105 91 -89.5 c 128,-1,19
 106 -74 106 -74 128 -74 c 0,20,21
 139 -74 139 -74 158 -84 c 1,22,-1
 149 -99 l 1,23,24
 142 -93 142 -93 127 -93 c 0,25,26
 96 -93 96 -93 96 -129 c 0,27,28
 96 -158 96 -158 126 -158 c 0,29,30
 148 -158 148 -158 179 -141 c 1,31,-1
 188 -159 l 1,12,-1
EndSplineSet
Substitution2: "Single Substitution lookup 9 subtable" uFE88
Substitution2: "'aalt' Access All Alternates in Latin lookup 0 subtable" uFE88
EndChar

StartChar: u0626
Encoding: 1574 1574 85
AltUni2: 00fe89.ffffffff.0
Width: 559
Flags: W
LayerCount: 2
Fore
SplineSet
192 338 m 1,0,-1
 61 271 l 1,1,-1
 50 292 l 1,2,-1
 95 316 l 1,3,4
 56 339 56 339 56 373 c 0,5,6
 56 401 56 401 72.5 420.5 c 128,-1,7
 89 440 89 440 118 440 c 0,8,9
 129 440 129 440 155 431 c 1,10,-1
 146 410 l 1,11,12
 132 417 132 417 122 417 c 0,13,14
 104 417 104 417 91.5 404.5 c 128,-1,15
 79 392 79 392 79 373 c 0,16,17
 79 339 79 339 111 339 c 0,18,19
 140 339 140 339 183 360 c 1,20,-1
 192 338 l 1,0,-1
531 4 m 0,21,22
 531 -86 531 -86 480 -141 c 0,23,24
 427 -197 427 -197 340 -197 c 2,25,-1
 220 -197 l 2,26,27
 138 -197 138 -197 85 -137 c 0,28,29
 34 -79 34 -79 34 4 c 2,30,-1
 34 165 l 1,31,-1
 107 165 l 1,32,-1
 107 -5 l 2,33,34
 107 -58 107 -58 146 -90 c 0,35,36
 182 -121 182 -121 234 -121 c 2,37,-1
 335 -121 l 2,38,39
 378 -121 378 -121 416 -90 c 0,40,41
 456 -59 456 -59 456 -17 c 0,42,43
 456 21 456 21 429 29 c 0,44,45
 405 37 405 37 275 38 c 1,46,-1
 275 171 l 2,47,48
 275 230 275 230 314.5 271 c 128,-1,49
 354 312 354 312 413 312 c 2,50,-1
 507 312 l 1,51,-1
 510 239 l 1,52,-1
 417 239 l 2,53,54
 370 239 370 239 356 194 c 0,55,56
 349 171 349 171 349 111 c 1,57,58
 463 109 463 109 490 93 c 0,59,60
 531 70 531 70 531 4 c 0,21,22
EndSplineSet
Substitution2: "Single Substitution lookup 9 subtable" u0626
Substitution2: "'fina' Terminal Forms in Arabic lookup 4 subtable" uFE8A
Substitution2: "'medi' Medial Forms in Arabic lookup 3 subtable" uFE8C
Substitution2: "'init' Initial Forms in Arabic lookup 2 subtable" uFE8B
AlternateSubs2: "'aalt' Access All Alternates in Latin lookup 1 subtable" uFE8B uFE8C uFE8A u0626
EndChar

StartChar: uFE8A
Encoding: 65162 65162 86
Width: 559
Flags: W
LayerCount: 2
Fore
SplineSet
195 339 m 1,0,-1
 63 272 l 1,1,-1
 52 294 l 1,2,-1
 98 319 l 1,3,4
 58 340 58 340 58 375 c 0,5,6
 58 402 58 402 75.5 422 c 128,-1,7
 93 442 93 442 121 442 c 0,8,9
 137 442 137 442 158 433 c 1,10,-1
 148 412 l 1,11,12
 137 419 137 419 125 419 c 0,13,14
 106 419 106 419 94 406.5 c 128,-1,15
 82 394 82 394 82 375 c 0,16,17
 82 340 82 340 116 340 c 0,18,19
 141 340 141 340 184 362 c 1,20,-1
 195 339 l 1,0,-1
572 0 m 1,21,-1
 499 0 l 1,22,23
 503 -13 503 -13 503 -38 c 0,24,25
 503 -107 503 -107 452 -152 c 0,26,27
 402 -197 402 -197 332 -197 c 2,28,-1
 212 -197 l 2,29,30
 118 -197 118 -197 66 -129 c 0,31,32
 19 -69 19 -69 19 28 c 2,33,-1
 19 167 l 1,34,-1
 97 167 l 1,35,-1
 97 -3 l 2,36,37
 97 -59 97 -59 136 -90 c 0,38,39
 171 -119 171 -119 229 -119 c 2,40,-1
 329 -119 l 2,41,42
 370 -119 370 -119 397 -97 c 0,43,44
 427 -72 427 -72 427 -31 c 0,45,46
 427 -12 427 -12 403 -8 c 0,47,48
 378 -2 378 -2 264 0 c 1,49,-1
 258 78 l 1,50,-1
 572 78 l 1,51,-1
 572 0 l 1,21,-1
EndSplineSet
Substitution2: "Single Substitution lookup 9 subtable" uFE8A
Substitution2: "'aalt' Access All Alternates in Latin lookup 0 subtable" uFE8A
EndChar

StartChar: uFE8B
Encoding: 65163 65163 87
Width: 264
Flags: W
LayerCount: 2
Fore
SplineSet
193 335 m 1,0,-1
 62 269 l 1,1,-1
 51 290 l 1,2,-1
 96 314 l 1,3,4
 56 337 56 337 56 372 c 0,5,6
 56 399 56 399 74 418.5 c 128,-1,7
 92 438 92 438 119 438 c 0,8,9
 129 438 129 438 156 429 c 1,10,-1
 146 407 l 1,11,12
 135 417 135 417 123 417 c 0,13,14
 80 417 80 417 80 372 c 0,15,16
 80 338 80 338 114 338 c 0,17,18
 140 338 140 338 183 359 c 1,19,-1
 193 335 l 1,0,-1
226 127 m 2,20,21
 226 76 226 76 194 39 c 0,22,23
 162 0 162 0 111 0 c 2,24,-1
 -16 0 l 1,25,-1
 -16 78 l 1,26,27
 107 78 107 78 121 83 c 0,28,29
 147 92 147 92 147 152 c 0,30,31
 147 168 147 168 146.5 198.5 c 128,-1,32
 146 229 146 229 146 245 c 1,33,-1
 226 245 l 1,34,-1
 226 127 l 2,20,21
EndSplineSet
Substitution2: "Single Substitution lookup 9 subtable" uFE8B
Substitution2: "'aalt' Access All Alternates in Latin lookup 0 subtable" uFE8B
EndChar

StartChar: uFE8C
Encoding: 65164 65164 88
Width: 305
Flags: W
LayerCount: 2
Fore
SplineSet
190 339 m 1,0,-1
 60 271 l 1,1,-1
 49 293 l 1,2,-1
 93 318 l 1,3,4
 54 339 54 339 54 374 c 0,5,6
 54 401 54 401 71.5 421.5 c 128,-1,7
 89 442 89 442 117 442 c 0,8,9
 128 442 128 442 154 432 c 1,10,-1
 145 411 l 1,11,12
 132 418 132 418 122 418 c 0,13,14
 104 418 104 418 91 405.5 c 128,-1,15
 78 393 78 393 78 374 c 0,16,17
 78 339 78 339 111 339 c 0,18,19
 137 339 137 339 181 361 c 1,20,-1
 190 339 l 1,0,-1
315 0 m 1,21,-1
 303 0 l 2,22,23
 263 0 263 0 250 4 c 0,24,25
 231 9 231 9 206 29 c 1,26,27
 167 0 167 0 132 0 c 2,28,-1
 -10 0 l 1,29,-1
 -10 78 l 1,30,31
 4 78 4 78 45 77 c 2,32,-1
 85 77 l 2,33,34
 135 76 135 76 150 92 c 128,-1,35
 165 108 165 108 165 159 c 2,36,-1
 165 238 l 2,37,38
 165 245 165 245 164 247 c 1,39,-1
 164 245 l 1,40,-1
 244 245 l 1,41,-1
 244 138 l 2,42,43
 244 99 244 99 262 88 c 0,44,45
 273 80 273 80 315 78 c 1,46,-1
 315 0 l 1,21,-1
EndSplineSet
Substitution2: "Single Substitution lookup 9 subtable" uFE8C
Substitution2: "'aalt' Access All Alternates in Latin lookup 0 subtable" uFE8C
EndChar

StartChar: u0627
Encoding: 1575 1575 89
AltUni2: 00fe8d.ffffffff.0
Width: 249
Flags: W
LayerCount: 2
Fore
SplineSet
163 0 m 1,0,-1
 86 0 l 1,1,-1
 86 500 l 1,2,-1
 163 500 l 1,3,-1
 163 0 l 1,0,-1
EndSplineSet
Substitution2: "Single Substitution lookup 9 subtable" u0627
Substitution2: "'fina' Terminal Forms in Arabic lookup 4 subtable" uFE8E
AlternateSubs2: "'aalt' Access All Alternates in Latin lookup 1 subtable" uFE8E u0627
EndChar

StartChar: uFE8E
Encoding: 65166 65166 90
Width: 203
Flags: W
LayerCount: 2
Fore
SplineSet
222 0 m 1,0,1
 122 0 122 0 82 38 c 0,2,3
 55 63 55 63 55 119 c 2,4,-1
 55 488 l 1,5,-1
 132 488 l 1,6,-1
 132 153 l 2,7,8
 132 100 132 100 150 87 c 0,9,10
 163 80 163 80 222 78 c 1,11,-1
 222 0 l 1,0,1
EndSplineSet
Substitution2: "Single Substitution lookup 9 subtable" uFE8E
Substitution2: "'aalt' Access All Alternates in Latin lookup 0 subtable" uFE8E
EndChar

StartChar: u0628
Encoding: 1576 1576 91
AltUni2: 00fe8f.ffffffff.0
Width: 696
Flags: W
LayerCount: 2
Fore
SplineSet
668 127 m 2,0,1
 668 77 668 77 637 40 c 0,2,3
 604 0 604 0 555 0 c 2,4,-1
 144 0 l 2,5,6
 93 0 93 0 62 39 c 0,7,8
 31 75 31 75 31 127 c 2,9,-1
 31 245 l 1,10,-1
 109 245 l 1,11,-1
 109 138 l 2,12,13
 109 104 109 104 121.5 91 c 128,-1,14
 134 78 134 78 167 78 c 2,15,-1
 531 78 l 2,16,17
 564 78 564 78 577 91 c 128,-1,18
 590 104 590 104 590 138 c 2,19,-1
 590 245 l 1,20,-1
 668 245 l 1,21,-1
 668 127 l 2,0,1
425 -142 m 0,22,23
 425 -164 425 -164 408.5 -180 c 128,-1,24
 392 -196 392 -196 370 -196 c 0,25,26
 312 -196 312 -196 312 -142 c 0,27,28
 312 -96 312 -96 367 -96 c 0,29,30
 425 -96 425 -96 425 -142 c 0,22,23
EndSplineSet
Substitution2: "Single Substitution lookup 9 subtable" u0628
Substitution2: "'fina' Terminal Forms in Arabic lookup 4 subtable" uFE90
Substitution2: "'medi' Medial Forms in Arabic lookup 3 subtable" uFE92
Substitution2: "'init' Initial Forms in Arabic lookup 2 subtable" uFE91
AlternateSubs2: "'aalt' Access All Alternates in Latin lookup 1 subtable" uFE91 uFE92 uFE90 u0628
EndChar

StartChar: uFE90
Encoding: 65168 65168 92
Width: 743
Flags: W
LayerCount: 2
Fore
SplineSet
758 0 m 1,0,1
 665 0 665 0 633 29 c 1,2,3
 593 0 593 0 558 0 c 2,4,-1
 146 0 l 2,5,6
 98 0 98 0 66 40 c 0,7,8
 35 77 35 77 35 127 c 2,9,-1
 35 245 l 1,10,-1
 112 245 l 1,11,-1
 112 138 l 2,12,13
 112 104 112 104 126 91 c 128,-1,14
 140 78 140 78 171 78 c 2,15,-1
 534 78 l 2,16,17
 567 78 567 78 579.5 91 c 128,-1,18
 592 104 592 104 592 138 c 2,19,-1
 592 245 l 1,20,-1
 671 245 l 1,21,-1
 671 138 l 2,22,23
 671 78 671 78 758 78 c 1,24,-1
 758 0 l 1,0,1
407 -145 m 0,25,26
 407 -168 407 -168 391 -183.5 c 128,-1,27
 375 -199 375 -199 353 -199 c 0,28,29
 294 -199 294 -199 294 -145 c 0,30,31
 294 -98 294 -98 350 -98 c 0,32,33
 407 -98 407 -98 407 -145 c 0,25,26
EndSplineSet
Substitution2: "Single Substitution lookup 9 subtable" uFE90
Substitution2: "'aalt' Access All Alternates in Latin lookup 0 subtable" uFE90
EndChar

StartChar: uFE91
Encoding: 65169 65169 93
Width: 254
Flags: W
LayerCount: 2
Fore
SplineSet
226 127 m 2,0,1
 226 76 226 76 194 39 c 0,2,3
 162 0 162 0 111 0 c 2,4,-1
 -16 0 l 1,5,-1
 -16 78 l 1,6,7
 107 78 107 78 121 83 c 0,8,9
 147 92 147 92 147 152 c 0,10,11
 147 168 147 168 146.5 198.5 c 128,-1,12
 146 229 146 229 146 245 c 1,13,-1
 226 245 l 1,14,-1
 226 127 l 2,0,1
133 -146 m 0,15,16
 133 -169 133 -169 118 -184.5 c 128,-1,17
 103 -200 103 -200 79 -200 c 0,18,19
 21 -200 21 -200 21 -146 c 0,20,21
 21 -99 21 -99 77 -99 c 256,22,23
 133 -99 133 -99 133 -146 c 0,15,16
EndSplineSet
Substitution2: "Single Substitution lookup 9 subtable" uFE91
Substitution2: "'aalt' Access All Alternates in Latin lookup 0 subtable" uFE91
EndChar

StartChar: uFE92
Encoding: 65170 65170 94
Width: 305
Flags: W
LayerCount: 2
Fore
SplineSet
320 0 m 1,0,-1
 296 0 l 2,1,2
 229 0 229 0 195 29 c 1,3,4
 156 0 156 0 121 0 c 2,5,-1
 -9 0 l 1,6,-1
 -9 78 l 1,7,8
 112 78 112 78 129 84 c 0,9,10
 154 92 154 92 154 153 c 0,11,12
 154 169 154 169 153.5 199 c 128,-1,13
 153 229 153 229 153 245 c 1,14,-1
 233 245 l 1,15,-1
 233 138 l 2,16,17
 233 100 233 100 260 87 c 0,18,19
 275 80 275 80 320 78 c 1,20,-1
 320 0 l 1,0,-1
136 -142 m 0,21,22
 136 -164 136 -164 120 -179.5 c 128,-1,23
 104 -195 104 -195 82 -195 c 0,24,25
 23 -195 23 -195 23 -142 c 0,26,27
 23 -95 23 -95 79 -95 c 0,28,29
 136 -95 136 -95 136 -142 c 0,21,22
EndSplineSet
Substitution2: "Single Substitution lookup 9 subtable" uFE92
Substitution2: "'aalt' Access All Alternates in Latin lookup 0 subtable" uFE92
EndChar

StartChar: u067E
Encoding: 1662 1662 95
AltUni2: 00fb56.ffffffff.0
Width: 696
Flags: W
LayerCount: 2
Fore
SplineSet
668 127 m 2,0,1
 668 77 668 77 637 40 c 0,2,3
 604 0 604 0 555 0 c 2,4,-1
 144 0 l 2,5,6
 93 0 93 0 62 39 c 0,7,8
 31 75 31 75 31 127 c 2,9,-1
 31 245 l 1,10,-1
 109 245 l 1,11,-1
 109 138 l 2,12,13
 109 104 109 104 121.5 91 c 128,-1,14
 134 78 134 78 167 78 c 2,15,-1
 531 78 l 2,16,17
 564 78 564 78 577 91 c 128,-1,18
 590 104 590 104 590 138 c 2,19,-1
 590 245 l 1,20,-1
 668 245 l 1,21,-1
 668 127 l 2,0,1
490 -148 m 0,22,23
 490 -189 490 -189 440 -189 c 0,24,25
 387 -189 387 -189 387 -148 c 0,26,27
 387 -129 387 -129 401.5 -115.5 c 128,-1,28
 416 -102 416 -102 436 -102 c 0,29,30
 458 -102 458 -102 474 -112 c 0,31,32
 490 -127 490 -127 490 -148 c 0,22,23
341 -148 m 0,33,34
 341 -189 341 -189 290 -189 c 0,35,36
 236 -189 236 -189 236 -148 c 0,37,38
 236 -129 236 -129 251 -115.5 c 128,-1,39
 266 -102 266 -102 286 -102 c 0,40,41
 308 -102 308 -102 324 -112 c 0,42,43
 341 -127 341 -127 341 -148 c 0,33,34
412 -260 m 0,44,45
 412 -302 412 -302 362 -302 c 0,46,47
 308 -302 308 -302 308 -260 c 0,48,49
 308 -212 308 -212 357 -212 c 0,50,51
 380 -212 380 -212 396 -224 c 0,52,53
 412 -237 412 -237 412 -260 c 0,44,45
EndSplineSet
Substitution2: "Single Substitution lookup 9 subtable" u067E
Substitution2: "'fina' Terminal Forms in Arabic lookup 4 subtable" uFB57
Substitution2: "'medi' Medial Forms in Arabic lookup 3 subtable" uFB59
Substitution2: "'init' Initial Forms in Arabic lookup 2 subtable" uFB58
AlternateSubs2: "'aalt' Access All Alternates in Latin lookup 1 subtable" uFB58 uFB59 uFB57 u067E
EndChar

StartChar: uFB57
Encoding: 64343 64343 96
Width: 743
Flags: W
LayerCount: 2
Fore
SplineSet
758 0 m 1,0,1
 665 0 665 0 633 29 c 1,2,3
 593 0 593 0 558 0 c 2,4,-1
 146 0 l 2,5,6
 98 0 98 0 66 40 c 0,7,8
 35 77 35 77 35 127 c 2,9,-1
 35 245 l 1,10,-1
 112 245 l 1,11,-1
 112 138 l 2,12,13
 112 104 112 104 126 91 c 128,-1,14
 140 78 140 78 171 78 c 2,15,-1
 534 78 l 2,16,17
 567 78 567 78 579.5 91 c 128,-1,18
 592 104 592 104 592 138 c 2,19,-1
 592 245 l 1,20,-1
 671 245 l 1,21,-1
 671 138 l 2,22,23
 671 78 671 78 758 78 c 1,24,-1
 758 0 l 1,0,1
494 -136 m 0,25,26
 494 -177 494 -177 440 -177 c 0,27,28
 390 -177 390 -177 390 -136 c 0,29,30
 390 -115 390 -115 403.5 -101.5 c 128,-1,31
 417 -88 417 -88 437 -88 c 0,32,33
 494 -88 494 -88 494 -136 c 0,25,26
344 -136 m 0,34,35
 344 -177 344 -177 291 -177 c 0,36,37
 241 -177 241 -177 241 -136 c 0,38,39
 241 -115 241 -115 254.5 -101.5 c 128,-1,40
 268 -88 268 -88 288 -88 c 0,41,42
 344 -88 344 -88 344 -136 c 0,34,35
416 -246 m 0,43,44
 416 -288 416 -288 366 -288 c 0,45,46
 312 -288 312 -288 312 -246 c 0,47,48
 312 -226 312 -226 326 -212.5 c 128,-1,49
 340 -199 340 -199 360 -199 c 0,50,51
 383 -199 383 -199 398 -210 c 0,52,53
 416 -224 416 -224 416 -246 c 0,43,44
EndSplineSet
Substitution2: "Single Substitution lookup 9 subtable" uFB57
Substitution2: "'aalt' Access All Alternates in Latin lookup 0 subtable" uFB57
EndChar

StartChar: uFB58
Encoding: 64344 64344 97
Width: 305
Flags: W
LayerCount: 2
Fore
SplineSet
269 127 m 2,0,1
 269 76 269 76 240 39 c 0,2,3
 208 0 208 0 158 0 c 2,4,-1
 -10 0 l 1,5,-1
 -10 78 l 1,6,-1
 134 78 l 2,7,8
 166 78 166 78 178 91 c 128,-1,9
 190 104 190 104 190 138 c 2,10,-1
 190 245 l 1,11,-1
 269 245 l 1,12,-1
 269 127 l 2,0,1
260 -136 m 0,13,14
 260 -178 260 -178 209 -178 c 0,15,16
 155 -178 155 -178 155 -136 c 0,17,18
 155 -115 155 -115 169.5 -101.5 c 128,-1,19
 184 -88 184 -88 204 -88 c 0,20,21
 260 -88 260 -88 260 -136 c 0,13,14
109 -136 m 0,22,23
 109 -178 109 -178 60 -178 c 0,24,25
 6 -178 6 -178 6 -136 c 0,26,27
 6 -115 6 -115 19.5 -101.5 c 128,-1,28
 33 -88 33 -88 55 -88 c 0,29,30
 109 -88 109 -88 109 -136 c 0,22,23
183 -246 m 0,31,32
 183 -288 183 -288 131 -288 c 0,33,34
 77 -288 77 -288 77 -246 c 0,35,36
 77 -199 77 -199 126 -199 c 0,37,38
 148 -199 148 -199 164 -210 c 0,39,40
 183 -224 183 -224 183 -246 c 0,31,32
EndSplineSet
Substitution2: "Single Substitution lookup 9 subtable" uFB58
Substitution2: "'aalt' Access All Alternates in Latin lookup 0 subtable" uFB58
EndChar

StartChar: uFB59
Encoding: 64345 64345 98
Width: 320
Flags: W
LayerCount: 2
Fore
SplineSet
338 0 m 1,0,1
 289 0 289 0 266 4 c 1,2,3
 246 12 246 12 226 29 c 1,4,5
 188 0 188 0 150 0 c 2,6,-1
 -17 0 l 1,7,-1
 -17 78 l 1,8,-1
 128 78 l 2,9,10
 161 78 161 78 173.5 91 c 128,-1,11
 186 104 186 104 186 138 c 2,12,-1
 186 245 l 1,13,-1
 264 245 l 1,14,-1
 264 138 l 2,15,16
 264 100 264 100 281 87 c 0,17,18
 296 78 296 78 338 78 c 1,19,-1
 338 0 l 1,0,1
247 -136 m 0,20,21
 247 -178 247 -178 196 -178 c 0,22,23
 143 -178 143 -178 143 -136 c 0,24,25
 143 -115 143 -115 156.5 -101.5 c 128,-1,26
 170 -88 170 -88 190 -88 c 0,27,28
 247 -88 247 -88 247 -136 c 0,20,21
97 -136 m 0,29,30
 97 -178 97 -178 48 -178 c 0,31,32
 -9 -178 -9 -178 -9 -136 c 0,33,34
 -9 -115 -9 -115 6 -101.5 c 128,-1,35
 21 -88 21 -88 42 -88 c 0,36,37
 97 -88 97 -88 97 -136 c 0,29,30
169 -246 m 0,38,39
 169 -288 169 -288 119 -288 c 0,40,41
 64 -288 64 -288 64 -246 c 0,42,43
 64 -199 64 -199 112 -199 c 0,44,45
 135 -199 135 -199 150 -210 c 0,46,47
 169 -224 169 -224 169 -246 c 0,38,39
EndSplineSet
Substitution2: "Single Substitution lookup 9 subtable" uFB59
Substitution2: "'aalt' Access All Alternates in Latin lookup 0 subtable" uFB59
EndChar

StartChar: u062A
Encoding: 1578 1578 99
AltUni2: 00fe95.ffffffff.0
Width: 696
Flags: W
LayerCount: 2
Fore
SplineSet
462 375 m 0,0,1
 462 355 462 355 447.5 341 c 128,-1,2
 433 327 433 327 412 327 c 0,3,4
 358 327 358 327 358 375 c 0,5,6
 358 417 358 417 407 417 c 0,7,8
 462 417 462 417 462 375 c 0,0,1
312 375 m 0,9,10
 312 355 312 355 297.5 341 c 128,-1,11
 283 327 283 327 263 327 c 0,12,13
 208 327 208 327 208 375 c 0,14,15
 208 417 208 417 258 417 c 0,16,17
 312 417 312 417 312 375 c 0,9,10
668 127 m 2,18,19
 668 77 668 77 637 40 c 0,20,21
 604 0 604 0 555 0 c 2,22,-1
 144 0 l 2,23,24
 93 0 93 0 62 39 c 0,25,26
 31 75 31 75 31 127 c 2,27,-1
 31 245 l 1,28,-1
 109 245 l 1,29,-1
 109 138 l 2,30,31
 109 104 109 104 121.5 91 c 128,-1,32
 134 78 134 78 167 78 c 2,33,-1
 531 78 l 2,34,35
 564 78 564 78 577 91 c 128,-1,36
 590 104 590 104 590 138 c 2,37,-1
 590 245 l 1,38,-1
 668 245 l 1,39,-1
 668 127 l 2,18,19
EndSplineSet
Substitution2: "'fina' Terminal Forms in Arabic lookup 4 subtable" uFE96
Substitution2: "'medi' Medial Forms in Arabic lookup 3 subtable" uFE98
Substitution2: "'init' Initial Forms in Arabic lookup 2 subtable" uFE97
AlternateSubs2: "'aalt' Access All Alternates in Latin lookup 1 subtable" uFE97 uFE98 uFE96
EndChar

StartChar: uFE96
Encoding: 65174 65174 100
Width: 743
Flags: W
LayerCount: 2
Fore
SplineSet
482 375 m 0,0,1
 482 355 482 355 468 342 c 128,-1,2
 454 329 454 329 434 329 c 0,3,4
 378 329 378 329 378 375 c 0,5,6
 378 418 378 418 429 418 c 0,7,8
 482 418 482 418 482 375 c 0,0,1
332 375 m 0,9,10
 332 355 332 355 317.5 342 c 128,-1,11
 303 329 303 329 283 329 c 0,12,13
 228 329 228 329 228 375 c 0,14,15
 228 418 228 418 278 418 c 0,16,17
 332 418 332 418 332 375 c 0,9,10
758 0 m 1,18,19
 665 0 665 0 633 29 c 1,20,21
 593 0 593 0 558 0 c 2,22,-1
 146 0 l 2,23,24
 98 0 98 0 66 40 c 0,25,26
 35 77 35 77 35 127 c 2,27,-1
 35 245 l 1,28,-1
 112 245 l 1,29,-1
 112 138 l 2,30,31
 112 104 112 104 126 91 c 128,-1,32
 140 78 140 78 171 78 c 2,33,-1
 534 78 l 2,34,35
 567 78 567 78 579.5 91 c 128,-1,36
 592 104 592 104 592 138 c 2,37,-1
 592 245 l 1,38,-1
 671 245 l 1,39,-1
 671 138 l 2,40,41
 671 78 671 78 758 78 c 1,42,-1
 758 0 l 1,18,19
EndSplineSet
EndChar

StartChar: uFE97
Encoding: 65175 65175 101
Width: 295
Flags: W
LayerCount: 2
Fore
SplineSet
308 371 m 0,0,1
 308 352 308 352 293 338 c 128,-1,2
 278 324 278 324 259 324 c 0,3,4
 235 324 235 324 221 336 c 0,5,6
 203 350 203 350 203 371 c 0,7,8
 203 414 203 414 253 414 c 0,9,10
 308 414 308 414 308 371 c 0,0,1
158 371 m 0,11,12
 158 352 158 352 143.5 338 c 128,-1,13
 129 324 129 324 108 324 c 0,14,15
 86 324 86 324 69 336 c 0,16,17
 53 350 53 350 53 371 c 0,18,19
 53 414 53 414 104 414 c 0,20,21
 158 414 158 414 158 371 c 0,11,12
263 127 m 2,22,23
 263 76 263 76 232 39 c 0,24,25
 201 0 201 0 150 0 c 2,26,-1
 -16 0 l 1,27,-1
 -16 78 l 1,28,-1
 127 78 l 2,29,30
 160 78 160 78 172.5 91 c 128,-1,31
 185 104 185 104 185 138 c 2,32,-1
 185 245 l 1,33,-1
 263 245 l 1,34,-1
 263 127 l 2,22,23
EndSplineSet
EndChar

StartChar: uFE98
Encoding: 65176 65176 102
Width: 320
Flags: W
LayerCount: 2
Fore
SplineSet
314 374 m 0,0,1
 314 354 314 354 300 340.5 c 128,-1,2
 286 327 286 327 266 327 c 0,3,4
 210 327 210 327 210 374 c 0,5,6
 210 417 210 417 261 417 c 0,7,8
 314 417 314 417 314 374 c 0,0,1
165 374 m 0,9,10
 165 354 165 354 150.5 340.5 c 128,-1,11
 136 327 136 327 116 327 c 0,12,13
 62 327 62 327 62 374 c 0,14,15
 62 417 62 417 110 417 c 0,16,17
 165 417 165 417 165 374 c 0,9,10
338 0 m 1,18,19
 289 0 289 0 266 4 c 1,20,21
 246 12 246 12 226 29 c 1,22,23
 188 0 188 0 150 0 c 2,24,-1
 -17 0 l 1,25,-1
 -17 78 l 1,26,-1
 128 78 l 2,27,28
 161 78 161 78 173.5 91 c 128,-1,29
 186 104 186 104 186 138 c 2,30,-1
 186 245 l 1,31,-1
 264 245 l 1,32,-1
 264 138 l 2,33,34
 264 100 264 100 281 87 c 0,35,36
 296 78 296 78 338 78 c 1,37,-1
 338 0 l 1,18,19
EndSplineSet
EndChar

StartChar: u062B
Encoding: 1579 1579 103
AltUni2: 00fe99.ffffffff.0
Width: 696
Flags: W
LayerCount: 2
Fore
SplineSet
391 457 m 0,0,1
 391 437 391 437 375.5 423.5 c 128,-1,2
 360 410 360 410 340 410 c 0,3,4
 319 410 319 410 303 423 c 0,5,6
 286 437 286 437 286 457 c 0,7,8
 286 500 286 500 336 500 c 0,9,10
 391 500 391 500 391 457 c 0,0,1
467 348 m 0,11,12
 467 327 467 327 452 313.5 c 128,-1,13
 437 300 437 300 417 300 c 0,14,15
 396 300 396 300 379 312 c 0,16,17
 362 326 362 326 362 348 c 0,18,19
 362 390 362 390 412 390 c 0,20,21
 467 390 467 390 467 348 c 0,11,12
316 348 m 0,22,23
 316 327 316 327 301.5 313.5 c 128,-1,24
 287 300 287 300 268 300 c 0,25,26
 245 300 245 300 229 312 c 0,27,28
 213 326 213 326 213 348 c 0,29,30
 213 390 213 390 262 390 c 0,31,32
 316 390 316 390 316 348 c 0,22,23
668 127 m 2,33,34
 668 77 668 77 637 40 c 0,35,36
 604 0 604 0 555 0 c 2,37,-1
 144 0 l 2,38,39
 93 0 93 0 62 39 c 0,40,41
 31 75 31 75 31 127 c 2,42,-1
 31 245 l 1,43,-1
 109 245 l 1,44,-1
 109 138 l 2,45,46
 109 104 109 104 121.5 91 c 128,-1,47
 134 78 134 78 167 78 c 2,48,-1
 531 78 l 2,49,50
 564 78 564 78 577 91 c 128,-1,51
 590 104 590 104 590 138 c 2,52,-1
 590 245 l 1,53,-1
 668 245 l 1,54,-1
 668 127 l 2,33,34
EndSplineSet
Substitution2: "'fina' Terminal Forms in Arabic lookup 4 subtable" uFE9A
Substitution2: "'medi' Medial Forms in Arabic lookup 3 subtable" uFE9C
Substitution2: "'init' Initial Forms in Arabic lookup 2 subtable" uFE9B
AlternateSubs2: "'aalt' Access All Alternates in Latin lookup 1 subtable" uFE9B uFE9C uFE9A
EndChar

StartChar: uFE9A
Encoding: 65178 65178 104
Width: 743
Flags: W
LayerCount: 2
Fore
SplineSet
403 457 m 0,0,1
 403 437 403 437 388.5 423.5 c 128,-1,2
 374 410 374 410 354 410 c 0,3,4
 299 410 299 410 299 457 c 0,5,6
 299 500 299 500 349 500 c 0,7,8
 403 500 403 500 403 457 c 0,0,1
479 348 m 0,9,10
 479 327 479 327 464 313.5 c 128,-1,11
 449 300 449 300 429 300 c 0,12,13
 407 300 407 300 392 312 c 0,14,15
 375 326 375 326 375 348 c 0,16,17
 375 390 375 390 426 390 c 0,18,19
 479 390 479 390 479 348 c 0,9,10
329 348 m 0,20,21
 329 327 329 327 315 313.5 c 128,-1,22
 301 300 301 300 280 300 c 256,23,24
 259 300 259 300 243 312 c 0,25,26
 226 326 226 326 226 348 c 0,27,28
 226 390 226 390 275 390 c 0,29,30
 329 390 329 390 329 348 c 0,20,21
758 0 m 1,31,32
 665 0 665 0 633 29 c 1,33,34
 593 0 593 0 558 0 c 2,35,-1
 146 0 l 2,36,37
 98 0 98 0 66 40 c 0,38,39
 35 77 35 77 35 127 c 2,40,-1
 35 245 l 1,41,-1
 112 245 l 1,42,-1
 112 138 l 2,43,44
 112 104 112 104 126 91 c 128,-1,45
 140 78 140 78 171 78 c 2,46,-1
 534 78 l 2,47,48
 567 78 567 78 579.5 91 c 128,-1,49
 592 104 592 104 592 138 c 2,50,-1
 592 245 l 1,51,-1
 671 245 l 1,52,-1
 671 138 l 2,53,54
 671 78 671 78 758 78 c 1,55,-1
 758 0 l 1,31,32
EndSplineSet
EndChar

StartChar: uFE9B
Encoding: 65179 65179 105
Width: 295
Flags: W
LayerCount: 2
Fore
SplineSet
229 457 m 0,0,1
 229 437 229 437 214.5 423 c 128,-1,2
 200 409 200 409 180 409 c 0,3,4
 156 409 156 409 142 422 c 0,5,6
 123 436 123 436 123 457 c 0,7,8
 123 500 123 500 174 500 c 0,9,10
 229 500 229 500 229 457 c 0,0,1
306 348 m 0,11,12
 306 327 306 327 290.5 313 c 128,-1,13
 275 299 275 299 256 299 c 0,14,15
 233 299 233 299 218 312 c 0,16,17
 200 326 200 326 200 348 c 0,18,19
 200 390 200 390 250 390 c 0,20,21
 306 390 306 390 306 348 c 0,11,12
155 348 m 0,22,23
 155 327 155 327 140.5 313 c 128,-1,24
 126 299 126 299 105 299 c 256,25,26
 84 299 84 299 67 312 c 0,27,28
 50 326 50 326 50 348 c 0,29,30
 50 390 50 390 102 390 c 0,31,32
 155 390 155 390 155 348 c 0,22,23
263 127 m 2,33,34
 263 76 263 76 232 39 c 0,35,36
 201 0 201 0 150 0 c 2,37,-1
 -16 0 l 1,38,-1
 -16 78 l 1,39,-1
 127 78 l 2,40,41
 160 78 160 78 172.5 91 c 128,-1,42
 185 104 185 104 185 138 c 2,43,-1
 185 245 l 1,44,-1
 263 245 l 1,45,-1
 263 127 l 2,33,34
EndSplineSet
EndChar

StartChar: uFE9C
Encoding: 65180 65180 106
Width: 320
Flags: W
LayerCount: 2
Fore
SplineSet
260 457 m 0,0,1
 260 437 260 437 244.5 423 c 128,-1,2
 229 409 229 409 209 409 c 0,3,4
 187 409 187 409 171 422 c 0,5,6
 153 436 153 436 153 457 c 0,7,8
 153 500 153 500 204 500 c 0,9,10
 260 500 260 500 260 457 c 0,0,1
336 348 m 0,11,12
 336 327 336 327 321 313 c 128,-1,13
 306 299 306 299 286 299 c 0,14,15
 264 299 264 299 248 312 c 0,16,17
 229 326 229 326 229 348 c 0,18,19
 229 390 229 390 281 390 c 0,20,21
 336 390 336 390 336 348 c 0,11,12
186 348 m 0,22,23
 186 327 186 327 171 313 c 128,-1,24
 156 299 156 299 136 299 c 0,25,26
 113 299 113 299 98 312 c 0,27,28
 81 326 81 326 81 348 c 0,29,30
 81 390 81 390 131 390 c 0,31,32
 186 390 186 390 186 348 c 0,22,23
338 0 m 1,33,34
 289 0 289 0 266 4 c 1,35,36
 246 12 246 12 226 29 c 1,37,38
 188 0 188 0 150 0 c 2,39,-1
 -17 0 l 1,40,-1
 -17 78 l 1,41,-1
 128 78 l 2,42,43
 161 78 161 78 173.5 91 c 128,-1,44
 186 104 186 104 186 138 c 2,45,-1
 186 245 l 1,46,-1
 264 245 l 1,47,-1
 264 138 l 2,48,49
 264 100 264 100 281 87 c 0,50,51
 296 78 296 78 338 78 c 1,52,-1
 338 0 l 1,33,34
EndSplineSet
EndChar

StartChar: u062C
Encoding: 1580 1580 107
AltUni2: 00fe9d.ffffffff.0
Width: 479
Flags: W
LayerCount: 2
Fore
SplineSet
489 -377 m 1,0,-1
 275 -377 l 2,1,2
 166 -377 166 -377 93 -309 c 0,3,4
 19 -241 19 -241 19 -131 c 0,5,6
 19 -4 19 -4 132 60 c 2,7,-1
 371 190 l 1,8,9
 354 224 354 224 319 229 c 0,10,11
 287 235 287 235 111 235 c 1,12,-1
 103 312 l 1,13,-1
 291 312 l 2,14,15
 454 312 454 312 455 150 c 1,16,-1
 197 8 l 2,17,18
 92 -51 92 -51 92 -138 c 0,19,20
 92 -201 92 -201 141.5 -250.5 c 128,-1,21
 191 -300 191 -300 255 -300 c 2,22,-1
 482 -300 l 1,23,-1
 489 -377 l 1,0,-1
354 -146 m 0,24,25
 354 -169 354 -169 338 -185 c 128,-1,26
 322 -201 322 -201 300 -201 c 0,27,28
 274 -201 274 -201 259 -187 c 0,29,30
 241 -172 241 -172 241 -147 c 0,31,32
 241 -99 241 -99 297 -99 c 0,33,34
 354 -99 354 -99 354 -146 c 0,24,25
EndSplineSet
Substitution2: "Single Substitution lookup 9 subtable" u062C
Substitution2: "'fina' Terminal Forms in Arabic lookup 4 subtable" uFE9E
Substitution2: "'medi' Medial Forms in Arabic lookup 3 subtable" uFEA0
Substitution2: "'init' Initial Forms in Arabic lookup 2 subtable" uFE9F
AlternateSubs2: "'aalt' Access All Alternates in Latin lookup 1 subtable" uFE9F uFEA0 uFE9E u062C
EndChar

StartChar: uFE9E
Encoding: 65182 65182 108
Width: 479
Flags: W
LayerCount: 2
Fore
SplineSet
498 0 m 1,0,1
 427 2 427 2 403 16 c 0,2,3
 369 34 369 34 363 55 c 0,4,5
 359 69 359 69 353 91 c 1,6,-1
 200 8 l 2,7,8
 96 -50 96 -50 96 -138 c 0,9,10
 96 -202 96 -202 145 -251 c 128,-1,11
 194 -300 194 -300 259 -300 c 2,12,-1
 486 -300 l 1,13,-1
 492 -377 l 1,14,-1
 279 -377 l 2,15,16
 169 -377 169 -377 96 -309 c 0,17,18
 21 -241 21 -241 21 -131 c 0,19,20
 21 -4 21 -4 136 60 c 2,21,-1
 375 190 l 1,22,23
 342 242 342 242 203 239 c 0,24,25
 66 235 66 235 115 235 c 1,26,-1
 105 312 l 1,27,-1
 294 312 l 2,28,29
 457 312 457 312 457 150 c 1,30,-1
 387 110 l 1,31,32
 396 87 396 87 436 80 c 0,33,34
 448 78 448 78 498 78 c 1,35,-1
 498 0 l 1,0,1
357 -142 m 0,36,37
 357 -164 357 -164 341 -180 c 128,-1,38
 325 -196 325 -196 303 -196 c 0,39,40
 277 -196 277 -196 262 -184 c 0,41,42
 243 -168 243 -168 243 -144 c 0,43,44
 243 -96 243 -96 300 -96 c 256,45,46
 357 -96 357 -96 357 -142 c 0,36,37
EndSplineSet
Substitution2: "Single Substitution lookup 9 subtable" uFE9E
Substitution2: "'aalt' Access All Alternates in Latin lookup 0 subtable" uFE9E
EndChar

StartChar: uFE9F
Encoding: 65183 65183 109
Width: 447
Flags: W
LayerCount: 2
Fore
SplineSet
432 150 m 1,0,-1
 253 49 l 2,1,2
 189 13 189 13 122 5 c 0,3,4
 87 0 87 0 -19 0 c 1,5,-1
 -19 78 l 1,6,7
 132 78 132 78 195 107 c 0,8,9
 200 109 200 109 251 137 c 0,10,11
 283 154 283 154 348 189 c 1,12,13
 332 223 332 223 297 230 c 0,14,15
 281 234 281 234 228 234 c 2,16,-1
 91 235 l 1,17,-1
 80 312 l 1,18,-1
 272 312 l 2,19,20
 432 312 432 312 432 150 c 1,0,-1
150 -141 m 0,21,22
 150 -163 150 -163 135.5 -178.5 c 128,-1,23
 121 -194 121 -194 98 -194 c 0,24,25
 72 -194 72 -194 56 -182 c 0,26,27
 38 -166 38 -166 38 -142 c 0,28,29
 38 -92 38 -92 95 -92 c 0,30,31
 150 -92 150 -92 150 -141 c 0,21,22
EndSplineSet
Substitution2: "Single Substitution lookup 9 subtable" uFE9F
Substitution2: "'aalt' Access All Alternates in Latin lookup 0 subtable" uFE9F
EndChar

StartChar: uFEA0
Encoding: 65184 65184 110
Width: 447
Flags: W
LayerCount: 2
Fore
SplineSet
459 0 m 1,0,1
 349 3 349 3 338 51 c 0,2,3
 332 70 332 70 327 91 c 1,4,5
 215 25 215 25 164 12 c 0,6,7
 118 0 118 0 -19 0 c 1,8,-1
 -19 78 l 1,9,10
 132 78 132 78 195 107 c 0,11,12
 208 112 208 112 348 189 c 1,13,14
 332 223 332 223 297 230 c 0,15,16
 282 234 282 234 228 234 c 2,17,-1
 91 235 l 1,18,-1
 80 312 l 1,19,-1
 272 312 l 2,20,21
 432 312 432 312 432 150 c 1,22,-1
 359 110 l 1,23,24
 359 78 359 78 459 78 c 1,25,-1
 459 0 l 1,0,1
225 -145 m 0,26,27
 225 -167 225 -167 209 -183.5 c 128,-1,28
 193 -200 193 -200 171 -200 c 0,29,30
 146 -200 146 -200 129 -186 c 0,31,32
 111 -170 111 -170 111 -146 c 0,33,34
 111 -99 111 -99 169 -99 c 0,35,36
 225 -99 225 -99 225 -145 c 0,26,27
EndSplineSet
Substitution2: "Single Substitution lookup 9 subtable" uFEA0
Substitution2: "'aalt' Access All Alternates in Latin lookup 0 subtable" uFEA0
EndChar

StartChar: u0686
Encoding: 1670 1670 111
AltUni2: 00fb7a.ffffffff.0
Width: 479
Flags: W
LayerCount: 2
Fore
SplineSet
442 -97 m 0,0,1
 442 -138 442 -138 388 -138 c 0,2,3
 338 -138 338 -138 338 -97 c 0,4,5
 338 -75 338 -75 351.5 -62 c 128,-1,6
 365 -49 365 -49 387 -49 c 0,7,8
 408 -49 408 -49 425 -62 c 0,9,10
 442 -74 442 -74 442 -97 c 0,0,1
487 -377 m 1,11,-1
 273 -377 l 2,12,13
 164 -377 164 -377 91 -309 c 0,14,15
 17 -241 17 -241 17 -131 c 0,16,17
 17 -3 17 -3 130 60 c 2,18,-1
 369 190 l 1,19,20
 352 224 352 224 316 229 c 0,21,22
 284 235 284 235 110 235 c 1,23,-1
 102 312 l 1,24,-1
 288 312 l 2,25,26
 452 312 452 312 452 150 c 1,27,-1
 195 8 l 2,28,29
 91 -51 91 -51 91 -138 c 0,30,31
 91 -202 91 -202 139.5 -251 c 128,-1,32
 188 -300 188 -300 253 -300 c 2,33,-1
 481 -300 l 1,34,-1
 487 -377 l 1,11,-1
291 -97 m 0,35,36
 291 -138 291 -138 239 -138 c 256,37,38
 187 -138 187 -138 187 -97 c 0,39,40
 187 -75 187 -75 201 -62 c 128,-1,41
 215 -49 215 -49 235 -49 c 0,42,43
 258 -49 258 -49 273 -62 c 0,44,45
 291 -74 291 -74 291 -97 c 0,35,36
361 -207 m 0,46,47
 361 -249 361 -249 312 -249 c 0,48,49
 258 -249 258 -249 258 -207 c 0,50,51
 258 -160 258 -160 306 -160 c 0,52,53
 328 -160 328 -160 345 -171 c 0,54,55
 361 -185 361 -185 361 -207 c 0,46,47
EndSplineSet
Substitution2: "Single Substitution lookup 9 subtable" u0686
Substitution2: "'fina' Terminal Forms in Arabic lookup 4 subtable" uFB7B
Substitution2: "'medi' Medial Forms in Arabic lookup 3 subtable" uFB7D
Substitution2: "'init' Initial Forms in Arabic lookup 2 subtable" uFB7C
AlternateSubs2: "'aalt' Access All Alternates in Latin lookup 1 subtable" uFB7C uFB7D uFB7B u0686
EndChar

StartChar: uFB7B
Encoding: 64379 64379 112
Width: 479
Flags: W
LayerCount: 2
Fore
SplineSet
438 -97 m 0,0,1
 438 -138 438 -138 387 -138 c 0,2,3
 334 -138 334 -138 334 -97 c 0,4,5
 334 -75 334 -75 348 -62 c 128,-1,6
 362 -49 362 -49 384 -49 c 256,7,8
 406 -49 406 -49 422 -62 c 0,9,10
 438 -74 438 -74 438 -97 c 0,0,1
503 0 m 1,11,12
 433 2 433 2 407 16 c 0,13,14
 374 34 374 34 368 55 c 0,15,16
 364 69 364 69 358 91 c 1,17,-1
 205 8 l 2,18,19
 102 -50 102 -50 102 -138 c 0,20,21
 102 -202 102 -202 151 -251 c 128,-1,22
 200 -300 200 -300 263 -300 c 2,23,-1
 490 -300 l 1,24,-1
 497 -377 l 1,25,-1
 283 -377 l 2,26,27
 174 -377 174 -377 102 -309 c 0,28,29
 27 -241 27 -241 27 -131 c 0,30,31
 27 -4 27 -4 142 60 c 2,32,-1
 380 190 l 1,33,34
 348 242 348 242 208 239 c 0,35,36
 69 235 69 235 121 235 c 1,37,-1
 110 312 l 1,38,-1
 299 312 l 2,39,40
 462 312 462 312 462 150 c 1,41,-1
 391 110 l 1,42,43
 400 87 400 87 440 80 c 0,44,45
 453 78 453 78 503 78 c 1,46,-1
 503 0 l 1,11,12
288 -97 m 0,47,48
 288 -138 288 -138 235 -138 c 0,49,50
 184 -138 184 -138 184 -97 c 0,51,52
 184 -75 184 -75 197.5 -62 c 128,-1,53
 211 -49 211 -49 232 -49 c 0,54,55
 255 -49 255 -49 271 -62 c 0,56,57
 288 -74 288 -74 288 -97 c 0,47,48
358 -207 m 0,58,59
 358 -249 358 -249 309 -249 c 0,60,61
 254 -249 254 -249 254 -207 c 0,62,63
 254 -160 254 -160 303 -160 c 0,64,65
 325 -160 325 -160 341 -171 c 0,66,67
 358 -185 358 -185 358 -207 c 0,58,59
EndSplineSet
Substitution2: "Single Substitution lookup 9 subtable" uFB7B
Substitution2: "'aalt' Access All Alternates in Latin lookup 0 subtable" uFB7B
EndChar

StartChar: uFB7C
Encoding: 64380 64380 113
Width: 447
Flags: W
LayerCount: 2
Fore
SplineSet
432 150 m 1,0,-1
 253 49 l 2,1,2
 189 13 189 13 122 5 c 0,3,4
 87 0 87 0 -19 0 c 1,5,-1
 -19 78 l 1,6,7
 132 78 132 78 195 107 c 0,8,9
 200 109 200 109 251 137 c 0,10,11
 283 154 283 154 348 189 c 1,12,13
 332 223 332 223 297 230 c 0,14,15
 281 234 281 234 228 234 c 2,16,-1
 91 235 l 1,17,-1
 80 312 l 1,18,-1
 272 312 l 2,19,20
 432 312 432 312 432 150 c 1,0,-1
296 -136 m 0,21,22
 296 -177 296 -177 243 -177 c 0,23,24
 191 -177 191 -177 191 -136 c 0,25,26
 191 -115 191 -115 206 -101.5 c 128,-1,27
 221 -88 221 -88 241 -88 c 0,28,29
 296 -88 296 -88 296 -136 c 0,21,22
147 -136 m 0,30,31
 147 -177 147 -177 93 -177 c 0,32,33
 43 -177 43 -177 43 -136 c 0,34,35
 43 -115 43 -115 56 -101.5 c 128,-1,36
 69 -88 69 -88 91 -88 c 256,37,38
 113 -88 113 -88 129 -101 c 0,39,40
 147 -113 147 -113 147 -136 c 0,30,31
219 -246 m 0,41,42
 219 -288 219 -288 169 -288 c 0,43,44
 112 -288 112 -288 112 -246 c 0,45,46
 112 -199 112 -199 163 -199 c 0,47,48
 185 -199 185 -199 201 -210 c 0,49,50
 219 -224 219 -224 219 -246 c 0,41,42
EndSplineSet
Substitution2: "Single Substitution lookup 9 subtable" uFB7C
Substitution2: "'aalt' Access All Alternates in Latin lookup 0 subtable" uFB7C
EndChar

StartChar: uFB7D
Encoding: 64381 64381 114
Width: 447
Flags: W
LayerCount: 2
Fore
SplineSet
459 0 m 1,0,1
 349 3 349 3 338 51 c 0,2,3
 332 70 332 70 327 91 c 1,4,5
 215 25 215 25 164 12 c 0,6,7
 118 0 118 0 -19 0 c 1,8,-1
 -19 78 l 1,9,10
 132 78 132 78 195 107 c 0,11,12
 208 112 208 112 348 189 c 1,13,14
 332 223 332 223 297 230 c 0,15,16
 282 234 282 234 228 234 c 2,17,-1
 91 235 l 1,18,-1
 80 312 l 1,19,-1
 272 312 l 2,20,21
 432 312 432 312 432 150 c 1,22,-1
 359 110 l 1,23,24
 359 78 359 78 459 78 c 1,25,-1
 459 0 l 1,0,1
306 -136 m 0,26,27
 306 -178 306 -178 256 -178 c 0,28,29
 202 -178 202 -178 202 -136 c 0,30,31
 202 -116 202 -116 216 -102.5 c 128,-1,32
 230 -89 230 -89 250 -89 c 0,33,34
 273 -89 273 -89 289.5 -101 c 128,-1,35
 306 -113 306 -113 306 -136 c 0,26,27
156 -136 m 0,36,37
 156 -178 156 -178 105 -178 c 0,38,39
 52 -178 52 -178 52 -136 c 0,40,41
 52 -116 52 -116 67 -102.5 c 128,-1,42
 82 -89 82 -89 102 -89 c 0,43,44
 156 -89 156 -89 156 -136 c 0,36,37
228 -246 m 0,45,46
 228 -288 228 -288 178 -288 c 0,47,48
 123 -288 123 -288 123 -246 c 0,49,50
 123 -200 123 -200 173 -200 c 0,51,52
 228 -200 228 -200 228 -246 c 0,45,46
EndSplineSet
Substitution2: "Single Substitution lookup 9 subtable" uFB7D
Substitution2: "'aalt' Access All Alternates in Latin lookup 0 subtable" uFB7D
EndChar

StartChar: u062D
Encoding: 1581 1581 115
AltUni2: 00fea1.ffffffff.0
Width: 479
Flags: W
LayerCount: 2
Fore
SplineSet
490 -377 m 1,0,-1
 277 -377 l 2,1,2
 151 -377 151 -377 77 -288 c 0,3,4
 20 -222 20 -222 20 -136 c 2,5,-1
 20 -119 l 2,6,7
 20 -117 20 -117 21 -103 c 0,8,9
 35 6 35 6 134 60 c 2,10,-1
 373 190 l 1,11,12
 347 239 347 239 224 239 c 2,13,-1
 200 239 l 1,14,-1
 114 237 l 1,15,-1
 114 235 l 1,16,-1
 99 236 l 1,17,18
 104 237 104 237 114 237 c 1,19,-1
 104 312 l 1,20,-1
 292 312 l 2,21,22
 453 312 453 312 456 150 c 1,23,-1
 199 8 l 2,24,25
 93 -51 93 -51 93 -138 c 0,26,27
 93 -200 93 -200 143 -250 c 128,-1,28
 193 -300 193 -300 256 -300 c 2,29,-1
 483 -300 l 1,30,-1
 490 -377 l 1,0,-1
EndSplineSet
Substitution2: "Single Substitution lookup 9 subtable" u062D
Substitution2: "'fina' Terminal Forms in Arabic lookup 4 subtable" uFEA2
Substitution2: "'medi' Medial Forms in Arabic lookup 3 subtable" uFEA4
Substitution2: "'init' Initial Forms in Arabic lookup 2 subtable" uFEA3
AlternateSubs2: "'aalt' Access All Alternates in Latin lookup 1 subtable" uFEA3 uFEA4 uFEA2 u062D
EndChar

StartChar: uFEA2
Encoding: 65186 65186 116
Width: 479
Flags: W
LayerCount: 2
Fore
SplineSet
499 0 m 1,0,1
 381 0 381 0 364 55 c 0,2,3
 360 66 360 66 354 91 c 1,4,-1
 202 8 l 2,5,6
 97 -51 97 -51 97 -138 c 0,7,8
 97 -201 97 -201 146.5 -250.5 c 128,-1,9
 196 -300 196 -300 260 -300 c 2,10,-1
 487 -300 l 1,11,-1
 494 -377 l 1,12,-1
 279 -377 l 2,13,14
 155 -377 155 -377 80 -288 c 0,15,16
 22 -221 22 -221 22 -136 c 2,17,-1
 22 -119 l 1,18,19
 22 -119 22 -119 24 -103 c 0,20,21
 37 6 37 6 137 60 c 2,22,-1
 378 190 l 1,23,24
 360 223 360 223 325 229 c 0,25,26
 312 232 312 232 257 234 c 0,27,28
 220 235 220 235 117 235 c 1,29,-1
 106 312 l 1,30,-1
 295 312 l 2,31,32
 456 312 456 312 458 150 c 1,33,-1
 387 110 l 1,34,35
 392 78 392 78 499 78 c 1,36,-1
 499 0 l 1,0,1
EndSplineSet
Substitution2: "Single Substitution lookup 9 subtable" uFEA2
Substitution2: "'aalt' Access All Alternates in Latin lookup 0 subtable" uFEA2
EndChar

StartChar: uFEA3
Encoding: 65187 65187 117
Width: 447
Flags: W
LayerCount: 2
Fore
SplineSet
432 150 m 1,0,-1
 253 49 l 2,1,2
 193 15 193 15 122 6 c 0,3,4
 92 2 92 2 -19 0 c 1,5,-1
 -19 78 l 1,6,-1
 44 78 l 2,7,8
 129 78 129 78 203 110 c 0,9,10
 216 117 216 117 348 189 c 1,11,12
 334 220 334 220 294 229 c 0,13,14
 283 232 283 232 91 235 c 1,15,-1
 80 312 l 1,16,-1
 272 312 l 2,17,18
 431 312 431 312 432 150 c 1,0,-1
EndSplineSet
EndChar

StartChar: uFEA4
Encoding: 65188 65188 118
Width: 447
Flags: W
LayerCount: 2
Fore
SplineSet
459 0 m 1,0,1
 352 0 352 0 338 51 c 0,2,3
 335 61 335 61 332 72 c 2,4,-1
 327 91 l 1,5,6
 223 28 223 28 164 13 c 0,7,8
 118 2 118 2 -19 0 c 1,9,-1
 -19 78 l 1,10,-1
 44 78 l 2,11,12
 127 78 127 78 203 110 c 0,13,14
 225 121 225 121 348 189 c 1,15,16
 334 221 334 221 294 229 c 0,17,18
 288 231 288 231 246 233 c 0,19,20
 226 233 226 233 91 235 c 1,21,-1
 80 312 l 1,22,-1
 272 312 l 2,23,24
 429 312 429 312 432 148 c 1,25,-1
 359 110 l 1,26,27
 359 78 359 78 459 78 c 1,28,-1
 459 0 l 1,0,1
EndSplineSet
EndChar

StartChar: u062E
Encoding: 1582 1582 119
AltUni2: 00fea5.ffffffff.0
Width: 479
Flags: W
LayerCount: 2
Fore
SplineSet
328 453 m 0,0,1
 328 430 328 430 312.5 414 c 128,-1,2
 297 398 297 398 274 398 c 0,3,4
 215 398 215 398 215 453 c 0,5,6
 215 499 215 499 271 499 c 0,7,8
 328 499 328 499 328 453 c 0,0,1
489 -377 m 1,9,-1
 275 -377 l 2,10,11
 166 -377 166 -377 93 -309 c 0,12,13
 19 -241 19 -241 19 -131 c 0,14,15
 19 -4 19 -4 132 60 c 2,16,-1
 371 190 l 1,17,18
 354 224 354 224 319 229 c 0,19,20
 287 235 287 235 111 235 c 1,21,-1
 103 312 l 1,22,-1
 291 312 l 2,23,24
 454 312 454 312 455 150 c 1,25,-1
 197 8 l 2,26,27
 92 -51 92 -51 92 -138 c 0,28,29
 92 -201 92 -201 141.5 -250.5 c 128,-1,30
 191 -300 191 -300 255 -300 c 2,31,-1
 482 -300 l 1,32,-1
 489 -377 l 1,9,-1
EndSplineSet
Substitution2: "Single Substitution lookup 9 subtable" u062E
Substitution2: "'fina' Terminal Forms in Arabic lookup 4 subtable" uFEA6
Substitution2: "'medi' Medial Forms in Arabic lookup 3 subtable" uFEA8
Substitution2: "'init' Initial Forms in Arabic lookup 2 subtable" uFEA7
AlternateSubs2: "'aalt' Access All Alternates in Latin lookup 1 subtable" uFEA7 uFEA8 uFEA6 u062E
EndChar

StartChar: uFEA6
Encoding: 65190 65190 120
Width: 479
Flags: W
LayerCount: 2
Fore
SplineSet
320 453 m 0,0,1
 320 430 320 430 304.5 414 c 128,-1,2
 289 398 289 398 267 398 c 0,3,4
 207 398 207 398 207 453 c 0,5,6
 207 500 207 500 264 500 c 0,7,8
 320 500 320 500 320 453 c 0,0,1
498 0 m 1,9,10
 427 2 427 2 403 16 c 0,11,12
 369 34 369 34 363 55 c 0,13,14
 359 69 359 69 353 91 c 1,15,-1
 200 8 l 2,16,17
 96 -50 96 -50 96 -138 c 0,18,19
 96 -202 96 -202 145 -251 c 128,-1,20
 194 -300 194 -300 259 -300 c 2,21,-1
 486 -300 l 1,22,-1
 492 -377 l 1,23,-1
 279 -377 l 2,24,25
 169 -377 169 -377 96 -309 c 0,26,27
 21 -241 21 -241 21 -131 c 0,28,29
 21 -4 21 -4 136 60 c 2,30,-1
 375 190 l 1,31,32
 342 242 342 242 203 239 c 0,33,34
 66 235 66 235 115 235 c 1,35,-1
 105 312 l 1,36,-1
 294 312 l 2,37,38
 457 312 457 312 457 150 c 1,39,-1
 387 110 l 1,40,41
 396 87 396 87 436 80 c 0,42,43
 448 78 448 78 498 78 c 1,44,-1
 498 0 l 1,9,10
EndSplineSet
Substitution2: "Single Substitution lookup 9 subtable" uFEA6
Substitution2: "'aalt' Access All Alternates in Latin lookup 0 subtable" uFEA6
EndChar

StartChar: uFEA7
Encoding: 65191 65191 121
Width: 447
Flags: W
LayerCount: 2
Fore
SplineSet
281 451 m 0,0,1
 281 429 281 429 265 413 c 128,-1,2
 249 397 249 397 228 397 c 0,3,4
 168 397 168 397 168 451 c 0,5,6
 168 498 168 498 225 498 c 0,7,8
 281 498 281 498 281 451 c 0,0,1
432 150 m 1,9,-1
 253 49 l 2,10,11
 189 13 189 13 122 5 c 0,12,13
 87 0 87 0 -19 0 c 1,14,-1
 -19 78 l 1,15,16
 132 78 132 78 195 107 c 0,17,18
 200 109 200 109 251 137 c 0,19,20
 283 154 283 154 348 189 c 1,21,22
 332 223 332 223 297 230 c 0,23,24
 281 234 281 234 228 234 c 2,25,-1
 91 235 l 1,26,-1
 80 312 l 1,27,-1
 272 312 l 2,28,29
 432 312 432 312 432 150 c 1,9,-1
EndSplineSet
EndChar

StartChar: uFEA8
Encoding: 65192 65192 122
Width: 447
Flags: W
LayerCount: 2
Fore
SplineSet
264 464 m 0,0,1
 264 441 264 441 248 425 c 128,-1,2
 232 409 232 409 209 409 c 0,3,4
 185 409 185 409 167.5 424 c 128,-1,5
 150 439 150 439 150 464 c 0,6,7
 150 510 150 510 207 510 c 256,8,9
 264 510 264 510 264 464 c 0,0,1
459 0 m 1,10,11
 349 3 349 3 338 51 c 0,12,13
 332 70 332 70 327 91 c 1,14,15
 215 25 215 25 164 12 c 0,16,17
 118 0 118 0 -19 0 c 1,18,-1
 -19 78 l 1,19,20
 132 78 132 78 195 107 c 0,21,22
 208 112 208 112 348 189 c 1,23,24
 332 223 332 223 297 230 c 0,25,26
 282 234 282 234 228 234 c 2,27,-1
 91 235 l 1,28,-1
 80 312 l 1,29,-1
 272 312 l 2,30,31
 432 312 432 312 432 150 c 1,32,-1
 359 110 l 1,33,34
 359 78 359 78 459 78 c 1,35,-1
 459 0 l 1,10,11
EndSplineSet
EndChar

StartChar: u062F
Encoding: 1583 1583 123
AltUni2: 00fea9.ffffffff.0
Width: 427
Flags: W
LayerCount: 2
Fore
SplineSet
409 103 m 256,0,1
 409 55 409 55 374 27 c 0,2,3
 342 0 342 0 294 0 c 2,4,-1
 52 0 l 1,5,-1
 41 78 l 1,6,-1
 288 78 l 2,7,8
 332 78 332 78 332 108 c 0,9,10
 332 124 332 124 320 137 c 2,11,-1
 145 323 l 1,12,-1
 197 377 l 1,13,-1
 373 189 l 2,14,15
 409 151 409 151 409 103 c 256,0,1
EndSplineSet
Substitution2: "'fina' Terminal Forms in Arabic lookup 4 subtable" uFEAA
Substitution2: "'init' Initial Forms in Arabic lookup 2 subtable" u062F
AlternateSubs2: "'aalt' Access All Alternates in Latin lookup 1 subtable" u062F uFEAA
EndChar

StartChar: uFEAA
Encoding: 65194 65194 124
Width: 508
Flags: W
LayerCount: 2
Fore
SplineSet
531 0 m 1,0,-1
 495 0 l 2,1,2
 451 0 451 0 397 54 c 1,3,4
 361 0 361 0 293 0 c 2,5,-1
 51 0 l 1,6,-1
 40 78 l 1,7,-1
 288 78 l 2,8,9
 331 78 331 78 331 107 c 0,10,11
 331 124 331 124 319 137 c 2,12,-1
 144 323 l 1,13,-1
 196 377 l 1,14,-1
 431 128 l 2,15,16
 462 95 462 95 474 89 c 0,17,18
 493 78 493 78 531 78 c 1,19,-1
 531 0 l 1,0,-1
EndSplineSet
EndChar

StartChar: u0630
Encoding: 1584 1584 125
AltUni2: 00feab.ffffffff.0
Width: 427
Flags: W
LayerCount: 2
Fore
SplineSet
256 507 m 0,0,1
 256 484 256 484 240.5 468 c 128,-1,2
 225 452 225 452 202 452 c 0,3,4
 143 452 143 452 143 507 c 0,5,6
 143 553 143 553 200 553 c 0,7,8
 256 553 256 553 256 507 c 0,0,1
407 104 m 0,9,10
 407 55 407 55 375 27 c 0,11,12
 343 0 343 0 293 0 c 2,13,-1
 51 0 l 1,14,-1
 40 78 l 1,15,-1
 288 78 l 2,16,17
 331 78 331 78 331 108 c 0,18,19
 331 124 331 124 319 137 c 2,20,-1
 144 323 l 1,21,-1
 196 377 l 1,22,-1
 372 189 l 2,23,24
 407 152 407 152 407 104 c 0,9,10
EndSplineSet
Substitution2: "'fina' Terminal Forms in Arabic lookup 4 subtable" uFEAC
Substitution2: "'aalt' Access All Alternates in Latin lookup 0 subtable" uFEAC
EndChar

StartChar: uFEAC
Encoding: 65196 65196 126
Width: 508
Flags: W
LayerCount: 2
Fore
SplineSet
206 467 m 0,0,1
 206 444 206 444 190 428.5 c 128,-1,2
 174 413 174 413 151 413 c 0,3,4
 92 413 92 413 92 467 c 0,5,6
 92 514 92 514 148 514 c 0,7,8
 206 514 206 514 206 467 c 0,0,1
531 0 m 1,9,-1
 494 0 l 2,10,11
 450 0 450 0 397 54 c 1,12,13
 375 22 375 22 353 11 c 128,-1,14
 331 0 331 0 293 0 c 2,15,-1
 50 0 l 1,16,-1
 39 78 l 1,17,-1
 288 78 l 2,18,19
 330 78 330 78 330 107 c 0,20,21
 330 124 330 124 319 137 c 2,22,-1
 143 323 l 1,23,-1
 195 377 l 1,24,-1
 430 128 l 2,25,26
 459 97 459 97 473 89 c 0,27,28
 492 78 492 78 531 78 c 1,29,-1
 531 0 l 1,9,-1
EndSplineSet
EndChar

StartChar: u0631
Encoding: 1585 1585 127
AltUni2: 00fead.ffffffff.0
Width: 378
Flags: W
LayerCount: 2
Fore
SplineSet
331 13 m 2,0,1
 331 -72 331 -72 277 -134 c 0,2,3
 223 -197 223 -197 136 -197 c 2,4,-1
 31 -197 l 1,5,-1
 20 -117 l 1,6,-1
 107 -117 l 2,7,8
 164 -117 164 -117 204 -90 c 0,9,10
 251 -59 251 -59 251 -5 c 2,11,-1
 251 245 l 1,12,-1
 331 245 l 1,13,-1
 331 13 l 2,0,1
EndSplineSet
Substitution2: "Single Substitution lookup 9 subtable" u0631
Substitution2: "'fina' Terminal Forms in Arabic lookup 4 subtable" uFEAE
AlternateSubs2: "'aalt' Access All Alternates in Latin lookup 1 subtable" uFEAE u0631
EndChar

StartChar: uFEAE
Encoding: 65198 65198 128
Width: 397
Flags: W
LayerCount: 2
Fore
SplineSet
410 0 m 1,0,1
 352 0 352 0 327 37 c 1,2,3
 327 -62 327 -62 278 -126 c 0,4,5
 225 -197 225 -197 129 -197 c 2,6,-1
 28 -197 l 1,7,-1
 16 -119 l 1,8,-1
 123 -119 l 2,9,10
 173 -119 173 -119 209 -88 c 0,11,12
 247 -55 247 -55 247 -5 c 2,13,-1
 247 245 l 1,14,-1
 325 245 l 1,15,-1
 325 132 l 2,16,17
 325 80 325 80 410 78 c 1,18,-1
 410 0 l 1,0,1
EndSplineSet
Substitution2: "Single Substitution lookup 9 subtable" uFEAE
Substitution2: "'aalt' Access All Alternates in Latin lookup 0 subtable" uFEAE
EndChar

StartChar: u0632
Encoding: 1586 1586 129
AltUni2: 00feaf.ffffffff.0
Width: 378
Flags: W
LayerCount: 2
Fore
SplineSet
327 457 m 0,0,1
 327 435 327 435 311.5 418.5 c 128,-1,2
 296 402 296 402 272 402 c 0,3,4
 213 402 213 402 213 457 c 0,5,6
 213 505 213 505 270 505 c 256,7,8
 327 505 327 505 327 457 c 0,0,1
330 13 m 2,9,10
 330 -72 330 -72 276 -133 c 0,11,12
 221 -197 221 -197 135 -197 c 2,13,-1
 31 -197 l 1,14,-1
 19 -117 l 1,15,-1
 106 -117 l 2,16,17
 163 -117 163 -117 203 -90 c 0,18,19
 249 -59 249 -59 249 -5 c 2,20,-1
 249 245 l 1,21,-1
 330 245 l 1,22,-1
 330 13 l 2,9,10
EndSplineSet
Substitution2: "Single Substitution lookup 9 subtable" u0632
Substitution2: "'fina' Terminal Forms in Arabic lookup 4 subtable" uFEB0
AlternateSubs2: "'aalt' Access All Alternates in Latin lookup 1 subtable" uFEB0 u0632
EndChar

StartChar: uFEB0
Encoding: 65200 65200 130
Width: 397
Flags: W
LayerCount: 2
Fore
SplineSet
322 453 m 0,0,1
 322 430 322 430 306.5 414 c 128,-1,2
 291 398 291 398 268 398 c 0,3,4
 208 398 208 398 208 453 c 0,5,6
 208 499 208 499 266 499 c 0,7,8
 322 499 322 499 322 453 c 0,0,1
410 0 m 1,9,10
 349 1 349 1 327 37 c 1,11,12
 327 -62 327 -62 278 -126 c 0,13,14
 225 -197 225 -197 129 -197 c 2,15,-1
 28 -197 l 1,16,-1
 16 -119 l 1,17,-1
 123 -119 l 2,18,19
 171 -119 171 -119 208 -87 c 0,20,21
 247 -53 247 -53 247 -5 c 2,22,-1
 247 245 l 1,23,-1
 325 245 l 1,24,-1
 325 132 l 2,25,26
 325 78 325 78 410 78 c 1,27,-1
 410 0 l 1,9,10
EndSplineSet
Substitution2: "Single Substitution lookup 9 subtable" uFEB0
Substitution2: "'aalt' Access All Alternates in Latin lookup 0 subtable" uFEB0
EndChar

StartChar: u0698
Encoding: 1688 1688 131
AltUni2: 00fb8a.ffffffff.0
Width: 399
Flags: W
LayerCount: 2
Fore
SplineSet
288 409 m 256,0,1
 266 409 266 409 249 422 c 0,2,3
 232 436 232 436 232 457 c 0,4,5
 232 499 232 499 286 499 c 0,6,7
 339 499 339 499 339 459 c 0,8,9
 339 437 339 437 324.5 423 c 128,-1,10
 310 409 310 409 288 409 c 256,0,1
414 348 m 0,11,12
 414 326 414 326 399.5 312.5 c 128,-1,13
 385 299 385 299 364 299 c 0,14,15
 341 299 341 299 325 312 c 0,16,17
 308 325 308 325 308 348 c 0,18,19
 308 388 308 388 358 388 c 0,20,21
 414 388 414 388 414 348 c 0,11,12
262 348 m 0,22,23
 262 327 262 327 247.5 313 c 128,-1,24
 233 299 233 299 213 299 c 0,25,26
 190 299 190 299 173.5 312.5 c 128,-1,27
 157 326 157 326 157 348 c 0,28,29
 157 388 157 388 208 388 c 0,30,31
 262 388 262 388 262 348 c 0,22,23
332 13 m 2,32,33
 332 -72 332 -72 278 -134 c 0,34,35
 223 -197 223 -197 137 -197 c 2,36,-1
 32 -197 l 1,37,-1
 21 -117 l 1,38,-1
 108 -117 l 2,39,40
 165 -117 165 -117 205 -90 c 0,41,42
 252 -59 252 -59 252 -5 c 2,43,-1
 252 245 l 1,44,-1
 332 245 l 1,45,-1
 332 13 l 2,32,33
EndSplineSet
Substitution2: "Single Substitution lookup 9 subtable" u0698
Substitution2: "'fina' Terminal Forms in Arabic lookup 4 subtable" uFB8B
AlternateSubs2: "'aalt' Access All Alternates in Latin lookup 1 subtable" uFB8B u0698
EndChar

StartChar: uFB8B
Encoding: 64395 64395 132
Width: 397
Flags: W
LayerCount: 2
Fore
SplineSet
322 459 m 0,0,1
 322 438 322 438 308 424.5 c 128,-1,2
 294 411 294 411 272 411 c 0,3,4
 251 411 251 411 235 424.5 c 128,-1,5
 219 438 219 438 219 459 c 0,6,7
 219 501 219 501 268 501 c 0,8,9
 322 501 322 501 322 459 c 0,0,1
398 349 m 0,10,11
 398 327 398 327 384 314 c 128,-1,12
 370 301 370 301 349 301 c 0,13,14
 327 301 327 301 312 314 c 0,15,16
 295 327 295 327 295 349 c 0,17,18
 295 391 295 391 344 391 c 0,19,20
 398 391 398 391 398 349 c 0,10,11
248 349 m 0,21,22
 248 328 248 328 234 314.5 c 128,-1,23
 220 301 220 301 199 301 c 0,24,25
 177 301 177 301 161 314 c 128,-1,26
 145 327 145 327 145 349 c 0,27,28
 145 391 145 391 194 391 c 0,29,30
 248 391 248 391 248 349 c 0,21,22
410 0 m 1,31,32
 349 1 349 1 327 37 c 1,33,34
 327 -62 327 -62 278 -126 c 0,35,36
 225 -197 225 -197 129 -197 c 2,37,-1
 28 -197 l 1,38,-1
 16 -119 l 1,39,-1
 123 -119 l 2,40,41
 171 -119 171 -119 208 -87 c 0,42,43
 247 -53 247 -53 247 -5 c 2,44,-1
 247 245 l 1,45,-1
 325 245 l 1,46,-1
 325 132 l 2,47,48
 325 78 325 78 410 78 c 1,49,-1
 410 0 l 1,31,32
EndSplineSet
Substitution2: "Single Substitution lookup 9 subtable" uFB8B
Substitution2: "'aalt' Access All Alternates in Latin lookup 0 subtable" uFB8B
EndChar

StartChar: u0633
Encoding: 1587 1587 133
AltUni2: 00feb1.ffffffff.0
Width: 977
Flags: W
LayerCount: 2
Fore
SplineSet
937 125 m 2,0,1
 937 70 937 70 912 34 c 0,2,3
 884 -9 884 -9 832 -9 c 0,4,5
 778 -9 778 -9 723 46 c 1,6,7
 686 -9 686 -9 630 -9 c 0,8,9
 588 -9 588 -9 542 23 c 1,10,11
 542 -69 542 -69 493 -130 c 0,12,13
 439 -197 439 -197 349 -197 c 2,14,-1
 229 -197 l 2,15,16
 146 -197 146 -197 90 -138 c 0,17,18
 37 -80 37 -80 37 5 c 2,19,-1
 37 167 l 1,20,-1
 112 167 l 1,21,-1
 112 1 l 2,22,23
 112 -53 112 -53 148 -87 c 0,24,25
 184 -119 184 -119 239 -119 c 2,26,-1
 340 -119 l 2,27,28
 395 -119 395 -119 429 -86 c 128,-1,29
 463 -53 463 -53 463 1 c 2,30,-1
 463 245 l 1,31,-1
 541 245 l 1,32,-1
 541 129 l 2,33,34
 541 103 541 103 561.5 84.5 c 128,-1,35
 582 66 582 66 609 66 c 0,36,37
 663 66 663 66 663 115 c 2,38,-1
 663 245 l 1,39,-1
 740 245 l 1,40,-1
 740 129 l 2,41,42
 740 104 740 104 759.5 85 c 128,-1,43
 779 66 779 66 806 66 c 0,44,45
 861 66 861 66 861 115 c 2,46,-1
 861 245 l 1,47,-1
 937 245 l 1,48,-1
 937 125 l 2,0,1
EndSplineSet
Substitution2: "Single Substitution lookup 9 subtable" u0633
Substitution2: "'fina' Terminal Forms in Arabic lookup 4 subtable" uFEB2
Substitution2: "'medi' Medial Forms in Arabic lookup 3 subtable" uFEB4
Substitution2: "'init' Initial Forms in Arabic lookup 2 subtable" uFEB3
AlternateSubs2: "'aalt' Access All Alternates in Latin lookup 1 subtable" uFEB3 uFEB4 uFEB2 u0633
EndChar

StartChar: uFEB2
Encoding: 65202 65202 134
Width: 997
Flags: W
LayerCount: 2
Fore
SplineSet
1013 0 m 1,0,1
 966 1 966 1 951 6 c 0,2,3
 921 13 921 13 904 42 c 1,4,5
 869 -9 869 -9 807 -9 c 0,6,7
 748 -9 748 -9 704 46 c 1,8,9
 662 -10 662 -10 605 -10 c 0,10,11
 563 -10 563 -10 526 23 c 1,12,13
 526 -68 526 -68 477 -130 c 0,14,15
 423 -197 423 -197 333 -197 c 2,16,-1
 212 -197 l 2,17,18
 128 -197 128 -197 72 -138 c 0,19,20
 20 -80 20 -80 20 5 c 2,21,-1
 20 167 l 1,22,-1
 98 167 l 1,23,-1
 98 1 l 2,24,25
 98 -52 98 -52 133 -85.5 c 128,-1,26
 168 -119 168 -119 223 -119 c 2,27,-1
 323 -119 l 2,28,29
 378 -119 378 -119 413 -86 c 128,-1,30
 448 -53 448 -53 448 1 c 2,31,-1
 448 245 l 1,32,-1
 526 245 l 1,33,-1
 526 129 l 2,34,35
 526 102 526 102 546 84 c 128,-1,36
 566 66 566 66 593 66 c 0,37,38
 646 66 646 66 646 115 c 2,39,-1
 646 245 l 1,40,-1
 725 245 l 1,41,-1
 725 129 l 2,42,43
 725 104 725 104 744.5 85 c 128,-1,44
 764 66 764 66 790 66 c 0,45,46
 844 66 844 66 844 115 c 2,47,-1
 844 245 l 1,48,-1
 921 245 l 1,49,-1
 921 125 l 2,50,51
 921 99 921 99 949 85 c 0,52,53
 958 82 958 82 1013 78 c 1,54,-1
 1013 0 l 1,0,1
EndSplineSet
Substitution2: "Single Substitution lookup 9 subtable" uFEB2
Substitution2: "'aalt' Access All Alternates in Latin lookup 0 subtable" uFEB2
EndChar

StartChar: uFEB3
Encoding: 65203 65203 135
Width: 631
Flags: W
LayerCount: 2
Fore
SplineSet
604 125 m 2,0,1
 604 67 604 67 576 31 c 0,2,3
 547 -10 547 -10 490 -10 c 0,4,5
 436 -10 436 -10 386 44 c 1,6,7
 340 -9 340 -9 290 -9 c 0,8,9
 237 -9 237 -9 184 54 c 1,10,11
 137 0 137 0 82 0 c 2,12,-1
 -18 0 l 1,13,-1
 -18 78 l 1,14,-1
 76 78 l 2,15,16
 130 78 130 78 130 136 c 2,17,-1
 130 245 l 1,18,-1
 207 245 l 1,19,-1
 207 129 l 2,20,21
 207 103 207 103 227 84.5 c 128,-1,22
 247 66 247 66 275 66 c 0,23,24
 328 66 328 66 328 115 c 2,25,-1
 328 245 l 1,26,-1
 405 245 l 1,27,-1
 405 129 l 2,28,29
 405 104 405 104 424.5 85 c 128,-1,30
 444 66 444 66 472 66 c 0,31,32
 526 66 526 66 526 115 c 2,33,-1
 526 245 l 1,34,-1
 604 245 l 1,35,-1
 604 125 l 2,0,1
EndSplineSet
EndChar

StartChar: uFEB4
Encoding: 65204 65204 136
Width: 677
Flags: W
LayerCount: 2
Fore
SplineSet
689 0 m 1,0,1
 645 1 645 1 629 6 c 0,2,3
 598 14 598 14 583 42 c 1,4,5
 547 -10 547 -10 492 -10 c 256,6,7
 437 -10 437 -10 386 43 c 1,8,9
 340 -10 340 -10 271 -10 c 0,10,11
 208 -10 208 -10 167 47 c 1,12,13
 142 12 142 12 80 4 c 0,14,15
 52 0 52 0 -21 0 c 1,16,-1
 -21 78 l 1,17,-1
 44 78 l 2,18,19
 87 78 87 78 104 89 c 0,20,21
 126 104 126 104 126 146 c 2,22,-1
 126 245 l 1,23,-1
 203 245 l 1,24,-1
 203 129 l 2,25,26
 203 103 203 103 222.5 84.5 c 128,-1,27
 242 66 242 66 269 66 c 0,28,29
 322 66 322 66 322 115 c 2,30,-1
 322 245 l 1,31,-1
 399 245 l 1,32,-1
 399 129 l 2,33,34
 399 104 399 104 420 85 c 0,35,36
 438 66 438 66 467 66 c 0,37,38
 521 66 521 66 521 115 c 2,39,-1
 521 245 l 1,40,-1
 598 245 l 1,41,-1
 598 125 l 2,42,43
 598 98 598 98 626 85 c 0,44,45
 634 81 634 81 689 78 c 1,46,-1
 689 0 l 1,0,1
EndSplineSet
EndChar

StartChar: u0634
Encoding: 1588 1588 137
AltUni2: 00feb5.ffffffff.0
Width: 977
Flags: W
LayerCount: 2
Fore
SplineSet
746 457 m 0,0,1
 746 437 746 437 731.5 423.5 c 128,-1,2
 717 410 717 410 696 410 c 0,3,4
 674 410 674 410 659 423 c 0,5,6
 643 437 643 437 643 457 c 0,7,8
 643 500 643 500 691 500 c 0,9,10
 746 500 746 500 746 457 c 0,0,1
823 348 m 0,11,12
 823 327 823 327 808 313.5 c 128,-1,13
 793 300 793 300 772 300 c 0,14,15
 750 300 750 300 735 312 c 0,16,17
 719 326 719 326 719 348 c 0,18,19
 719 390 719 390 767 390 c 0,20,21
 823 390 823 390 823 348 c 0,11,12
672 348 m 0,22,23
 672 327 672 327 658 313.5 c 128,-1,24
 644 300 644 300 623 300 c 256,25,26
 602 300 602 300 586 312 c 0,27,28
 568 326 568 326 568 348 c 0,29,30
 568 390 568 390 618 390 c 0,31,32
 672 390 672 390 672 348 c 0,22,23
937 125 m 2,33,34
 937 70 937 70 912 34 c 0,35,36
 884 -9 884 -9 832 -9 c 0,37,38
 774 -9 774 -9 723 46 c 1,39,40
 681 -9 681 -9 630 -9 c 0,41,42
 590 -9 590 -9 542 23 c 1,43,44
 541 -68 541 -68 492 -129 c 0,45,46
 437 -197 437 -197 349 -197 c 2,47,-1
 229 -197 l 2,48,49
 146 -197 146 -197 91 -138 c 0,50,51
 37 -79 37 -79 37 5 c 2,52,-1
 37 167 l 1,53,-1
 112 167 l 1,54,-1
 112 1 l 2,55,56
 112 -54 112 -54 148 -87 c 0,57,58
 183 -119 183 -119 239 -119 c 2,59,-1
 340 -119 l 2,60,61
 394 -119 394 -119 428.5 -85.5 c 128,-1,62
 463 -52 463 -52 463 1 c 2,63,-1
 463 245 l 1,64,-1
 541 245 l 1,65,-1
 541 129 l 2,66,67
 541 103 541 103 561.5 84.5 c 128,-1,68
 582 66 582 66 609 66 c 0,69,70
 663 66 663 66 663 115 c 2,71,-1
 663 245 l 1,72,-1
 740 245 l 1,73,-1
 740 129 l 2,74,75
 740 103 740 103 759 84.5 c 128,-1,76
 778 66 778 66 806 66 c 0,77,78
 861 66 861 66 861 115 c 2,79,-1
 861 245 l 1,80,-1
 937 245 l 1,81,-1
 937 125 l 2,33,34
EndSplineSet
Substitution2: "Single Substitution lookup 9 subtable" u0634
Substitution2: "'fina' Terminal Forms in Arabic lookup 4 subtable" uFEB6
Substitution2: "'medi' Medial Forms in Arabic lookup 3 subtable" uFEB8
Substitution2: "'init' Initial Forms in Arabic lookup 2 subtable" uFEB7
AlternateSubs2: "'aalt' Access All Alternates in Latin lookup 1 subtable" uFEB7 uFEB8 uFEB6 u0634
EndChar

StartChar: uFEB6
Encoding: 65206 65206 138
Width: 997
Flags: W
LayerCount: 2
Fore
SplineSet
681 407 m 0,0,1
 657 407 657 407 642 420 c 0,2,3
 625 434 625 434 625 456 c 0,4,5
 625 498 625 498 677 498 c 0,6,7
 696 498 696 498 712 487 c 0,8,9
 729 476 729 476 729 458 c 0,10,11
 729 437 729 437 715 422 c 128,-1,12
 701 407 701 407 681 407 c 0,0,1
805 345 m 0,13,14
 805 325 805 325 790 312 c 128,-1,15
 775 299 775 299 755 299 c 0,16,17
 732 299 732 299 717 310 c 0,18,19
 700 323 700 323 700 345 c 0,20,21
 700 388 700 388 750 388 c 0,22,23
 805 388 805 388 805 345 c 0,13,14
653 345 m 0,24,25
 653 325 653 325 639 312 c 128,-1,26
 625 299 625 299 605 299 c 0,27,28
 582 299 582 299 566 310 c 0,29,30
 549 323 549 323 549 345 c 0,31,32
 549 388 549 388 600 388 c 0,33,34
 653 388 653 388 653 345 c 0,24,25
1010 0 m 1,35,-1
 981 0 l 2,36,37
 927 0 927 0 900 43 c 1,38,39
 864 -8 864 -8 804 -8 c 0,40,41
 742 -8 742 -8 701 47 c 1,42,43
 659 -10 659 -10 604 -10 c 0,44,45
 561 -10 561 -10 524 23 c 1,46,47
 522 -68 522 -68 474 -129 c 0,48,49
 419 -197 419 -197 330 -197 c 2,50,-1
 209 -197 l 2,51,52
 126 -197 126 -197 70 -138 c 0,53,54
 17 -79 17 -79 17 5 c 2,55,-1
 17 167 l 1,56,-1
 95 167 l 1,57,-1
 95 1 l 2,58,59
 95 -53 95 -53 129.5 -86 c 128,-1,60
 164 -119 164 -119 220 -119 c 2,61,-1
 320 -119 l 2,62,63
 374 -119 374 -119 410 -85.5 c 128,-1,64
 446 -52 446 -52 446 1 c 2,65,-1
 446 245 l 1,66,-1
 524 245 l 1,67,-1
 524 129 l 2,68,69
 524 103 524 103 543 84.5 c 128,-1,70
 562 66 562 66 588 66 c 0,71,72
 644 66 644 66 644 115 c 2,73,-1
 644 245 l 1,74,-1
 722 245 l 1,75,-1
 722 129 l 2,76,77
 722 103 722 103 741 84.5 c 128,-1,78
 760 66 760 66 787 66 c 0,79,80
 842 66 842 66 842 115 c 2,81,-1
 842 245 l 1,82,-1
 919 245 l 1,83,-1
 919 125 l 2,84,85
 919 78 919 78 1010 78 c 1,86,-1
 1010 0 l 1,35,-1
EndSplineSet
Substitution2: "Single Substitution lookup 9 subtable" uFEB6
Substitution2: "'aalt' Access All Alternates in Latin lookup 0 subtable" uFEB6
EndChar

StartChar: uFEB7
Encoding: 65207 65207 139
Width: 631
Flags: W
LayerCount: 2
Fore
SplineSet
405 457 m 0,0,1
 405 437 405 437 390 423 c 128,-1,2
 375 409 375 409 354 409 c 256,3,4
 333 409 333 409 317 423 c 0,5,6
 300 437 300 437 300 457 c 0,7,8
 300 499 300 499 350 499 c 0,9,10
 405 499 405 499 405 457 c 0,0,1
481 348 m 0,11,12
 481 326 481 326 466.5 312.5 c 128,-1,13
 452 299 452 299 431 299 c 0,14,15
 409 299 409 299 393 312.5 c 128,-1,16
 377 326 377 326 377 348 c 0,17,18
 377 388 377 388 426 388 c 0,19,20
 481 388 481 388 481 348 c 0,11,12
330 348 m 0,21,22
 330 327 330 327 315.5 313 c 128,-1,23
 301 299 301 299 281 299 c 0,24,25
 260 299 260 299 243.5 312.5 c 128,-1,26
 227 326 227 326 227 348 c 0,27,28
 227 388 227 388 277 388 c 0,29,30
 330 388 330 388 330 348 c 0,21,22
604 125 m 2,31,32
 604 69 604 69 576 32 c 0,33,34
 548 -9 548 -9 494 -9 c 0,35,36
 432 -9 432 -9 387 46 c 1,37,38
 341 -8 341 -8 291 -8 c 0,39,40
 234 -8 234 -8 185 55 c 1,41,42
 132 0 132 0 82 0 c 2,43,-1
 -18 0 l 1,44,-1
 -18 78 l 1,45,-1
 76 78 l 2,46,47
 130 78 130 78 130 135 c 2,48,-1
 130 244 l 1,49,-1
 207 245 l 1,50,-1
 207 129 l 2,51,52
 207 103 207 103 226 84.5 c 128,-1,53
 245 66 245 66 273 66 c 0,54,55
 328 66 328 66 328 115 c 2,56,-1
 328 245 l 1,57,-1
 405 245 l 1,58,-1
 405 129 l 2,59,60
 405 103 405 103 424.5 84.5 c 128,-1,61
 444 66 444 66 472 66 c 0,62,63
 526 66 526 66 526 115 c 2,64,-1
 526 245 l 1,65,-1
 604 245 l 1,66,-1
 604 125 l 2,31,32
EndSplineSet
EndChar

StartChar: uFEB8
Encoding: 65208 65208 140
Width: 677
Flags: W
LayerCount: 2
Fore
SplineSet
338 432 m 0,0,1
 314 432 314 432 299 444 c 0,2,3
 281 458 281 458 281 479 c 0,4,5
 281 521 281 521 334 521 c 0,6,7
 354 521 354 521 369 512 c 0,8,9
 387 500 387 500 387 481 c 0,10,11
 387 461 387 461 373 446.5 c 128,-1,12
 359 432 359 432 338 432 c 0,0,1
462 369 m 0,13,14
 462 349 462 349 447.5 335 c 128,-1,15
 433 321 433 321 412 321 c 0,16,17
 390 321 390 321 373.5 334.5 c 128,-1,18
 357 348 357 348 357 369 c 0,19,20
 357 411 357 411 407 411 c 0,21,22
 462 411 462 411 462 369 c 0,13,14
311 369 m 0,23,24
 311 349 311 349 296 335 c 128,-1,25
 281 321 281 321 262 321 c 0,26,27
 240 321 240 321 224 334 c 0,28,29
 206 348 206 348 206 369 c 0,30,31
 206 411 206 411 257 411 c 0,32,33
 311 411 311 411 311 369 c 0,23,24
689 0 m 1,34,-1
 659 0 l 1,35,-1
 631 5 l 2,36,37
 600 10 600 10 581 43 c 1,38,39
 545 -9 545 -9 492 -9 c 0,40,41
 437 -9 437 -9 384 46 c 1,42,43
 337 -9 337 -9 272 -9 c 0,44,45
 208 -9 208 -9 167 48 c 1,46,47
 137 13 137 13 79 5 c 0,48,49
 52 0 52 0 -21 0 c 1,50,-1
 -21 78 l 1,51,-1
 50 78 l 2,52,53
 90 78 90 78 104 88 c 0,54,55
 126 104 126 104 126 146 c 2,56,-1
 126 245 l 1,57,-1
 203 245 l 1,58,-1
 203 129 l 2,59,60
 203 102 203 102 223 84 c 0,61,62
 242 66 242 66 269 66 c 0,63,64
 322 66 322 66 322 115 c 2,65,-1
 322 245 l 1,66,-1
 399 245 l 1,67,-1
 399 129 l 2,68,69
 399 103 399 103 418.5 84.5 c 128,-1,70
 438 66 438 66 467 66 c 0,71,72
 521 66 521 66 521 115 c 2,73,-1
 521 245 l 1,74,-1
 598 245 l 1,75,-1
 598 125 l 2,76,77
 598 78 598 78 689 78 c 1,78,-1
 689 0 l 1,34,-1
EndSplineSet
EndChar

StartChar: u0635
Encoding: 1589 1589 141
AltUni2: 00feb9.ffffffff.0
Width: 986
Flags: W
LayerCount: 2
Fore
SplineSet
964 138 m 0,0,1
 964 73 964 73 927 36.5 c 128,-1,2
 890 0 890 0 826 0 c 2,3,-1
 614 0 l 2,4,5
 548 0 548 0 533 41 c 1,6,7
 533 -54 533 -54 485 -122 c 0,8,9
 430 -197 430 -197 339 -197 c 2,10,-1
 220 -197 l 2,11,12
 135 -197 135 -197 79 -133 c 0,13,14
 27 -71 27 -71 27 13 c 2,15,-1
 27 167 l 1,16,-1
 104 167 l 1,17,-1
 104 -5 l 2,18,19
 104 -49 104 -49 144 -84 c 0,20,21
 182 -117 182 -117 226 -117 c 2,22,-1
 334 -117 l 2,23,24
 380 -117 380 -117 417 -85 c 0,25,26
 455 -50 455 -50 455 -5 c 2,27,-1
 455 245 l 1,28,-1
 534 245 l 1,29,-1
 534 129 l 2,30,31
 534 80 534 80 607 78 c 1,32,33
 643 166 643 166 689 228 c 0,34,35
 755 312 755 312 826 312 c 0,36,37
 889 312 889 312 928 254 c 0,38,39
 935 244 935 244 943 229 c 0,40,41
 945 222 945 222 958 185 c 0,42,43
 964 167 964 167 964 138 c 0,0,1
889 149 m 0,44,45
 889 173 889 173 876 202 c 0,46,47
 861 234 861 234 842 234 c 0,48,49
 804 234 804 234 752 175 c 0,50,51
 711 127 711 127 689 78 c 1,52,-1
 840 78 l 2,53,54
 889 78 889 78 889 149 c 0,44,45
EndSplineSet
Substitution2: "Single Substitution lookup 9 subtable" u0635
Substitution2: "'fina' Terminal Forms in Arabic lookup 4 subtable" uFEBA
Substitution2: "'medi' Medial Forms in Arabic lookup 3 subtable" uFEBC
Substitution2: "'init' Initial Forms in Arabic lookup 2 subtable" uFEBB
AlternateSubs2: "'aalt' Access All Alternates in Latin lookup 1 subtable" uFEBB uFEBC uFEBA u0635
EndChar

StartChar: uFEBA
Encoding: 65210 65210 142
Width: 977
Flags: W
LayerCount: 2
Fore
SplineSet
990 0 m 1,0,-1
 636 0 l 2,1,2
 548 0 548 0 531 41 c 1,3,4
 531 -63 531 -63 486 -125 c 0,5,6
 435 -197 435 -197 335 -197 c 2,7,-1
 215 -197 l 2,8,9
 128 -197 128 -197 75 -134 c 0,10,11
 27 -75 27 -75 27 13 c 2,12,-1
 27 167 l 1,13,-1
 103 167 l 1,14,-1
 103 -5 l 2,15,16
 103 -52 103 -52 137.5 -85.5 c 128,-1,17
 172 -119 172 -119 222 -119 c 2,18,-1
 330 -119 l 2,19,20
 376 -119 376 -119 414 -84.5 c 128,-1,21
 452 -50 452 -50 452 -5 c 2,22,-1
 452 245 l 1,23,-1
 531 245 l 1,24,-1
 531 129 l 2,25,26
 531 78 531 78 605 78 c 1,27,28
 698 312 698 312 820 312 c 0,29,30
 900 312 900 312 940 234 c 0,31,32
 958 200 958 200 958 146 c 0,33,34
 958 116 958 116 946 78 c 1,35,-1
 990 78 l 1,36,-1
 990 0 l 1,0,-1
879 156 m 0,37,38
 879 233 879 233 832 233 c 0,39,40
 765 233 765 233 686 78 c 1,41,-1
 835 78 l 2,42,43
 879 78 879 78 879 156 c 0,37,38
EndSplineSet
Substitution2: "Single Substitution lookup 9 subtable" uFEBA
Substitution2: "'aalt' Access All Alternates in Latin lookup 0 subtable" uFEBA
EndChar

StartChar: uFEBB
Encoding: 65211 65211 143
Width: 671
Flags: W
LayerCount: 2
Fore
SplineSet
629 150 m 0,0,1
 629 118 629 118 618 83 c 0,2,3
 604 29 604 29 572 13 c 0,4,5
 548 0 548 0 492 0 c 2,6,-1
 294 0 l 2,7,8
 213 0 213 0 183 63 c 1,9,10
 136 0 136 0 77 0 c 2,11,-1
 -18 0 l 1,12,-1
 -18 78 l 1,13,-1
 69 78 l 2,14,15
 124 78 124 78 124 136 c 2,16,-1
 124 245 l 1,17,-1
 202 245 l 1,18,-1
 202 145 l 2,19,20
 202 78 202 78 277 78 c 1,21,22
 367 312 367 312 492 312 c 0,23,24
 521 312 521 312 553 294 c 0,25,26
 629 251 629 251 629 150 c 0,0,1
551 153 m 0,27,28
 551 206 551 206 526 226 c 0,29,30
 517 233 517 233 503 233 c 0,31,32
 435 233 435 233 354 78 c 1,33,-1
 507 78 l 2,34,35
 551 78 551 78 551 153 c 0,27,28
EndSplineSet
EndChar

StartChar: uFEBC
Encoding: 65212 65212 144
Width: 677
Flags: W
LayerCount: 2
Fore
SplineSet
689 0 m 1,0,-1
 294 0 l 2,1,2
 213 0 213 0 183 63 c 1,3,4
 136 0 136 0 77 0 c 2,5,-1
 -18 0 l 1,6,-1
 -18 78 l 1,7,-1
 69 78 l 2,8,9
 124 78 124 78 124 136 c 2,10,-1
 124 245 l 1,11,-1
 202 245 l 1,12,-1
 202 145 l 2,13,14
 202 78 202 78 277 78 c 1,15,16
 367 312 367 312 492 312 c 0,17,18
 523 312 523 312 554 294 c 0,19,20
 629 250 629 250 629 150 c 0,21,22
 629 121 629 121 616 78 c 1,23,-1
 689 78 l 1,24,-1
 689 0 l 1,0,-1
551 153 m 0,25,26
 551 206 551 206 526 226 c 0,27,28
 517 233 517 233 503 233 c 0,29,30
 435 233 435 233 354 78 c 1,31,-1
 507 78 l 2,32,33
 551 78 551 78 551 153 c 0,25,26
EndSplineSet
EndChar

StartChar: u0636
Encoding: 1590 1590 145
AltUni2: 00febd.ffffffff.0
Width: 986
Flags: W
LayerCount: 2
Fore
SplineSet
814 456 m 0,0,1
 814 435 814 435 798.5 418.5 c 128,-1,2
 783 402 783 402 761 402 c 0,3,4
 702 402 702 402 702 456 c 0,5,6
 702 503 702 503 759 503 c 0,7,8
 814 503 814 503 814 456 c 0,0,1
964 138 m 256,9,10
 964 73 964 73 927.5 36.5 c 128,-1,11
 891 0 891 0 826 0 c 2,12,-1
 614 0 l 2,13,14
 545 0 545 0 533 41 c 1,15,16
 533 -53 533 -53 483 -121 c 0,17,18
 428 -197 428 -197 339 -197 c 2,19,-1
 220 -197 l 2,20,21
 134 -197 134 -197 79 -133 c 0,22,23
 27 -72 27 -72 27 13 c 2,24,-1
 27 167 l 1,25,-1
 104 167 l 1,26,-1
 104 -5 l 2,27,28
 104 -50 104 -50 143 -84 c 0,29,30
 181 -117 181 -117 226 -117 c 2,31,-1
 334 -117 l 2,32,33
 377 -117 377 -117 416 -82.5 c 128,-1,34
 455 -48 455 -48 455 -5 c 2,35,-1
 455 245 l 1,36,-1
 534 245 l 1,37,-1
 534 129 l 2,38,39
 534 78 534 78 609 78 c 1,40,41
 706 312 706 312 827 312 c 0,42,43
 889 312 889 312 929 254 c 0,44,45
 964 203 964 203 964 138 c 256,9,10
890 147 m 0,46,47
 890 173 890 173 879 201 c 0,48,49
 863 234 863 234 842 234 c 0,50,51
 804 234 804 234 752 175 c 0,52,53
 710 126 710 126 689 78 c 1,54,-1
 841 78 l 2,55,56
 890 78 890 78 890 147 c 0,46,47
EndSplineSet
Substitution2: "Single Substitution lookup 9 subtable" u0636
Substitution2: "'fina' Terminal Forms in Arabic lookup 4 subtable" uFEBE
Substitution2: "'medi' Medial Forms in Arabic lookup 3 subtable" uFEC0
Substitution2: "'init' Initial Forms in Arabic lookup 2 subtable" uFEBF
AlternateSubs2: "'aalt' Access All Alternates in Latin lookup 1 subtable" uFEBF uFEC0 uFEBE u0636
EndChar

StartChar: uFEBE
Encoding: 65214 65214 146
Width: 977
Flags: W
LayerCount: 2
Fore
SplineSet
808 450 m 0,0,1
 808 428 808 428 792 412.5 c 128,-1,2
 776 397 776 397 754 397 c 0,3,4
 694 397 694 397 694 450 c 0,5,6
 694 497 694 497 751 497 c 256,7,8
 808 497 808 497 808 450 c 0,0,1
990 0 m 1,9,-1
 635 0 l 2,10,11
 543 0 543 0 531 41 c 1,12,13
 529 -63 529 -63 485 -125 c 0,14,15
 434 -197 434 -197 334 -197 c 2,16,-1
 214 -197 l 2,17,18
 129 -197 129 -197 75 -133 c 0,19,20
 26 -73 26 -73 26 13 c 2,21,-1
 26 167 l 1,22,-1
 102 167 l 1,23,-1
 102 -5 l 2,24,25
 102 -51 102 -51 137.5 -85 c 128,-1,26
 173 -119 173 -119 220 -119 c 2,27,-1
 329 -119 l 2,28,29
 373 -119 373 -119 412 -83.5 c 128,-1,30
 451 -48 451 -48 451 -5 c 2,31,-1
 451 245 l 1,32,-1
 529 245 l 1,33,-1
 529 129 l 2,34,35
 529 78 529 78 604 78 c 1,36,37
 701 312 701 312 819 312 c 0,38,39
 849 312 849 312 882 294 c 0,40,41
 957 251 957 251 957 148 c 0,42,43
 957 111 957 111 944 78 c 1,44,-1
 990 78 l 1,45,-1
 990 0 l 1,9,-1
878 153 m 0,46,47
 878 233 878 233 830 233 c 0,48,49
 793 233 793 233 744 173 c 0,50,51
 706 128 706 128 686 78 c 1,52,-1
 834 78 l 2,53,54
 878 78 878 78 878 153 c 0,46,47
EndSplineSet
Substitution2: "Single Substitution lookup 9 subtable" uFEBE
Substitution2: "'aalt' Access All Alternates in Latin lookup 0 subtable" uFEBE
EndChar

StartChar: uFEBF
Encoding: 65215 65215 147
Width: 671
Flags: W
LayerCount: 2
Fore
SplineSet
444 462 m 0,0,1
 444 438 444 438 427.5 422.5 c 128,-1,2
 411 407 411 407 389 407 c 0,3,4
 331 407 331 407 331 462 c 0,5,6
 331 508 331 508 387 508 c 0,7,8
 444 508 444 508 444 462 c 0,0,1
629 151 m 0,9,10
 629 118 629 118 618 83 c 0,11,12
 604 29 604 29 572 13 c 0,13,14
 549 0 549 0 492 0 c 2,15,-1
 294 0 l 2,16,17
 216 0 216 0 183 63 c 1,18,19
 136 0 136 0 76 0 c 2,20,-1
 -18 0 l 1,21,-1
 -18 78 l 1,22,-1
 69 78 l 2,23,24
 124 78 124 78 124 135 c 2,25,-1
 124 244 l 1,26,-1
 202 245 l 1,27,-1
 202 145 l 2,28,29
 202 78 202 78 277 78 c 1,30,31
 374 312 374 312 494 312 c 0,32,33
 524 312 524 312 554 294 c 0,34,35
 629 249 629 249 629 151 c 0,9,10
503 233 m 0,36,37
 464 233 464 233 415 174 c 0,38,39
 378 129 378 129 354 78 c 1,40,-1
 506 78 l 2,41,42
 549 78 549 78 549 150 c 0,43,44
 549 233 549 233 503 233 c 0,36,37
EndSplineSet
EndChar

StartChar: uFEC0
Encoding: 65216 65216 148
Width: 677
Flags: W
LayerCount: 2
Fore
SplineSet
446 463 m 0,0,1
 446 440 446 440 429.5 424.5 c 128,-1,2
 413 409 413 409 391 409 c 0,3,4
 332 409 332 409 332 463 c 0,5,6
 332 510 332 510 388 510 c 0,7,8
 446 510 446 510 446 463 c 0,0,1
689 0 m 1,9,-1
 294 0 l 2,10,11
 216 0 216 0 183 63 c 1,12,13
 136 0 136 0 76 0 c 2,14,-1
 -18 0 l 1,15,-1
 -18 78 l 1,16,-1
 69 78 l 2,17,18
 124 78 124 78 124 135 c 2,19,-1
 124 244 l 1,20,-1
 202 245 l 1,21,-1
 202 145 l 2,22,23
 202 78 202 78 277 78 c 1,24,25
 374 312 374 312 494 312 c 0,26,27
 525 312 525 312 554 294 c 0,28,29
 627 248 627 248 627 150 c 0,30,31
 627 113 627 113 615 78 c 1,32,-1
 689 78 l 1,33,-1
 689 0 l 1,9,-1
503 233 m 0,34,35
 464 233 464 233 415 174 c 0,36,37
 378 129 378 129 354 78 c 1,38,-1
 506 78 l 2,39,40
 549 78 549 78 549 150 c 0,41,42
 549 233 549 233 503 233 c 0,34,35
EndSplineSet
EndChar

StartChar: u0637
Encoding: 1591 1591 149
AltUni2: 00fec1.ffffffff.0
Width: 457
Flags: W
LayerCount: 2
Fore
SplineSet
431 139 m 0,0,1
 431 81 431 81 397 42 c 0,2,3
 363 0 363 0 306 0 c 2,4,-1
 35 0 l 1,5,-1
 20 78 l 1,6,-1
 85 78 l 1,7,-1
 85 500 l 1,8,-1
 161 500 l 1,9,-1
 161 223 l 1,10,11
 235 312 235 312 296 312 c 0,12,13
 356 312 356 312 396 254 c 0,14,15
 431 203 431 203 431 139 c 0,0,1
351 160 m 0,16,17
 351 233 351 233 304 233 c 0,18,19
 265 233 265 233 216 173 c 0,20,21
 180 129 180 129 155 78 c 1,22,-1
 306 78 l 2,23,24
 325 78 325 78 340 103 c 0,25,26
 351 120 351 120 351 160 c 0,16,17
EndSplineSet
Substitution2: "'fina' Terminal Forms in Arabic lookup 4 subtable" uFEC2
Substitution2: "'medi' Medial Forms in Arabic lookup 3 subtable" uFEC4
Substitution2: "'init' Initial Forms in Arabic lookup 2 subtable" uFEC3
AlternateSubs2: "'aalt' Access All Alternates in Latin lookup 1 subtable" uFEC3 uFEC4 uFEC2
EndChar

StartChar: uFEC2
Encoding: 65218 65218 150
Width: 452
Flags: W
LayerCount: 2
Fore
SplineSet
460 0 m 1,0,-1
 32 0 l 1,1,-1
 18 78 l 1,2,-1
 85 78 l 1,3,-1
 85 500 l 1,4,-1
 161 500 l 1,5,-1
 161 223 l 1,6,7
 234 312 234 312 296 312 c 0,8,9
 320 312 320 312 354 294 c 0,10,11
 429 252 429 252 429 135 c 0,12,13
 429 109 429 109 418 78 c 1,14,-1
 460 78 l 1,15,-1
 460 0 l 1,0,-1
351 160 m 0,16,17
 351 233 351 233 304 233 c 0,18,19
 265 233 265 233 216 173 c 0,20,21
 180 129 180 129 155 78 c 1,22,-1
 306 78 l 2,23,24
 325 78 325 78 340 103 c 0,25,26
 351 120 351 120 351 160 c 0,16,17
EndSplineSet
EndChar

StartChar: uFEC3
Encoding: 65219 65219 151
Width: 427
Flags: W
LayerCount: 2
Fore
SplineSet
272 0 m 2,0,-1
 -16 0 l 1,1,-1
 -16 78 l 1,2,-1
 51 78 l 1,3,-1
 51 500 l 1,4,-1
 129 500 l 1,5,-1
 129 223 l 1,6,7
 204 311 204 311 263 311 c 0,8,9
 323 311 323 311 362 258 c 0,10,11
 397 208 397 208 397 146 c 0,12,13
 397 83 397 83 367 44 c 0,14,15
 334 0 334 0 272 0 c 2,0,-1
269 232 m 0,16,17
 230 232 230 232 182 173 c 0,18,19
 142 126 142 126 121 77 c 1,20,-1
 272 77 l 2,21,22
 318 77 318 77 318 148 c 0,23,24
 318 232 318 232 269 232 c 0,16,17
EndSplineSet
EndChar

StartChar: uFEC4
Encoding: 65220 65220 152
Width: 411
Flags: W
LayerCount: 2
Fore
SplineSet
419 0 m 1,0,-1
 -21 0 l 1,1,-1
 -21 78 l 1,2,-1
 35 78 l 1,3,-1
 35 500 l 1,4,-1
 110 500 l 1,5,-1
 110 223 l 1,6,7
 186 312 186 312 247 312 c 0,8,9
 272 312 272 312 305 294 c 0,10,11
 378 253 378 253 378 147 c 0,12,13
 378 106 378 106 367 78 c 1,14,-1
 419 78 l 1,15,-1
 419 0 l 1,0,-1
302 160 m 0,16,17
 302 233 302 233 255 233 c 0,18,19
 217 233 217 233 167 173 c 0,20,21
 129 129 129 129 106 78 c 1,22,-1
 258 78 l 2,23,24
 276 78 276 78 291 103 c 0,25,26
 302 120 302 120 302 160 c 0,16,17
EndSplineSet
EndChar

StartChar: u0638
Encoding: 1592 1592 153
AltUni2: 00fec5.ffffffff.0
Width: 457
Flags: W
LayerCount: 2
Fore
SplineSet
363 457 m 0,0,1
 363 435 363 435 347.5 418.5 c 128,-1,2
 332 402 332 402 310 402 c 0,3,4
 249 402 249 402 249 457 c 0,5,6
 249 505 249 505 308 505 c 0,7,8
 363 505 363 505 363 457 c 0,0,1
305 0 m 2,9,-1
 34 0 l 1,10,-1
 19 78 l 1,11,-1
 85 78 l 1,12,-1
 85 500 l 1,13,-1
 161 500 l 1,14,-1
 161 223 l 1,15,16
 232 312 232 312 295 312 c 0,17,18
 354 312 354 312 394 257 c 0,19,20
 430 206 430 206 430 146 c 0,21,22
 430 84 430 84 398 44 c 0,23,24
 365 0 365 0 305 0 c 2,9,-1
350 155 m 0,25,26
 350 233 350 233 303 233 c 0,27,28
 265 233 265 233 215 174 c 0,29,30
 175 127 175 127 154 78 c 1,31,-1
 305 78 l 2,32,33
 350 78 350 78 350 155 c 0,25,26
EndSplineSet
Substitution2: "'fina' Terminal Forms in Arabic lookup 4 subtable" uFEC6
Substitution2: "'medi' Medial Forms in Arabic lookup 3 subtable" uFEC8
Substitution2: "'init' Initial Forms in Arabic lookup 2 subtable" uFEC7
AlternateSubs2: "'aalt' Access All Alternates in Latin lookup 1 subtable" uFEC7 uFEC8 uFEC6
EndChar

StartChar: uFEC6
Encoding: 65222 65222 154
Width: 452
Flags: W
LayerCount: 2
Fore
SplineSet
359 456 m 0,0,1
 359 435 359 435 343 418.5 c 128,-1,2
 327 402 327 402 306 402 c 0,3,4
 247 402 247 402 247 456 c 0,5,6
 247 503 247 503 303 503 c 256,7,8
 359 503 359 503 359 456 c 0,0,1
460 0 m 1,9,-1
 31 0 l 1,10,-1
 18 78 l 1,11,-1
 85 78 l 1,12,-1
 85 500 l 1,13,-1
 161 500 l 1,14,-1
 161 223 l 1,15,16
 232 312 232 312 295 312 c 0,17,18
 322 312 322 312 353 294 c 0,19,20
 429 248 429 248 429 163 c 0,21,22
 429 110 429 110 417 78 c 1,23,-1
 460 78 l 1,24,-1
 460 0 l 1,9,-1
350 155 m 0,25,26
 350 233 350 233 303 233 c 0,27,28
 265 233 265 233 215 174 c 0,29,30
 175 127 175 127 154 78 c 1,31,-1
 305 78 l 2,32,33
 350 78 350 78 350 155 c 0,25,26
EndSplineSet
EndChar

StartChar: uFEC7
Encoding: 65223 65223 155
Width: 427
Flags: W
LayerCount: 2
Fore
SplineSet
322 449 m 0,0,1
 322 427 322 427 306.5 411 c 128,-1,2
 291 395 291 395 268 395 c 0,3,4
 209 395 209 395 209 449 c 0,5,6
 209 495 209 495 266 495 c 0,7,8
 322 495 322 495 322 449 c 0,0,1
272 0 m 2,9,-1
 -16 0 l 1,10,-1
 -16 78 l 1,11,-1
 51 78 l 1,12,-1
 51 500 l 1,13,-1
 129 500 l 1,14,-1
 129 223 l 1,15,16
 204 311 204 311 263 311 c 0,17,18
 323 311 323 311 362 258 c 0,19,20
 397 208 397 208 397 146 c 0,21,22
 397 83 397 83 367 44 c 0,23,24
 334 0 334 0 272 0 c 2,9,-1
269 232 m 0,25,26
 230 232 230 232 182 173 c 0,27,28
 142 126 142 126 121 77 c 1,29,-1
 272 77 l 2,30,31
 318 77 318 77 318 148 c 0,32,33
 318 232 318 232 269 232 c 0,25,26
EndSplineSet
EndChar

StartChar: uFEC8
Encoding: 65224 65224 156
Width: 411
Flags: W
LayerCount: 2
Fore
SplineSet
327 463 m 0,0,1
 327 440 327 440 311 423.5 c 128,-1,2
 295 407 295 407 272 407 c 0,3,4
 213 407 213 407 213 463 c 0,5,6
 213 509 213 509 269 509 c 0,7,8
 327 509 327 509 327 463 c 0,0,1
419 0 m 1,9,-1
 -22 0 l 1,10,-1
 -21 78 l 1,11,-1
 35 78 l 1,12,-1
 35 500 l 1,13,-1
 110 500 l 1,14,-1
 110 223 l 1,15,16
 183 312 183 312 246 312 c 0,17,18
 275 312 275 312 304 294 c 0,19,20
 378 247 378 247 378 163 c 0,21,22
 378 111 378 111 367 78 c 1,23,-1
 419 78 l 1,24,-1
 419 0 l 1,9,-1
301 155 m 0,25,26
 301 233 301 233 254 233 c 0,27,28
 216 233 216 233 166 174 c 0,29,30
 126 127 126 127 105 78 c 1,31,-1
 256 78 l 2,32,33
 301 78 301 78 301 155 c 0,25,26
EndSplineSet
EndChar

StartChar: u0639
Encoding: 1593 1593 157
AltUni2: 00fec9.ffffffff.0
Width: 473
Flags: W
LayerCount: 2
Fore
SplineSet
462 -377 m 1,0,-1
 258 -377 l 2,1,2
 149 -377 149 -377 77 -311 c 0,3,4
 3 -243 3 -243 3 -137 c 0,5,6
 3 11 3 11 167 85 c 1,7,8
 142 130 142 130 142 178 c 0,9,10
 142 243 142 243 187 279 c 0,11,12
 228 312 228 312 295 312 c 0,13,14
 353 312 353 312 423 253 c 1,15,-1
 387 193 l 1,16,17
 320 239 320 239 279 239 c 0,18,19
 235 239 235 239 224 196 c 0,20,21
 224 195 224 195 222.5 189.5 c 128,-1,22
 221 184 221 184 220 180 c 2,23,-1
 220 166 l 2,24,25
 220 134 220 134 235 108 c 0,26,27
 254 78 254 78 283 78 c 2,28,-1
 438 78 l 1,29,-1
 449 0 l 1,30,-1
 190 0 l 2,31,32
 139 0 139 0 108 -44 c 0,33,34
 82 -83 82 -83 82 -138 c 0,35,36
 82 -209 82 -209 125.5 -254.5 c 128,-1,37
 169 -300 169 -300 240 -300 c 2,38,-1
 451 -300 l 1,39,-1
 462 -377 l 1,0,-1
EndSplineSet
Substitution2: "'fina' Terminal Forms in Arabic lookup 4 subtable" uFECA
Substitution2: "'medi' Medial Forms in Arabic lookup 3 subtable" uFECC
Substitution2: "'init' Initial Forms in Arabic lookup 2 subtable" uFECB
AlternateSubs2: "'aalt' Access All Alternates in Latin lookup 1 subtable" uFECB uFECC uFECA
EndChar

StartChar: uFECA
Encoding: 65226 65226 158
Width: 483
Flags: W
LayerCount: 2
Fore
SplineSet
500 0 m 1,0,1
 421 0 421 0 386 7 c 0,2,3
 319 19 319 19 284 58 c 1,4,5
 97 -21 97 -21 97 -141 c 0,6,7
 97 -200 97 -200 148 -253 c 0,8,9
 196 -300 196 -300 255 -300 c 2,10,-1
 482 -300 l 1,11,-1
 490 -377 l 1,12,-1
 275 -377 l 2,13,14
 171 -377 171 -377 96.5 -306 c 128,-1,15
 22 -235 22 -235 22 -131 c 0,16,17
 22 23 22 23 227 110 c 1,18,-1
 123 213 l 1,19,20
 148 259 148 259 176 312 c 1,21,-1
 342 312 l 2,22,23
 423 312 423 312 445 255 c 0,24,25
 452 237 452 237 452 226 c 0,26,27
 452 178 452 178 425 145 c 0,28,29
 404 121 404 121 353 92 c 1,30,31
 388 78 388 78 500 78 c 1,32,-1
 500 0 l 1,0,1
373 213 m 0,33,34
 373 224 373 224 359 230 c 0,35,36
 348 236 348 236 335 236 c 2,37,-1
 212 236 l 1,38,-1
 299 146 l 1,39,40
 373 187 373 187 373 213 c 0,33,34
EndSplineSet
EndChar

StartChar: uFECB
Encoding: 65227 65227 159
Width: 392
Flags: W
LayerCount: 2
Fore
SplineSet
375 0 m 1,0,-1
 -18 0 l 1,1,-1
 -18 78 l 1,2,-1
 93 78 l 1,3,4
 69 134 69 134 69 179 c 0,5,6
 69 223 69 223 95 257.5 c 128,-1,7
 121 292 121 292 163 304 c 0,8,9
 191 312 191 312 229 312 c 0,10,11
 290 312 290 312 348 254 c 1,12,-1
 310 193 l 1,13,14
 248 241 248 241 205 241 c 0,15,16
 144 241 144 241 144 165 c 0,17,18
 144 132 144 132 159 107 c 0,19,20
 177 78 177 78 207 78 c 2,21,-1
 362 78 l 1,22,-1
 375 0 l 1,0,-1
EndSplineSet
EndChar

StartChar: uFECC
Encoding: 65228 65228 160
Width: 360
Flags: W
LayerCount: 2
Fore
SplineSet
373 0 m 1,0,1
 301 0 301 0 271 9 c 0,2,3
 230 18 230 18 183 57 c 1,4,5
 133 17 133 17 85 5 c 0,6,7
 73 2 73 2 -19 0 c 1,8,-1
 -19 78 l 1,9,10
 90 78 90 78 118 106 c 1,11,-1
 10 213 l 1,12,13
 35 259 35 259 62 312 c 1,14,-1
 229 312 l 2,15,16
 310 312 310 312 332 256 c 0,17,18
 339 237 339 237 339 226 c 0,19,20
 339 178 339 178 312 147 c 0,21,22
 296 128 296 128 245 96 c 1,23,24
 291 78 291 78 373 78 c 1,25,-1
 373 0 l 1,0,1
254 212 m 0,26,27
 254 223 254 223 241 229 c 0,28,29
 229 236 229 236 219 236 c 2,30,-1
 93 236 l 1,31,-1
 180 146 l 1,32,33
 254 185 254 185 254 212 c 0,26,27
EndSplineSet
EndChar

StartChar: u063A
Encoding: 1594 1594 161
AltUni2: 00fecd.ffffffff.0
Width: 473
Flags: W
LayerCount: 2
Fore
SplineSet
358 456 m 0,0,1
 358 433 358 433 342.5 416.5 c 128,-1,2
 327 400 327 400 304 400 c 0,3,4
 245 400 245 400 245 456 c 0,5,6
 245 502 245 502 302 502 c 0,7,8
 358 502 358 502 358 456 c 0,0,1
462 -377 m 1,9,-1
 258 -377 l 2,10,11
 150 -377 150 -377 78 -310 c 0,12,13
 3 -241 3 -241 3 -137 c 0,14,15
 3 10 3 10 167 85 c 1,16,17
 141 133 141 133 141 171 c 0,18,19
 141 235 141 235 180.5 273.5 c 128,-1,20
 220 312 220 312 282 312 c 0,21,22
 354 312 354 312 423 253 c 1,23,-1
 386 193 l 1,24,25
 321 239 321 239 279 239 c 0,26,27
 219 239 219 239 219 168 c 0,28,29
 219 133 219 133 232 108 c 0,30,31
 250 78 250 78 282 78 c 2,32,-1
 437 78 l 1,33,-1
 448 0 l 1,34,-1
 189 0 l 2,35,36
 138 0 138 0 108 -45 c 0,37,38
 82 -84 82 -84 82 -138 c 0,39,40
 82 -209 82 -209 124 -254.5 c 128,-1,41
 166 -300 166 -300 239 -300 c 2,42,-1
 450 -300 l 1,43,-1
 462 -377 l 1,9,-1
EndSplineSet
Substitution2: "'fina' Terminal Forms in Arabic lookup 4 subtable" uFECE
Substitution2: "'medi' Medial Forms in Arabic lookup 3 subtable" uFED0
Substitution2: "'init' Initial Forms in Arabic lookup 2 subtable" uFECF
AlternateSubs2: "'aalt' Access All Alternates in Latin lookup 1 subtable" uFECF uFED0 uFECE
EndChar

StartChar: uFECE
Encoding: 65230 65230 162
Width: 483
Flags: W
LayerCount: 2
Fore
SplineSet
363 453 m 0,0,1
 363 430 363 430 347.5 414 c 128,-1,2
 332 398 332 398 310 398 c 0,3,4
 249 398 249 398 249 453 c 0,5,6
 249 499 249 499 308 499 c 0,7,8
 363 499 363 499 363 453 c 0,0,1
501 78 m 1,9,-1
 500 0 l 1,10,-1
 430 2 l 2,11,12
 331 6 331 6 283 58 c 1,13,14
 96 -26 96 -26 96 -141 c 0,15,16
 96 -202 96 -202 144 -251 c 128,-1,17
 192 -300 192 -300 254 -300 c 2,18,-1
 482 -300 l 1,19,-1
 490 -377 l 1,20,-1
 275 -377 l 2,21,22
 170 -377 170 -377 97 -308 c 0,23,24
 22 -238 22 -238 22 -134 c 0,25,26
 22 29 22 29 227 110 c 1,27,-1
 123 213 l 1,28,29
 148 259 148 259 176 312 c 1,30,-1
 342 312 l 2,31,32
 426 312 426 312 446 255 c 0,33,34
 452 239 452 239 452 226 c 256,35,36
 452 213 452 213 448 187 c 0,37,38
 442 144 442 144 354 92 c 1,39,40
 392 78 392 78 501 78 c 1,9,-1
373 214 m 1,41,-1
 369 224 l 1,42,43
 355 236 355 236 335 236 c 2,44,-1
 212 236 l 1,45,-1
 299 146 l 1,46,47
 373 186 373 186 373 214 c 1,41,-1
EndSplineSet
Substitution2: "Single Substitution lookup 9 subtable" uFECE
Substitution2: "'aalt' Access All Alternates in Latin lookup 0 subtable" uFECE
EndChar

StartChar: uFECF
Encoding: 65231 65231 163
Width: 392
Flags: W
LayerCount: 2
Fore
SplineSet
260 451 m 0,0,1
 260 429 260 429 244 413 c 128,-1,2
 228 397 228 397 205 397 c 0,3,4
 146 397 146 397 146 451 c 0,5,6
 146 498 146 498 203 498 c 256,7,8
 260 498 260 498 260 451 c 0,0,1
375 0 m 1,9,-1
 -18 0 l 1,10,-1
 -18 78 l 1,11,-1
 93 78 l 1,12,13
 68 129 68 129 68 174 c 0,14,15
 68 236 68 236 108 274 c 128,-1,16
 148 312 148 312 210 312 c 0,17,18
 287 312 287 312 348 254 c 1,19,-1
 310 193 l 1,20,21
 245 241 245 241 206 241 c 0,22,23
 144 241 144 241 144 167 c 0,24,25
 144 133 144 133 158 108 c 0,26,27
 176 78 176 78 207 78 c 2,28,-1
 362 78 l 1,29,-1
 375 0 l 1,9,-1
EndSplineSet
EndChar

StartChar: uFED0
Encoding: 65232 65232 164
Width: 360
Flags: W
LayerCount: 2
Fore
SplineSet
219 463 m 0,0,1
 219 440 219 440 202.5 424.5 c 128,-1,2
 186 409 186 409 164 409 c 0,3,4
 105 409 105 409 105 463 c 0,5,6
 105 510 105 510 161 510 c 0,7,8
 219 510 219 510 219 463 c 0,0,1
373 0 m 1,9,10
 307 0 307 0 272 9 c 0,11,12
 229 20 229 20 183 57 c 1,13,14
 120 6 120 6 62 1 c 0,15,16
 48 0 48 0 27 0 c 2,17,-1
 -20 0 l 1,18,-1
 -19 78 l 1,19,20
 91 80 91 80 118 106 c 1,21,22
 49 177 49 177 10 213 c 1,23,24
 38 263 38 263 62 312 c 1,25,-1
 229 312 l 2,26,27
 312 312 312 312 334 256 c 0,28,29
 341 237 341 237 341 226 c 0,30,31
 341 219 341 219 338 187 c 0,32,33
 332 146 332 146 246 96 c 1,34,35
 296 78 296 78 373 78 c 1,36,-1
 373 0 l 1,9,10
254 212 m 1,37,-1
 249 224 l 2,38,39
 245 236 245 236 219 236 c 2,40,-1
 93 236 l 1,41,-1
 180 146 l 1,42,43
 254 186 254 186 254 212 c 1,37,-1
EndSplineSet
EndChar

StartChar: u0641
Encoding: 1601 1601 165
AltUni2: 00fed1.ffffffff.0
Width: 696
Flags: W
LayerCount: 2
Fore
SplineSet
578 467 m 0,0,1
 578 444 578 444 562.5 428.5 c 128,-1,2
 547 413 547 413 524 413 c 0,3,4
 466 413 466 413 466 467 c 0,5,6
 466 514 466 514 521 514 c 0,7,8
 578 514 578 514 578 467 c 0,0,1
666 137 m 0,9,10
 666 81 666 81 634 42 c 0,11,12
 601 0 601 0 546 0 c 2,13,-1
 139 0 l 2,14,15
 89 0 89 0 57 39 c 0,16,17
 28 75 28 75 28 127 c 2,18,-1
 28 245 l 1,19,-1
 105 245 l 1,20,-1
 105 138 l 2,21,22
 105 104 105 104 117.5 91 c 128,-1,23
 130 78 130 78 163 78 c 2,24,-1
 536 78 l 2,25,26
 572 78 572 78 581 91 c 0,27,28
 586 98 586 98 592 137 c 1,29,30
 481 137 481 137 453 146 c 0,31,32
 390 169 390 169 390 254 c 0,33,34
 390 312 390 312 429 346 c 0,35,36
 466 377 466 377 524 377 c 0,37,38
 586 377 586 377 626 333 c 0,39,40
 664 292 664 292 665 229 c 128,-1,41
 666 166 666 166 666 137 c 0,9,10
590 209 m 1,42,43
 590 247 590 247 570 271 c 0,44,45
 550 300 550 300 514 300 c 0,46,47
 456 300 456 300 456 248 c 0,48,49
 456 210 456 210 517 209 c 0,50,51
 534 209 534 209 590 209 c 1,42,43
EndSplineSet
Substitution2: "'fina' Terminal Forms in Arabic lookup 4 subtable" uFED2
Substitution2: "'medi' Medial Forms in Arabic lookup 3 subtable" uFED4
Substitution2: "'init' Initial Forms in Arabic lookup 2 subtable" uFED3
AlternateSubs2: "'aalt' Access All Alternates in Latin lookup 1 subtable" uFED3 uFED4 uFED2
EndChar

StartChar: uFED2
Encoding: 65234 65234 166
Width: 702
Flags: W
LayerCount: 2
Fore
SplineSet
590 457 m 0,0,1
 590 435 590 435 574 418.5 c 128,-1,2
 558 402 558 402 535 402 c 0,3,4
 476 402 476 402 476 457 c 0,5,6
 476 503 476 503 533 503 c 256,7,8
 590 503 590 503 590 457 c 0,0,1
712 0 m 1,9,10
 576 0 576 0 545 18 c 1,11,12
 533 1 533 1 396 1 c 0,13,14
 377 1 377 1 266 0 c 2,15,-1
 136 0 l 2,16,17
 89 0 89 0 59 41 c 0,18,19
 31 78 31 78 31 127 c 2,20,-1
 31 245 l 1,21,-1
 110 245 l 1,22,-1
 110 138 l 2,23,24
 110 78 110 78 168 78 c 2,25,-1
 438 78 l 1,26,27
 395 127 395 127 395 185 c 256,28,29
 395 243 395 243 437 278 c 0,30,31
 477 312 477 312 535 312 c 0,32,33
 596 312 596 312 631 268 c 0,34,35
 666 229 666 229 666 167 c 0,36,37
 666 118 666 118 637 78 c 1,38,-1
 712 78 l 1,39,-1
 712 0 l 1,9,10
594 167 m 0,40,41
 594 195 594 195 575 215.5 c 128,-1,42
 556 236 556 236 528 236 c 0,43,44
 505 236 505 236 486.5 219 c 128,-1,45
 468 202 468 202 468 178 c 0,46,47
 468 132 468 132 547 95 c 1,48,49
 594 124 594 124 594 167 c 0,40,41
EndSplineSet
EndChar

StartChar: uFED3
Encoding: 65235 65235 167
Width: 397
Flags: W
LayerCount: 2
Fore
SplineSet
248 476 m 0,0,1
 248 454 248 454 232 438 c 128,-1,2
 216 422 216 422 193 422 c 0,3,4
 136 422 136 422 136 476 c 0,5,6
 136 522 136 522 190 522 c 0,7,8
 248 522 248 522 248 476 c 0,0,1
348 123 m 2,9,10
 350 72 350 72 310 35 c 0,11,12
 271 0 271 0 222 0 c 2,13,-1
 -13 0 l 1,14,-1
 -13 78 l 1,15,-1
 223 78 l 2,16,17
 265 78 265 78 265 136 c 1,18,19
 203 137 203 137 127 144 c 1,20,21
 62 167 62 167 62 249 c 0,22,23
 62 307 62 307 97.5 342 c 128,-1,24
 133 377 133 377 189 377 c 0,25,26
 237 377 237 377 275 352 c 0,27,28
 338 312 338 312 342 222 c 2,29,-1
 348 123 l 2,9,10
260 209 m 1,30,31
 257 296 257 296 187 296 c 0,32,33
 135 296 135 296 135 255 c 0,34,35
 135 223 135 223 154 214 c 0,36,37
 163 210 163 210 203 210 c 2,38,-1
 260 209 l 1,30,31
EndSplineSet
EndChar

StartChar: uFED4
Encoding: 65236 65236 168
Width: 371
Flags: W
LayerCount: 2
Fore
SplineSet
241 451 m 0,0,1
 241 429 241 429 225 413 c 128,-1,2
 209 397 209 397 187 397 c 0,3,4
 129 397 129 397 129 451 c 0,5,6
 129 498 129 498 185 498 c 256,7,8
 241 498 241 498 241 451 c 0,0,1
392 0 m 1,9,10
 384 2 384 2 347 2 c 2,11,-1
 269 4 l 2,12,13
 229 4 229 4 194 21 c 1,14,15
 159 0 159 0 -28 0 c 1,16,-1
 -28 78 l 1,17,-1
 88 78 l 1,18,19
 46 126 46 126 46 182 c 0,20,21
 46 243 46 243 85 277 c 0,22,23
 123 312 123 312 186 312 c 0,24,25
 243 312 243 312 280 271 c 0,26,27
 315 231 315 231 315 172 c 0,28,29
 315 118 315 118 288 78 c 1,30,-1
 392 78 l 1,31,-1
 392 0 l 1,9,10
244 167 m 0,32,33
 244 192 244 192 225 214 c 128,-1,34
 206 236 206 236 181 236 c 0,35,36
 154 236 154 236 136 219.5 c 128,-1,37
 118 203 118 203 118 177 c 0,38,39
 118 129 118 129 197 95 c 1,40,41
 244 129 244 129 244 167 c 0,32,33
EndSplineSet
EndChar

StartChar: u0642
Encoding: 1602 1602 169
AltUni2: 00fed5.ffffffff.0
Width: 581
Flags: W
LayerCount: 2
Fore
SplineSet
519 321 m 0,0,1
 519 301 519 301 504.5 288.5 c 128,-1,2
 490 276 490 276 470 276 c 0,3,4
 414 276 414 276 414 321 c 0,5,6
 414 365 414 365 465 365 c 0,7,8
 519 365 519 365 519 321 c 0,0,1
368 321 m 0,9,10
 368 301 368 301 354 288.5 c 128,-1,11
 340 276 340 276 319 276 c 0,12,13
 264 276 264 276 264 321 c 0,14,15
 264 365 264 365 314 365 c 0,16,17
 368 365 368 365 368 321 c 0,9,10
544 15 m 2,18,19
 544 -2 544 -2 539 -48 c 0,20,21
 533 -118 533 -118 477 -164 c 0,22,23
 423 -208 423 -208 350 -208 c 2,24,-1
 231 -208 l 2,25,26
 145 -208 145 -208 92 -148 c 0,27,28
 42 -90 42 -90 42 -3 c 2,29,-1
 42 152 l 1,30,-1
 115 152 l 1,31,-1
 115 -6 l 2,32,33
 115 -60 115 -60 149 -97 c 128,-1,34
 183 -134 183 -134 236 -134 c 2,35,-1
 345 -134 l 2,36,37
 399 -134 399 -134 436 -94 c 0,38,39
 468 -57 468 -57 469 0 c 1,40,41
 359 0 359 0 330 10 c 0,42,43
 267 30 267 30 267 116 c 0,44,45
 267 172 267 172 305 205 c 0,46,47
 341 237 341 237 398 237 c 0,48,49
 465 237 465 237 505 192 c 0,50,51
 544 149 544 149 544 84 c 2,52,-1
 544 15 l 2,18,19
468 71 m 1,53,54
 468 108 468 108 447 133 c 0,55,56
 427 161 427 161 391 161 c 0,57,58
 336 161 336 161 336 116 c 0,59,60
 336 69 336 69 409 69 c 0,61,62
 448 69 448 69 468 71 c 1,53,54
EndSplineSet
Substitution2: "'fina' Terminal Forms in Arabic lookup 4 subtable" uFED6
Substitution2: "'medi' Medial Forms in Arabic lookup 3 subtable" uFED8
Substitution2: "'init' Initial Forms in Arabic lookup 2 subtable" uFED7
AlternateSubs2: "'aalt' Access All Alternates in Latin lookup 1 subtable" uFED7 uFED8 uFED6
EndChar

StartChar: uFED6
Encoding: 65238 65238 170
Width: 586
Flags: W
LayerCount: 2
Fore
SplineSet
501 335 m 0,0,1
 501 314 501 314 487 301 c 128,-1,2
 473 288 473 288 452 288 c 0,3,4
 397 288 397 288 397 335 c 0,5,6
 397 378 397 378 447 378 c 0,7,8
 501 378 501 378 501 335 c 0,0,1
351 335 m 0,9,10
 351 314 351 314 336 301 c 128,-1,11
 321 288 321 288 301 288 c 0,12,13
 246 288 246 288 246 335 c 0,14,15
 246 378 246 378 297 378 c 0,16,17
 351 378 351 378 351 335 c 0,9,10
601 0 m 1,18,-1
 536 0 l 1,19,20
 536 -82 536 -82 478 -139.5 c 128,-1,21
 420 -197 420 -197 339 -197 c 2,22,-1
 217 -197 l 2,23,24
 138 -197 138 -197 84 -136 c 0,25,26
 29 -76 29 -76 29 4 c 2,27,-1
 29 167 l 1,28,-1
 108 167 l 1,29,-1
 108 -5 l 2,30,31
 108 -49 108 -49 153 -86 c 0,32,33
 190 -117 190 -117 232 -117 c 2,34,-1
 334 -117 l 2,35,36
 385 -117 385 -117 419.5 -83.5 c 128,-1,37
 454 -50 454 -50 458 0 c 1,38,39
 347 0 347 0 316 10 c 0,40,41
 247 36 247 36 247 123 c 0,42,43
 247 181 247 181 290 214 c 0,44,45
 329 245 329 245 388 245 c 0,46,47
 456 245 456 245 498 195 c 0,48,49
 537 148 537 148 538 78 c 1,50,-1
 601 78 l 1,51,-1
 601 0 l 1,18,-1
460 78 m 1,52,53
 460 115 460 115 437.5 140 c 128,-1,54
 415 165 415 165 378 165 c 0,55,56
 323 165 323 165 323 126 c 0,57,58
 323 95 323 95 350 85 c 0,59,60
 363 78 363 78 460 78 c 1,52,53
EndSplineSet
EndChar

StartChar: uFED7
Encoding: 65239 65239 171
Width: 397
Flags: W
LayerCount: 2
Fore
SplineSet
318 460 m 0,0,1
 318 440 318 440 303 427 c 128,-1,2
 288 414 288 414 268 414 c 0,3,4
 214 414 214 414 214 460 c 0,5,6
 214 503 214 503 264 503 c 0,7,8
 318 503 318 503 318 460 c 0,0,1
168 460 m 0,9,10
 168 440 168 440 154 427 c 128,-1,11
 140 414 140 414 119 414 c 0,12,13
 65 414 65 414 65 460 c 0,14,15
 65 503 65 503 114 503 c 0,16,17
 168 503 168 503 168 460 c 0,9,10
348 123 m 2,18,19
 350 72 350 72 310 35 c 0,20,21
 271 0 271 0 222 0 c 2,22,-1
 -13 0 l 1,23,-1
 -13 78 l 1,24,-1
 223 78 l 2,25,26
 265 78 265 78 265 136 c 1,27,28
 203 137 203 137 127 144 c 1,29,30
 62 167 62 167 62 249 c 0,31,32
 62 307 62 307 97.5 342 c 128,-1,33
 133 377 133 377 189 377 c 0,34,35
 237 377 237 377 275 352 c 0,36,37
 338 312 338 312 342 222 c 2,38,-1
 348 123 l 2,18,19
260 209 m 1,39,40
 257 296 257 296 187 296 c 0,41,42
 135 296 135 296 135 255 c 0,43,44
 135 223 135 223 154 214 c 0,45,46
 163 210 163 210 203 210 c 2,47,-1
 260 209 l 1,39,40
EndSplineSet
EndChar

StartChar: uFED8
Encoding: 65240 65240 172
Width: 371
Flags: W
LayerCount: 2
Fore
SplineSet
300 462 m 0,0,1
 300 441 300 441 285.5 428.5 c 128,-1,2
 271 416 271 416 251 416 c 0,3,4
 196 416 196 416 196 462 c 0,5,6
 196 505 196 505 246 505 c 0,7,8
 300 505 300 505 300 462 c 0,0,1
150 462 m 0,9,10
 150 441 150 441 136 428.5 c 128,-1,11
 122 416 122 416 102 416 c 0,12,13
 48 416 48 416 48 462 c 0,14,15
 48 505 48 505 97 505 c 0,16,17
 150 505 150 505 150 462 c 0,9,10
392 0 m 1,18,19
 384 2 384 2 347 2 c 2,20,-1
 269 4 l 2,21,22
 229 4 229 4 194 21 c 1,23,24
 159 0 159 0 -28 0 c 1,25,-1
 -28 78 l 1,26,-1
 88 78 l 1,27,28
 46 126 46 126 46 182 c 0,29,30
 46 243 46 243 85 277 c 0,31,32
 123 312 123 312 186 312 c 0,33,34
 243 312 243 312 280 271 c 0,35,36
 315 231 315 231 315 172 c 0,37,38
 315 118 315 118 288 78 c 1,39,-1
 392 78 l 1,40,-1
 392 0 l 1,18,19
244 167 m 0,41,42
 244 192 244 192 225 214 c 128,-1,43
 206 236 206 236 181 236 c 0,44,45
 154 236 154 236 136 219.5 c 128,-1,46
 118 203 118 203 118 177 c 0,47,48
 118 129 118 129 197 95 c 1,49,50
 244 129 244 129 244 167 c 0,41,42
EndSplineSet
EndChar

StartChar: u0643
Encoding: 1603 1603 173
AltUni2: 00fed9.ffffffff.0 00fb8e.ffffffff.0 0006a9.ffffffff.0
Width: 696
Flags: W
LayerCount: 2
Fore
SplineSet
666 105 m 0,0,1
 666 57 666 57 628 28 c 0,2,3
 593 0 593 0 545 0 c 2,4,-1
 143 0 l 2,5,6
 92 0 92 0 62 39 c 0,7,8
 31 76 31 76 31 127 c 2,9,-1
 31 245 l 1,10,-1
 109 245 l 1,11,-1
 109 138 l 2,12,13
 109 104 109 104 121.5 91 c 128,-1,14
 134 78 134 78 167 78 c 2,15,-1
 541 78 l 2,16,17
 583 78 583 78 583 114 c 0,18,19
 583 130 583 130 570 144 c 2,20,-1
 366 354 l 1,21,-1
 354 444 l 1,22,-1
 640 547 l 1,23,-1
 649 468 l 1,24,-1
 444 388 l 1,25,-1
 627 195 l 2,26,27
 666 155 666 155 666 105 c 0,0,1
EndSplineSet
Substitution2: "'fina' Terminal Forms in Arabic lookup 4 subtable" uFEDA
Substitution2: "'medi' Medial Forms in Arabic lookup 3 subtable" uFEDC
Substitution2: "'init' Initial Forms in Arabic lookup 2 subtable" uFEDB
AlternateSubs2: "'aalt' Access All Alternates in Latin lookup 1 subtable" uFEDB uFEDC uFEDA
EndChar

StartChar: uFEDA
Encoding: 64399 64399 174
AltUni2: 00feda.ffffffff.0
Width: 764
Flags: W
LayerCount: 2
Fore
SplineSet
784 0 m 1,0,1
 695 0 695 0 654 56 c 1,2,3
 633 0 633 0 554 0 c 2,4,-1
 145 0 l 2,5,6
 95 0 95 0 63 39 c 0,7,8
 32 76 32 76 32 127 c 2,9,-1
 32 245 l 1,10,-1
 110 245 l 1,11,-1
 110 138 l 2,12,13
 110 104 110 104 123.5 91 c 128,-1,14
 137 78 137 78 169 78 c 2,15,-1
 551 78 l 2,16,17
 590 78 590 78 590 106 c 0,18,19
 590 122 590 122 570 142 c 2,20,-1
 367 354 l 1,21,-1
 353 442 l 1,22,-1
 642 547 l 1,23,-1
 651 468 l 1,24,-1
 448 392 l 1,25,-1
 666 150 l 1,26,-1
 722 95 l 2,27,28
 735 80 735 80 784 78 c 1,29,-1
 784 0 l 1,0,1
EndSplineSet
EndChar

StartChar: uFEDB
Encoding: 64400 64400 175
AltUni2: 00fedb.ffffffff.0
Width: 366
Flags: W
LayerCount: 2
Fore
SplineSet
348 106 m 0,0,1
 348 0 348 0 229 0 c 2,2,-1
 -15 0 l 1,3,-1
 -15 78 l 1,4,-1
 229 78 l 2,5,6
 260 78 260 78 260 114 c 0,7,8
 260 131 260 131 249 142 c 2,9,-1
 48 354 l 1,10,-1
 34 442 l 1,11,-1
 320 547 l 1,12,-1
 332 468 l 1,13,-1
 129 392 l 1,14,-1
 290 213 l 2,15,16
 308 193 308 193 333 150 c 0,17,18
 348 128 348 128 348 106 c 0,0,1
EndSplineSet
EndChar

StartChar: uFEDC
Encoding: 64401 64401 176
AltUni2: 00fedc.ffffffff.0
Width: 437
Flags: W
LayerCount: 2
Fore
SplineSet
462 0 m 1,0,1
 361 0 361 0 320 57 c 1,2,3
 298 0 298 0 213 0 c 2,4,-1
 -19 0 l 1,5,-1
 -19 78 l 1,6,-1
 214 78 l 2,7,8
 245 78 245 78 245 118 c 0,9,10
 245 132 245 132 236 142 c 2,11,-1
 32 354 l 1,12,-1
 19 442 l 1,13,-1
 306 547 l 1,14,-1
 316 468 l 1,15,-1
 112 392 l 1,16,-1
 328 153 l 2,17,18
 365 112 365 112 387 100 c 0,19,20
 417 79 417 79 462 78 c 1,21,-1
 462 0 l 1,0,1
EndSplineSet
EndChar

StartChar: u06AF
Encoding: 1711 1711 177
AltUni2: 00fb92.ffffffff.0
Width: 696
Flags: W
LayerCount: 2
Fore
SplineSet
627 591 m 1,0,-1
 354 492 l 1,1,-1
 351 521 l 1,2,-1
 626 620 l 1,3,-1
 627 591 l 1,0,-1
674 104 m 0,4,5
 674 52 674 52 638 25 c 0,6,7
 606 0 606 0 553 0 c 2,8,-1
 150 0 l 2,9,10
 102 0 102 0 69 39 c 0,11,12
 39 76 39 76 39 127 c 2,13,-1
 39 245 l 1,14,-1
 117 245 l 1,15,-1
 117 138 l 2,16,17
 117 104 117 104 130 91 c 128,-1,18
 143 78 143 78 177 78 c 2,19,-1
 557 78 l 2,20,21
 572 78 572 78 584.5 88.5 c 128,-1,22
 597 99 597 99 597 112 c 0,23,24
 597 124 597 124 590 131 c 2,25,-1
 373 354 l 1,26,-1
 358 442 l 1,27,-1
 646 547 l 1,28,-1
 657 468 l 1,29,-1
 456 391 l 1,30,-1
 636 190 l 2,31,32
 674 148 674 148 674 104 c 0,4,5
EndSplineSet
Substitution2: "'fina' Terminal Forms in Arabic lookup 4 subtable" uFB93
Substitution2: "'medi' Medial Forms in Arabic lookup 3 subtable" uFB95
Substitution2: "'init' Initial Forms in Arabic lookup 2 subtable" uFB94
AlternateSubs2: "'aalt' Access All Alternates in Latin lookup 1 subtable" uFB94 uFB95 uFB93
EndChar

StartChar: uFB93
Encoding: 64403 64403 178
Width: 764
Flags: W
LayerCount: 2
Fore
SplineSet
615 591 m 1,0,-1
 344 492 l 1,1,-1
 340 521 l 1,2,-1
 613 620 l 1,3,-1
 615 591 l 1,0,-1
778 0 m 1,4,5
 690 0 690 0 648 56 c 1,6,7
 629 0 629 0 548 0 c 2,8,-1
 139 0 l 2,9,10
 89 0 89 0 57 39 c 0,11,12
 28 75 28 75 28 127 c 2,13,-1
 28 245 l 1,14,-1
 105 245 l 1,15,-1
 105 138 l 2,16,17
 105 104 105 104 117.5 91 c 128,-1,18
 130 78 130 78 163 78 c 2,19,-1
 545 78 l 2,20,21
 584 78 584 78 584 107 c 0,22,23
 584 123 584 123 565 142 c 2,24,-1
 360 354 l 1,25,-1
 348 442 l 1,26,-1
 635 547 l 1,27,-1
 646 468 l 1,28,-1
 442 392 l 1,29,-1
 659 150 l 1,30,31
 659 150 659 150 714 95 c 0,32,33
 729 80 729 80 778 78 c 1,34,-1
 778 0 l 1,4,5
EndSplineSet
EndChar

StartChar: uFB94
Encoding: 64404 64404 179
Width: 371
Flags: W
LayerCount: 2
Fore
SplineSet
286 591 m 1,0,-1
 13 492 l 1,1,-1
 10 521 l 1,2,-1
 284 620 l 1,3,-1
 286 591 l 1,0,-1
333 104 m 0,4,5
 333 54 333 54 295 26 c 0,6,7
 261 0 261 0 209 0 c 2,8,-1
 -19 0 l 1,9,-1
 -19 78 l 1,10,-1
 209 78 l 2,11,12
 254 78 254 78 254 107 c 0,13,14
 254 123 254 123 240 139 c 2,15,-1
 31 354 l 1,16,-1
 18 442 l 1,17,-1
 306 547 l 1,18,-1
 316 468 l 1,19,-1
 110 390 l 1,20,-1
 312 168 l 2,21,22
 333 144 333 144 333 104 c 0,4,5
EndSplineSet
EndChar

StartChar: uFB95
Encoding: 64405 64405 180
Width: 447
Flags: W
LayerCount: 2
Fore
SplineSet
295 591 m 1,0,-1
 22 492 l 1,1,-1
 19 521 l 1,2,-1
 293 620 l 1,3,-1
 295 591 l 1,0,-1
457 0 m 1,4,5
 360 0 360 0 320 62 c 1,6,7
 294 0 294 0 223 0 c 2,8,-1
 -10 0 l 1,9,-1
 -10 78 l 1,10,-1
 224 78 l 2,11,12
 263 78 263 78 263 107 c 0,13,14
 263 123 263 123 244 142 c 2,15,-1
 40 354 l 1,16,-1
 28 442 l 1,17,-1
 314 547 l 1,18,-1
 327 468 l 1,19,-1
 118 390 l 1,20,-1
 336 150 l 2,21,22
 359 126 359 126 405 86 c 1,23,24
 424 76 424 76 457 78 c 1,25,-1
 457 0 l 1,4,5
EndSplineSet
EndChar

StartChar: u0644
Encoding: 1604 1604 181
AltUni2: 00fedd.ffffffff.0
Width: 591
Flags: W
LayerCount: 2
Fore
SplineSet
548 10 m 2,0,1
 548 -78 548 -78 495 -137 c 0,2,3
 440 -197 440 -197 353 -197 c 2,4,-1
 233 -197 l 2,5,6
 155 -197 155 -197 98 -135 c 0,7,8
 41 -74 41 -74 41 4 c 2,9,-1
 41 167 l 1,10,-1
 119 167 l 1,11,-1
 119 -5 l 2,12,13
 119 -53 119 -53 160 -86 c 0,14,15
 198 -117 198 -117 247 -117 c 2,16,-1
 348 -117 l 2,17,18
 396 -117 396 -117 432 -86 c 0,19,20
 470 -51 470 -51 470 -5 c 2,21,-1
 470 500 l 1,22,-1
 548 500 l 1,23,-1
 548 10 l 2,0,1
EndSplineSet
Substitution2: "'fina' Terminal Forms in Arabic lookup 4 subtable" uFEDE
Substitution2: "'medi' Medial Forms in Arabic lookup 3 subtable" uFEE0
Substitution2: "'init' Initial Forms in Arabic lookup 2 subtable" uFEDF
AlternateSubs2: "'aalt' Access All Alternates in Latin lookup 1 subtable" uFEDF uFEE0 uFEDE
EndChar

StartChar: uFEDE
Encoding: 65246 65246 182
Width: 610
Flags: W
LayerCount: 2
Fore
SplineSet
627 0 m 1,0,1
 564 0 564 0 539 37 c 1,2,3
 539 -62 539 -62 491 -126 c 0,4,5
 437 -197 437 -197 342 -197 c 2,6,-1
 223 -197 l 2,7,8
 142 -197 142 -197 87 -136 c 0,9,10
 34 -77 34 -77 34 4 c 2,11,-1
 34 167 l 1,12,-1
 110 167 l 1,13,-1
 110 -5 l 2,14,15
 110 -55 110 -55 148 -88 c 0,16,17
 185 -119 185 -119 236 -119 c 2,18,-1
 338 -119 l 2,19,20
 388 -119 388 -119 424 -88 c 0,21,22
 460 -55 460 -55 460 -5 c 2,23,-1
 460 500 l 1,24,-1
 538 500 l 1,25,-1
 538 132 l 2,26,27
 538 79 538 79 627 78 c 1,28,-1
 627 0 l 1,0,1
EndSplineSet
EndChar

StartChar: uFEDF
Encoding: 65247 65247 183
Width: 224
Flags: W
LayerCount: 2
Fore
SplineSet
168 119 m 2,0,1
 168 63 168 63 135 31.5 c 128,-1,2
 102 0 102 0 44 0 c 2,3,-1
 -16 0 l 1,4,-1
 -16 78 l 1,5,6
 46 78 46 78 37 77 c 1,7,8
 74 80 74 80 85 97 c 0,9,10
 91 106 91 106 91 153 c 2,11,-1
 91 500 l 1,12,-1
 168 500 l 1,13,-1
 168 119 l 2,0,1
EndSplineSet
EndChar

StartChar: uFEE0
Encoding: 65248 65248 184
Width: 260
Flags: W
LayerCount: 2
Fore
SplineSet
275 0 m 1,0,-1
 252 0 l 2,1,2
 176 0 176 0 139 29 c 1,3,4
 110 8 110 8 88 3 c 0,5,6
 73 0 73 0 -15 0 c 1,7,-1
 -15 78 l 1,8,9
 10 77 10 77 41 77 c 0,10,11
 78 77 78 77 90 98 c 0,12,13
 99 110 99 110 99 153 c 2,14,-1
 99 500 l 1,15,-1
 177 500 l 1,16,-1
 177 138 l 2,17,18
 177 95 177 95 203 85 c 0,19,20
 214 80 214 80 275 78 c 1,21,-1
 275 0 l 1,0,-1
EndSplineSet
EndChar

StartChar: u0645
Encoding: 1605 1605 185
AltUni2: 00fee1.ffffffff.0
Width: 498
Flags: W
LayerCount: 2
Fore
SplineSet
471 128 m 0,0,1
 471 69 471 69 431.5 33.5 c 128,-1,2
 392 -2 392 -2 332 -2 c 0,3,4
 271 -2 271 -2 234 39 c 0,5,6
 197 79 197 79 197 141 c 2,7,-1
 197 235 l 1,8,9
 184 236 184 236 182 236 c 0,10,11
 150 236 150 236 129.5 212 c 128,-1,12
 109 188 109 188 109 158 c 2,13,-1
 109 -197 l 1,14,-1
 32 -197 l 1,15,-1
 32 148 l 2,16,17
 32 224 32 224 72 267 c 0,18,19
 112 312 112 312 187 312 c 2,20,-1
 347 312 l 2,21,22
 425 312 425 312 452 255 c 0,23,24
 471 217 471 217 471 128 c 0,0,1
395 145 m 0,25,26
 395 208 395 208 382 220 c 0,27,28
 367 232 367 232 272 235 c 1,29,-1
 272 127 l 2,30,31
 272 104 272 104 295 89 c 0,32,33
 314 76 314 76 338 76 c 0,34,35
 395 76 395 76 395 145 c 0,25,26
EndSplineSet
Substitution2: "'fina' Terminal Forms in Arabic lookup 4 subtable" uFEE2
Substitution2: "'medi' Medial Forms in Arabic lookup 3 subtable" uFEE4
Substitution2: "'init' Initial Forms in Arabic lookup 2 subtable" uFEE3
AlternateSubs2: "'aalt' Access All Alternates in Latin lookup 1 subtable" uFEE3 uFEE4 uFEE2
EndChar

StartChar: uFEE2
Encoding: 65250 65250 186
Width: 534
Flags: W
LayerCount: 2
Fore
SplineSet
555 0 m 1,0,1
 507 0 507 0 487 10 c 0,2,3
 462 20 462 20 437 57 c 1,4,5
 413 -5 413 -5 339 -5 c 0,6,7
 275 -5 275 -5 235 35 c 128,-1,8
 195 75 195 75 195 141 c 2,9,-1
 195 235 l 1,10,11
 160 235 160 235 135 215 c 0,12,13
 108 192 108 192 108 158 c 2,14,-1
 108 -197 l 1,15,-1
 31 -197 l 1,16,-1
 31 148 l 2,17,18
 31 225 31 225 69 268 c 0,19,20
 110 312 110 312 186 312 c 2,21,-1
 344 312 l 2,22,23
 469 312 469 312 469 129 c 0,24,25
 469 79 469 79 555 78 c 1,26,-1
 555 0 l 1,0,1
393 144 m 0,27,28
 393 203 393 203 380 217 c 0,29,30
 363 234 363 234 271 235 c 1,31,-1
 271 126 l 2,32,33
 271 102 271 102 290 86 c 0,34,35
 308 73 308 73 333 73 c 0,36,37
 393 73 393 73 393 144 c 0,27,28
EndSplineSet
EndChar

StartChar: uFEE3
Encoding: 65251 65251 187
Width: 366
Flags: W
LayerCount: 2
Fore
SplineSet
339 146 m 0,0,1
 339 79 339 79 306 36 c 0,2,3
 269 -10 269 -10 203 -10 c 0,4,5
 153 -10 153 -10 115 19 c 1,6,7
 77 2 77 2 -17 0 c 1,8,-1
 -17 78 l 1,9,10
 50 78 50 78 61 91 c 0,11,12
 64 95 64 95 66 150 c 0,13,14
 69 312 69 312 205 312 c 0,15,16
 271 312 271 312 308 260 c 0,17,18
 339 214 339 214 339 146 c 0,0,1
271 150 m 0,19,20
 271 235 271 235 203 235 c 256,21,22
 135 235 135 235 135 148 c 0,23,24
 135 66 135 66 203 66 c 256,25,26
 271 66 271 66 271 150 c 0,19,20
EndSplineSet
EndChar

StartChar: uFEE4
Encoding: 65252 65252 188
Width: 392
Flags: W
LayerCount: 2
Fore
SplineSet
403 0 m 1,0,1
 365 0 365 0 348 8 c 0,2,3
 325 17 325 17 308 46 c 1,4,5
 273 -10 273 -10 200 -10 c 0,6,7
 172 -10 172 -10 142 6 c 128,-1,8
 112 22 112 22 98 46 c 1,9,10
 89 1 89 1 -21 0 c 1,11,-1
 -21 78 l 1,12,13
 45 78 45 78 56 91 c 0,14,15
 62 98 62 98 62 150 c 0,16,17
 62 223 62 223 95 265 c 0,18,19
 132 312 132 312 202 312 c 0,20,21
 265 312 265 312 301 262 c 0,22,23
 334 217 334 217 335 150 c 0,24,25
 336 126 336 126 336 119 c 0,26,27
 339 91 339 91 357 84 c 0,28,29
 366 80 366 80 403 78 c 1,30,-1
 403 0 l 1,0,1
265 152 m 0,31,32
 265 235 265 235 199 235 c 0,33,34
 129 235 129 235 129 148 c 0,35,36
 129 66 129 66 199 66 c 0,37,38
 265 66 265 66 265 152 c 0,31,32
EndSplineSet
EndChar

StartChar: u0646
Encoding: 1606 1606 189
AltUni2: 00fee5.ffffffff.0
Width: 581
Flags: W
LayerCount: 2
Fore
SplineSet
316 263 m 0,0,1
 316 241 316 241 300.5 225 c 128,-1,2
 285 209 285 209 262 209 c 0,3,4
 204 209 204 209 204 263 c 0,5,6
 204 310 204 310 260 310 c 256,7,8
 316 310 316 310 316 263 c 0,0,1
537 12 m 2,9,10
 537 -79 537 -79 485 -137 c 0,11,12
 431 -197 431 -197 341 -197 c 2,13,-1
 222 -197 l 2,14,15
 141 -197 141 -197 86 -136 c 0,16,17
 32 -77 32 -77 32 4 c 2,18,-1
 32 167 l 1,19,-1
 109 167 l 1,20,-1
 109 -5 l 2,21,22
 109 -54 109 -54 148 -88 c 0,23,24
 185 -119 185 -119 235 -119 c 2,25,-1
 336 -119 l 2,26,27
 387 -119 387 -119 423 -87 c 128,-1,28
 459 -55 459 -55 459 -5 c 2,29,-1
 459 245 l 1,30,-1
 537 245 l 1,31,-1
 537 12 l 2,9,10
EndSplineSet
Substitution2: "'fina' Terminal Forms in Arabic lookup 4 subtable" uFEE6
Substitution2: "'medi' Medial Forms in Arabic lookup 3 subtable" uFEE8
Substitution2: "'init' Initial Forms in Arabic lookup 2 subtable" uFEE7
AlternateSubs2: "'aalt' Access All Alternates in Latin lookup 1 subtable" uFEE7 uFEE8 uFEE6
EndChar

StartChar: uFEE6
Encoding: 65254 65254 190
Width: 591
Flags: W
LayerCount: 2
Fore
SplineSet
319 263 m 0,0,1
 319 241 319 241 303.5 225 c 128,-1,2
 288 209 288 209 265 209 c 0,3,4
 206 209 206 209 206 263 c 0,5,6
 206 310 206 310 263 310 c 0,7,8
 319 310 319 310 319 263 c 0,0,1
625 0 m 1,9,10
 561 0 561 0 538 37 c 1,11,12
 538 -62 538 -62 490 -126 c 0,13,14
 437 -197 437 -197 341 -197 c 2,15,-1
 222 -197 l 2,16,17
 141 -197 141 -197 86 -136 c 0,18,19
 32 -77 32 -77 32 4 c 2,20,-1
 32 167 l 1,21,-1
 109 167 l 1,22,-1
 109 -5 l 2,23,24
 109 -55 109 -55 148 -88 c 0,25,26
 185 -119 185 -119 235 -119 c 2,27,-1
 336 -119 l 2,28,29
 387 -119 387 -119 423 -87 c 128,-1,30
 459 -55 459 -55 459 -5 c 2,31,-1
 459 245 l 1,32,-1
 537 245 l 1,33,-1
 537 132 l 2,34,35
 537 79 537 79 625 78 c 1,36,-1
 625 0 l 1,9,10
EndSplineSet
EndChar

StartChar: uFEE7
Encoding: 65255 65255 191
Width: 254
Flags: W
LayerCount: 2
Fore
SplineSet
148 367 m 0,0,1
 148 345 148 345 132.5 328.5 c 128,-1,2
 117 312 117 312 94 312 c 0,3,4
 35 312 35 312 35 367 c 0,5,6
 35 414 35 414 91 414 c 0,7,8
 148 414 148 414 148 367 c 0,0,1
226 127 m 2,9,10
 226 76 226 76 194 39 c 0,11,12
 162 0 162 0 111 0 c 2,13,-1
 -16 0 l 1,14,-1
 -16 78 l 1,15,16
 107 78 107 78 121 83 c 0,17,18
 147 92 147 92 147 152 c 0,19,20
 147 168 147 168 146.5 198.5 c 128,-1,21
 146 229 146 229 146 245 c 1,22,-1
 226 245 l 1,23,-1
 226 127 l 2,9,10
EndSplineSet
EndChar

StartChar: uFEE8
Encoding: 65256 65256 192
Width: 305
Flags: W
LayerCount: 2
Fore
SplineSet
148 367 m 0,0,1
 148 345 148 345 132.5 328.5 c 128,-1,2
 117 312 117 312 94 312 c 0,3,4
 35 312 35 312 35 367 c 0,5,6
 35 414 35 414 91 414 c 0,7,8
 148 414 148 414 148 367 c 0,0,1
319 0 m 1,9,-1
 293 0 l 2,10,11
 220 0 220 0 185 29 c 1,12,13
 146 0 146 0 109 0 c 2,14,-1
 -19 0 l 1,15,-1
 -19 78 l 1,16,17
 103 78 103 78 117 84 c 0,18,19
 144 92 144 92 144 152 c 0,20,21
 144 168 144 168 143.5 198.5 c 128,-1,22
 143 229 143 229 143 245 c 1,23,-1
 223 245 l 1,24,-1
 223 138 l 2,25,26
 223 80 223 80 319 78 c 1,27,-1
 319 0 l 1,9,-1
EndSplineSet
EndChar

StartChar: u0648
Encoding: 1608 1608 193
AltUni2: 00feed.ffffffff.0
Width: 387
Flags: W
LayerCount: 2
Fore
SplineSet
339 -10 m 2,0,1
 339 -88 339 -88 280.5 -142.5 c 128,-1,2
 222 -197 222 -197 143 -197 c 2,3,-1
 42 -197 l 1,4,-1
 31 -119 l 1,5,-1
 129 -119 l 2,6,7
 186 -119 186 -119 222.5 -87 c 128,-1,8
 259 -55 259 -55 261 0 c 1,9,10
 163 0 163 0 119 26 c 0,11,12
 60 61 60 61 60 150 c 0,13,14
 60 248 60 248 106 288 c 0,15,16
 135 312 135 312 202 312 c 0,17,18
 290 312 290 312 320 238 c 0,19,20
 339 191 339 191 339 88 c 2,21,-1
 339 -10 l 2,0,1
261 78 m 1,22,-1
 261 158 l 2,23,24
 261 234 261 234 200 234 c 0,25,26
 163 234 163 234 148 209 c 0,27,28
 141 190 141 190 141 148 c 0,29,30
 141 100 141 100 180 86 c 0,31,32
 201 78 201 78 261 78 c 1,22,-1
EndSplineSet
Substitution2: "'fina' Terminal Forms in Arabic lookup 4 subtable" uFEEE
Substitution2: "'aalt' Access All Alternates in Latin lookup 0 subtable" uFEEE
EndChar

StartChar: uFEEE
Encoding: 65262 65262 194
Width: 387
Flags: W
LayerCount: 2
Fore
SplineSet
398 0 m 1,0,-1
 348 0 l 1,1,2
 348 -86 348 -86 289.5 -141.5 c 128,-1,3
 231 -197 231 -197 146 -197 c 2,4,-1
 46 -197 l 1,5,-1
 34 -119 l 1,6,-1
 132 -119 l 2,7,8
 188 -119 188 -119 225 -87 c 128,-1,9
 262 -55 262 -55 264 0 c 1,10,11
 167 0 167 0 122 27 c 0,12,13
 62 62 62 62 62 150 c 0,14,15
 62 248 62 248 109 288 c 0,16,17
 137 312 137 312 203 312 c 0,18,19
 296 312 296 312 327 234 c 0,20,21
 346 188 346 188 348 78 c 1,22,-1
 398 78 l 1,23,-1
 398 0 l 1,0,-1
267 78 m 1,24,-1
 267 151 l 2,25,26
 267 185 267 185 251 208 c 0,27,28
 233 234 233 234 203 234 c 0,29,30
 165 234 165 234 151 209 c 0,31,32
 143 190 143 190 143 148 c 0,33,34
 143 100 143 100 184 86 c 0,35,36
 206 78 206 78 267 78 c 1,24,-1
EndSplineSet
EndChar

StartChar: u0647
Encoding: 1607 1607 195
AltUni2: 00fee9.ffffffff.0
Width: 351
Flags: W
LayerCount: 2
Fore
SplineSet
328 132 m 0,0,1
 328 71 328 71 282 30 c 0,2,3
 238 -10 238 -10 176 -10 c 0,4,5
 111 -10 111 -10 70 34 c 128,-1,6
 29 78 29 78 29 143 c 0,7,8
 29 209 29 209 119 299 c 1,9,-1
 97 323 l 1,10,-1
 148 377 l 1,11,-1
 292 229 l 2,12,13
 328 190 328 190 328 132 c 0,0,1
251 137 m 0,14,15
 251 161 251 161 239 174 c 2,16,-1
 176 241 l 1,17,18
 105 174 105 174 105 135 c 0,19,20
 105 104 105 104 127.5 85 c 128,-1,21
 150 66 150 66 183 66 c 0,22,23
 212 66 212 66 231.5 86 c 128,-1,24
 251 106 251 106 251 137 c 0,14,15
EndSplineSet
Substitution2: "'fina' Terminal Forms in Arabic lookup 4 subtable" uFEEA
Substitution2: "'medi' Medial Forms in Arabic lookup 3 subtable" uFEEC
Substitution2: "'init' Initial Forms in Arabic lookup 2 subtable" uFEEB
AlternateSubs2: "'aalt' Access All Alternates in Latin lookup 1 subtable" uFEEB uFEEC uFEEA
EndChar

StartChar: uFEEA
Encoding: 65258 65258 196
Width: 447
Flags: W
LayerCount: 2
Fore
SplineSet
463 0 m 1,0,1
 412 0 412 0 388 13 c 0,2,3
 377 21 377 21 308 85 c 1,4,5
 263 -10 263 -10 164 -10 c 0,6,7
 100 -10 100 -10 58 32.5 c 128,-1,8
 16 75 16 75 16 141 c 0,9,10
 16 208 16 208 106 299 c 1,11,-1
 85 323 l 1,12,-1
 137 377 l 1,13,-1
 370 128 l 2,14,15
 401 95 401 95 409 90 c 0,16,17
 427 80 427 80 463 78 c 1,18,-1
 463 0 l 1,0,1
240 135 m 0,19,20
 240 163 240 163 225 178 c 2,21,-1
 163 241 l 1,22,23
 126 206 126 206 116 194 c 0,24,25
 93 165 93 165 93 135 c 0,26,27
 93 104 93 104 113.5 85 c 128,-1,28
 134 66 134 66 165 66 c 0,29,30
 195 66 195 66 217.5 85.5 c 128,-1,31
 240 105 240 105 240 135 c 0,19,20
EndSplineSet
EndChar

StartChar: uFEEB
Encoding: 65259 65259 197
Width: 508
Flags: W
LayerCount: 2
Fore
SplineSet
475 104 m 0,0,1
 475 52 475 52 436 11 c 128,-1,2
 397 -30 397 -30 347 -30 c 0,3,4
 284 -30 284 -30 186 28 c 1,5,6
 135 2 135 2 73 1 c 2,7,-1
 -13 0 l 1,8,-1
 -13 78 l 1,9,-1
 95 78 l 1,10,11
 52 134 52 134 52 186 c 0,12,13
 52 241 52 241 87.5 276.5 c 128,-1,14
 123 312 123 312 180 312 c 0,15,16
 229 312 229 312 272 271 c 1,17,-1
 223 323 l 1,18,-1
 280 377 l 1,19,20
 475 190 475 190 475 104 c 0,0,1
392 99 m 0,21,22
 392 146 392 146 288 249 c 1,23,24
 312 224 312 224 312 176 c 0,25,26
 312 102 312 102 265 76 c 1,27,28
 309 50 309 50 341 50 c 0,29,30
 392 50 392 50 392 99 c 0,21,22
238 181 m 0,31,32
 238 206 238 206 218.5 223.5 c 128,-1,33
 199 241 199 241 171 241 c 0,34,35
 149 241 149 241 138 224 c 0,36,37
 125 207 125 207 125 186 c 0,38,39
 125 135 125 135 187 110 c 1,40,41
 238 132 238 132 238 181 c 0,31,32
EndSplineSet
EndChar

StartChar: uFEEC
Encoding: 65260 65260 198
Width: 347
Flags: W
LayerCount: 2
Fore
SplineSet
360 0 m 1,0,-1
 262 0 l 1,1,2
 319 -39 319 -39 319 -114 c 0,3,4
 319 -205 319 -205 204 -205 c 0,5,6
 65 -205 65 -205 52 -86 c 2,7,-1
 44 0 l 1,8,-1
 -23 0 l 1,9,-1
 -23 78 l 1,10,-1
 40 78 l 1,11,12
 34 158 34 158 34 165 c 0,13,14
 34 311 34 311 181 311 c 0,15,16
 239 311 239 311 274 278 c 0,17,18
 312 244 312 244 312 187 c 0,19,20
 312 121 312 121 260 78 c 1,21,-1
 360 78 l 1,22,-1
 360 0 l 1,0,-1
239 187 m 0,23,24
 239 239 239 239 187 239 c 0,25,26
 111 239 111 239 111 140 c 0,27,28
 111 133 111 133 114 78 c 1,29,30
 164 78 164 78 200 107 c 0,31,32
 239 139 239 139 239 187 c 0,23,24
254 -90 m 0,33,34
 254 -46 254 -46 206 -18 c 0,35,36
 165 7 165 7 116 7 c 1,37,38
 116 -139 116 -139 195 -139 c 0,39,40
 254 -139 254 -139 254 -90 c 0,33,34
EndSplineSet
EndChar

StartChar: u0629
Encoding: 1577 1577 199
AltUni2: 00fe93.ffffffff.0 00fba4.ffffffff.0 0006c0.ffffffff.0
Width: 351
Flags: W
LayerCount: 2
Fore
SplineSet
203 475 m 1,0,-1
 70 407 l 1,1,-1
 60 429 l 1,2,-1
 104 453 l 1,3,4
 66 476 66 476 66 510 c 0,5,6
 66 539 66 539 83 558 c 128,-1,7
 100 577 100 577 128 577 c 0,8,9
 139 577 139 577 165 567 c 1,10,-1
 155 547 l 1,11,12
 143 554 143 554 131 554 c 0,13,14
 89 554 89 554 89 510 c 0,15,16
 89 476 89 476 122 476 c 0,17,18
 148 476 148 476 190 497 c 1,19,-1
 203 475 l 1,0,-1
328 132 m 0,20,21
 328 71 328 71 282 30 c 0,22,23
 238 -10 238 -10 176 -10 c 0,24,25
 111 -10 111 -10 70 34 c 128,-1,26
 29 78 29 78 29 143 c 0,27,28
 29 209 29 209 119 299 c 1,29,-1
 97 323 l 1,30,-1
 148 377 l 1,31,-1
 292 229 l 2,32,33
 328 190 328 190 328 132 c 0,20,21
251 137 m 0,34,35
 251 161 251 161 239 174 c 2,36,-1
 176 241 l 1,37,38
 105 174 105 174 105 135 c 0,39,40
 105 104 105 104 127.5 85 c 128,-1,41
 150 66 150 66 183 66 c 0,42,43
 212 66 212 66 231.5 86 c 128,-1,44
 251 106 251 106 251 137 c 0,34,35
EndSplineSet
Substitution2: "'fina' Terminal Forms in Arabic lookup 4 subtable" uFE94
Substitution2: "'aalt' Access All Alternates in Latin lookup 0 subtable" uFE94
EndChar

StartChar: uFE94
Encoding: 64421 64421 200
AltUni2: 00fe94.ffffffff.0
Width: 447
Flags: W
LayerCount: 2
Fore
SplineSet
195 495 m 1,0,-1
 63 429 l 1,1,-1
 52 450 l 1,2,-1
 98 476 l 1,3,4
 58 496 58 496 58 531 c 0,5,6
 58 559 58 559 75.5 578.5 c 128,-1,7
 93 598 93 598 121 598 c 0,8,9
 139 598 139 598 158 590 c 1,10,-1
 148 568 l 1,11,12
 135 575 135 575 125 575 c 0,13,14
 106 575 106 575 94 562.5 c 128,-1,15
 82 550 82 550 82 531 c 0,16,17
 82 496 82 496 116 496 c 0,18,19
 142 496 142 496 184 519 c 1,20,-1
 195 495 l 1,0,-1
463 0 m 1,21,22
 412 0 412 0 388 13 c 0,23,24
 377 21 377 21 308 85 c 1,25,26
 263 -10 263 -10 164 -10 c 0,27,28
 100 -10 100 -10 58 32.5 c 128,-1,29
 16 75 16 75 16 141 c 0,30,31
 16 208 16 208 106 299 c 1,32,-1
 85 323 l 1,33,-1
 137 377 l 1,34,-1
 370 128 l 2,35,36
 401 95 401 95 409 90 c 0,37,38
 427 80 427 80 463 78 c 1,39,-1
 463 0 l 1,21,22
240 135 m 0,40,41
 240 163 240 163 225 178 c 2,42,-1
 163 241 l 1,43,44
 126 206 126 206 116 194 c 0,45,46
 93 165 93 165 93 135 c 0,47,48
 93 104 93 104 113.5 85 c 128,-1,49
 134 66 134 66 165 66 c 0,50,51
 195 66 195 66 217.5 85.5 c 128,-1,52
 240 105 240 105 240 135 c 0,40,41
EndSplineSet
EndChar

StartChar: u064A
Encoding: 1610 1610 201
AltUni2: 00fef1.ffffffff.0 00fbfc.ffffffff.0 0006cc.ffffffff.0
Width: 559
Flags: W
LayerCount: 2
Fore
SplineSet
531 4 m 0,0,1
 531 -110 531 -110 448 -165 c 0,2,3
 399 -197 399 -197 340 -197 c 2,4,-1
 220 -197 l 2,5,6
 139 -197 139 -197 85 -136 c 0,7,8
 34 -77 34 -77 34 4 c 2,9,-1
 34 165 l 1,10,-1
 107 165 l 1,11,-1
 107 -5 l 2,12,13
 107 -57 107 -57 146 -90 c 0,14,15
 183 -121 183 -121 234 -121 c 2,16,-1
 335 -121 l 2,17,18
 381 -121 381 -121 417 -91 c 0,19,20
 456 -60 456 -60 456 -15 c 0,21,22
 456 24 456 24 403 36 c 0,23,24
 389 39 389 39 384 39 c 2,25,-1
 275 39 l 1,26,-1
 275 173 l 2,27,28
 275 233 275 233 314 272.5 c 128,-1,29
 353 312 353 312 413 312 c 2,30,-1
 507 312 l 1,31,-1
 510 239 l 1,32,-1
 417 239 l 2,33,34
 374 239 374 239 358 202 c 0,35,36
 351 183 351 183 349 111 c 1,37,38
 441 111 441 111 472 102 c 0,39,40
 531 78 531 78 531 4 c 0,0,1
EndSplineSet
Substitution2: "'fina' Terminal Forms in Arabic lookup 4 subtable" uFEF2
Substitution2: "'medi' Medial Forms in Arabic lookup 3 subtable" uFEF4
Substitution2: "'init' Initial Forms in Arabic lookup 2 subtable" uFEF3
AlternateSubs2: "'aalt' Access All Alternates in Latin lookup 1 subtable" uFEF3 uFEF4 uFEF2
EndChar

StartChar: uFEF2
Encoding: 64509 64509 202
AltUni2: 00fef2.ffffffff.0
Width: 559
Flags: W
LayerCount: 2
Fore
SplineSet
572 0 m 1,0,-1
 499 0 l 1,1,-1
 503 -38 l 1,2,3
 503 -106 503 -106 451 -152 c 0,4,5
 401 -197 401 -197 332 -197 c 2,6,-1
 212 -197 l 2,7,8
 120 -197 120 -197 66 -129 c 0,9,10
 19 -67 19 -67 19 28 c 2,11,-1
 19 167 l 1,12,-1
 97 167 l 1,13,-1
 97 -3 l 2,14,15
 97 -59 97 -59 136 -90 c 0,16,17
 171 -119 171 -119 229 -119 c 2,18,-1
 329 -119 l 2,19,20
 370 -119 370 -119 397 -97 c 0,21,22
 427 -73 427 -73 427 -31 c 0,23,24
 427 -8 427 -8 354 -1 c 0,25,26
 342 0 342 0 264 0 c 1,27,-1
 258 78 l 1,28,-1
 572 78 l 1,29,-1
 572 0 l 1,0,-1
EndSplineSet
EndChar

StartChar: uFEF3
Encoding: 64510 64510 203
AltUni2: 00fef3.ffffffff.0
Width: 295
Flags: W
LayerCount: 2
Fore
SplineSet
263 127 m 2,0,1
 263 76 263 76 232 39 c 0,2,3
 201 0 201 0 150 0 c 2,4,-1
 -16 0 l 1,5,-1
 -16 78 l 1,6,-1
 127 78 l 2,7,8
 160 78 160 78 172.5 91 c 128,-1,9
 185 104 185 104 185 138 c 2,10,-1
 185 245 l 1,11,-1
 263 245 l 1,12,-1
 263 127 l 2,0,1
249 -149 m 0,13,14
 249 -169 249 -169 235 -182 c 128,-1,15
 221 -195 221 -195 200 -195 c 256,16,17
 179 -195 179 -195 163 -184 c 0,18,19
 146 -170 146 -170 146 -149 c 0,20,21
 146 -106 146 -106 195 -106 c 0,22,23
 249 -106 249 -106 249 -149 c 0,13,14
100 -149 m 0,24,25
 100 -169 100 -169 85 -182 c 128,-1,26
 70 -195 70 -195 50 -195 c 0,27,28
 28 -195 28 -195 13 -184 c 0,29,30
 -4 -170 -4 -170 -4 -149 c 0,31,32
 -4 -106 -4 -106 46 -106 c 0,33,34
 100 -106 100 -106 100 -149 c 0,24,25
EndSplineSet
EndChar

StartChar: uFEF4
Encoding: 64511 64511 204
AltUni2: 00fef4.ffffffff.0
Width: 320
Flags: W
LayerCount: 2
Fore
SplineSet
336 0 m 1,0,1
 288 0 288 0 265 4 c 0,2,3
 246 11 246 11 225 29 c 1,4,5
 187 0 187 0 150 0 c 2,6,-1
 -18 0 l 1,7,-1
 -18 78 l 1,8,-1
 127 78 l 2,9,10
 160 78 160 78 172.5 91 c 128,-1,11
 185 104 185 104 185 138 c 2,12,-1
 185 245 l 1,13,-1
 263 245 l 1,14,-1
 263 138 l 2,15,16
 263 100 263 100 281 87 c 0,17,18
 295 78 295 78 336 78 c 1,19,-1
 336 0 l 1,0,1
267 -148 m 0,20,21
 267 -169 267 -169 252.5 -181.5 c 128,-1,22
 238 -194 238 -194 219 -194 c 0,23,24
 196 -194 196 -194 181 -184 c 0,25,26
 163 -169 163 -169 163 -148 c 0,27,28
 163 -105 163 -105 213 -105 c 0,29,30
 267 -105 267 -105 267 -148 c 0,20,21
117 -148 m 0,31,32
 117 -169 117 -169 103 -181.5 c 128,-1,33
 89 -194 89 -194 68 -194 c 256,34,35
 47 -194 47 -194 30 -184 c 0,36,37
 13 -169 13 -169 13 -148 c 0,38,39
 13 -105 13 -105 63 -105 c 0,40,41
 117 -105 117 -105 117 -148 c 0,31,32
EndSplineSet
EndChar

StartChar: uFEF5
Encoding: 65269 65269 205
Width: 457
Flags: W
LayerCount: 2
Fore
SplineSet
406 119 m 2,0,1
 406 63 406 63 372.5 31.5 c 128,-1,2
 339 0 339 0 281 0 c 2,3,-1
 208 0 l 2,4,5
 56 0 56 0 56 119 c 2,6,-1
 56 500 l 1,7,-1
 134 500 l 1,8,-1
 134 153 l 2,9,10
 134 105 134 105 147.5 91.5 c 128,-1,11
 161 78 161 78 208 78 c 2,12,-1
 277 78 l 2,13,14
 311 78 311 78 322 97 c 0,15,16
 329 107 329 107 329 153 c 2,17,-1
 329 500 l 1,18,-1
 406 500 l 1,19,-1
 406 119 l 2,0,1
269 590 m 1,20,-1
 73 590 l 2,21,22
 61 590 61 590 28 586 c 0,23,24
 10 584 10 584 2 577 c 0,25,26
 -10 569 -10 569 -25 533 c 1,27,-1
 -96 562 l 1,28,29
 -67 622 -67 622 -46 640 c 0,30,31
 -19 661 -19 661 57 666 c 0,32,33
 80 668 80 668 168 668 c 0,34,35
 202 668 202 668 269 666 c 1,36,-1
 269 590 l 1,20,-1
EndSplineSet
Ligature2: "'liga' Standard Ligatures in Arabic lookup 5 subtable" uFEDF Hcircumflex
Substitution2: "'fina' Terminal Forms in Arabic lookup 4 subtable" uFEF6
Substitution2: "'aalt' Access All Alternates in Latin lookup 0 subtable" uFEF6
EndChar

StartChar: uFEF6
Encoding: 65270 65270 206
Width: 457
Flags: W
LayerCount: 2
Fore
SplineSet
470 0 m 1,0,1
 402 0 402 0 363 51 c 1,2,3
 324 0 324 0 259 0 c 2,4,-1
 187 0 l 2,5,6
 34 0 34 0 34 119 c 2,7,-1
 34 500 l 1,8,-1
 110 500 l 1,9,-1
 110 153 l 2,10,11
 110 102 110 102 125 87 c 0,12,13
 134 78 134 78 187 78 c 2,14,-1
 253 78 l 2,15,16
 287 78 287 78 299 97 c 0,17,18
 306 108 306 108 306 153 c 2,19,-1
 306 500 l 1,20,-1
 384 500 l 1,21,-1
 384 146 l 2,22,23
 384 78 384 78 470 78 c 1,24,-1
 470 0 l 1,0,1
241 618 m 1,25,-1
 46 618 l 2,26,27
 31 618 31 618 0 614 c 0,28,29
 -19 612 -19 612 -28 606 c 0,30,31
 -37 598 -37 598 -54 562 c 1,32,-1
 -125 591 l 1,33,34
 -96 650 -96 650 -73 668 c 0,35,36
 -48 689 -48 689 28 694 c 0,37,38
 50 696 50 696 140 696 c 0,39,40
 172 696 172 696 241 695 c 1,41,-1
 241 618 l 1,25,-1
EndSplineSet
Ligature2: "'liga' Standard Ligatures in Arabic lookup 5 subtable" uFEE0 Hcircumflex
EndChar

StartChar: uFEF7
Encoding: 65271 65271 207
Width: 457
Flags: W
LayerCount: 2
Fore
SplineSet
406 119 m 2,0,1
 406 63 406 63 372.5 31.5 c 128,-1,2
 339 0 339 0 281 0 c 2,3,-1
 208 0 l 2,4,5
 56 0 56 0 56 119 c 2,6,-1
 56 500 l 1,7,-1
 134 500 l 1,8,-1
 134 153 l 2,9,10
 134 105 134 105 147.5 91.5 c 128,-1,11
 161 78 161 78 208 78 c 2,12,-1
 277 78 l 2,13,14
 311 78 311 78 322 97 c 0,15,16
 329 107 329 107 329 153 c 2,17,-1
 329 500 l 1,18,-1
 406 500 l 1,19,-1
 406 119 l 2,0,1
149 615 m 1,20,-1
 44 562 l 1,21,-1
 35 579 l 1,22,-1
 71 600 l 1,23,24
 39 616 39 616 39 647 c 0,25,26
 39 669 39 669 54 684.5 c 128,-1,27
 69 700 69 700 90 700 c 0,28,29
 101 700 101 700 120 691 c 1,30,-1
 112 676 l 1,31,32
 104 682 104 682 89 682 c 0,33,34
 59 682 59 682 59 646 c 0,35,36
 59 616 59 616 88 616 c 0,37,38
 110 616 110 616 142 634 c 1,39,-1
 149 615 l 1,20,-1
EndSplineSet
Ligature2: "'liga' Standard Ligatures in Arabic lookup 5 subtable" uFEDF uFE84
Substitution2: "'fina' Terminal Forms in Arabic lookup 4 subtable" uFEF8
Substitution2: "'aalt' Access All Alternates in Latin lookup 0 subtable" uFEF8
EndChar

StartChar: uFEF8
Encoding: 65272 65272 208
Width: 457
Flags: W
LayerCount: 2
Fore
SplineSet
470 0 m 1,0,1
 402 0 402 0 363 51 c 1,2,3
 324 0 324 0 259 0 c 2,4,-1
 187 0 l 2,5,6
 34 0 34 0 34 119 c 2,7,-1
 34 500 l 1,8,-1
 110 500 l 1,9,-1
 110 153 l 2,10,11
 110 102 110 102 125 87 c 0,12,13
 134 78 134 78 187 78 c 2,14,-1
 253 78 l 2,15,16
 287 78 287 78 299 97 c 0,17,18
 306 108 306 108 306 153 c 2,19,-1
 306 500 l 1,20,-1
 384 500 l 1,21,-1
 384 146 l 2,22,23
 384 78 384 78 470 78 c 1,24,-1
 470 0 l 1,0,1
135 611 m 1,25,-1
 28 559 l 1,26,-1
 19 575 l 1,27,-1
 55 597 l 1,28,29
 23 612 23 612 23 646 c 0,30,31
 23 666 23 666 38 681 c 128,-1,32
 53 696 53 696 74 696 c 0,33,34
 85 696 85 696 104 688 c 1,35,-1
 97 672 l 1,36,37
 88 679 88 679 73 679 c 0,38,39
 43 679 43 679 43 644 c 0,40,41
 43 612 43 612 72 612 c 0,42,43
 96 612 96 612 125 631 c 1,44,-1
 135 611 l 1,25,-1
EndSplineSet
Ligature2: "'liga' Standard Ligatures in Arabic lookup 5 subtable" uFEE0 uFE84
EndChar

StartChar: uFEF9
Encoding: 65273 65273 209
Width: 457
Flags: W
LayerCount: 2
Fore
SplineSet
406 119 m 2,0,1
 406 63 406 63 372.5 31.5 c 128,-1,2
 339 0 339 0 281 0 c 2,3,-1
 208 0 l 2,4,5
 56 0 56 0 56 119 c 2,6,-1
 56 500 l 1,7,-1
 134 500 l 1,8,-1
 134 153 l 2,9,10
 134 105 134 105 147.5 91.5 c 128,-1,11
 161 78 161 78 208 78 c 2,12,-1
 277 78 l 2,13,14
 311 78 311 78 322 97 c 0,15,16
 329 107 329 107 329 153 c 2,17,-1
 329 500 l 1,18,-1
 406 500 l 1,19,-1
 406 119 l 2,0,1
191 -143 m 1,20,-1
 85 -197 l 1,21,-1
 76 -180 l 1,22,-1
 112 -159 l 1,23,24
 81 -143 81 -143 81 -110 c 0,25,26
 81 -90 81 -90 95.5 -75 c 128,-1,27
 110 -60 110 -60 131 -60 c 0,28,29
 143 -60 143 -60 162 -67 c 1,30,-1
 154 -84 l 1,31,32
 145 -77 145 -77 130 -77 c 0,33,34
 101 -77 101 -77 101 -112 c 0,35,36
 101 -143 101 -143 129 -143 c 0,37,38
 152 -143 152 -143 183 -124 c 1,39,-1
 191 -143 l 1,20,-1
EndSplineSet
Ligature2: "'liga' Standard Ligatures in Arabic lookup 5 subtable" uFEDF uFE88
Substitution2: "'fina' Terminal Forms in Arabic lookup 4 subtable" uFEFA
Substitution2: "'aalt' Access All Alternates in Latin lookup 0 subtable" uFEFA
EndChar

StartChar: uFEFA
Encoding: 65274 65274 210
Width: 457
Flags: W
LayerCount: 2
Fore
SplineSet
470 0 m 1,0,1
 402 0 402 0 363 51 c 1,2,3
 324 0 324 0 259 0 c 2,4,-1
 187 0 l 2,5,6
 34 0 34 0 34 119 c 2,7,-1
 34 500 l 1,8,-1
 110 500 l 1,9,-1
 110 153 l 2,10,11
 110 102 110 102 125 87 c 0,12,13
 134 78 134 78 187 78 c 2,14,-1
 253 78 l 2,15,16
 287 78 287 78 299 97 c 0,17,18
 306 108 306 108 306 153 c 2,19,-1
 306 500 l 1,20,-1
 384 500 l 1,21,-1
 384 146 l 2,22,23
 384 78 384 78 470 78 c 1,24,-1
 470 0 l 1,0,1
160 -141 m 1,25,-1
 53 -193 l 1,26,-1
 45 -177 l 1,27,-1
 81 -155 l 1,28,29
 49 -139 49 -139 49 -108 c 0,30,31
 49 -87 49 -87 64 -71.5 c 128,-1,32
 79 -56 79 -56 101 -56 c 0,33,34
 109 -56 109 -56 129 -64 c 1,35,-1
 123 -80 l 1,36,37
 112 -73 112 -73 99 -73 c 0,38,39
 68 -73 68 -73 68 -109 c 0,40,41
 68 -139 68 -139 98 -139 c 0,42,43
 121 -139 121 -139 149 -121 c 1,44,-1
 160 -141 l 1,25,-1
EndSplineSet
Ligature2: "'liga' Standard Ligatures in Arabic lookup 5 subtable" uFEE0 uFE88
EndChar

StartChar: uFEFB
Encoding: 65275 65275 211
Width: 457
Flags: W
LayerCount: 2
Fore
SplineSet
406 119 m 2,0,1
 406 63 406 63 372.5 31.5 c 128,-1,2
 339 0 339 0 281 0 c 2,3,-1
 208 0 l 2,4,5
 56 0 56 0 56 119 c 2,6,-1
 56 500 l 1,7,-1
 134 500 l 1,8,-1
 134 153 l 2,9,10
 134 105 134 105 147.5 91.5 c 128,-1,11
 161 78 161 78 208 78 c 2,12,-1
 277 78 l 2,13,14
 311 78 311 78 322 97 c 0,15,16
 329 107 329 107 329 153 c 2,17,-1
 329 500 l 1,18,-1
 406 500 l 1,19,-1
 406 119 l 2,0,1
EndSplineSet
Ligature2: "'liga' Standard Ligatures in Arabic lookup 5 subtable" uFEDF uFE8E
Substitution2: "'fina' Terminal Forms in Arabic lookup 4 subtable" uFEFC
Substitution2: "'aalt' Access All Alternates in Latin lookup 0 subtable" uFEFC
EndChar

StartChar: uFEFC
Encoding: 65276 65276 212
Width: 457
Flags: W
LayerCount: 2
Fore
SplineSet
470 0 m 1,0,1
 402 0 402 0 363 51 c 1,2,3
 324 0 324 0 259 0 c 2,4,-1
 187 0 l 2,5,6
 34 0 34 0 34 119 c 2,7,-1
 34 500 l 1,8,-1
 110 500 l 1,9,-1
 110 153 l 2,10,11
 110 102 110 102 125 87 c 0,12,13
 134 78 134 78 187 78 c 2,14,-1
 253 78 l 2,15,16
 287 78 287 78 299 97 c 0,17,18
 306 108 306 108 306 153 c 2,19,-1
 306 500 l 1,20,-1
 384 500 l 1,21,-1
 384 146 l 2,22,23
 384 78 384 78 470 78 c 1,24,-1
 470 0 l 1,0,1
EndSplineSet
Ligature2: "'liga' Standard Ligatures in Arabic lookup 5 subtable" uFEE0 uFE8E
EndChar

StartChar: u0649
Encoding: 1609 1609 213
AltUni2: 00feef.ffffffff.0
Width: 559
Flags: W
LayerCount: 2
Fore
SplineSet
531 4 m 0,0,1
 531 -110 531 -110 448 -165 c 0,2,3
 399 -197 399 -197 340 -197 c 2,4,-1
 220 -197 l 2,5,6
 139 -197 139 -197 85 -136 c 0,7,8
 34 -77 34 -77 34 4 c 2,9,-1
 34 165 l 1,10,-1
 107 165 l 1,11,-1
 107 -5 l 2,12,13
 107 -57 107 -57 146 -90 c 0,14,15
 183 -121 183 -121 234 -121 c 2,16,-1
 335 -121 l 2,17,18
 381 -121 381 -121 417 -91 c 0,19,20
 456 -60 456 -60 456 -15 c 0,21,22
 456 24 456 24 403 36 c 0,23,24
 389 39 389 39 384 39 c 2,25,-1
 275 39 l 1,26,-1
 275 173 l 2,27,28
 275 233 275 233 314 272.5 c 128,-1,29
 353 312 353 312 413 312 c 2,30,-1
 507 312 l 1,31,-1
 510 239 l 1,32,-1
 417 239 l 2,33,34
 374 239 374 239 358 202 c 0,35,36
 351 183 351 183 349 111 c 1,37,38
 441 111 441 111 472 102 c 0,39,40
 531 78 531 78 531 4 c 0,0,1
EndSplineSet
Substitution2: "'fina' Terminal Forms in Arabic lookup 4 subtable" uFEF0
Substitution2: "'aalt' Access All Alternates in Latin lookup 0 subtable" uFEF0
EndChar

StartChar: uFEF0
Encoding: 65264 65264 214
Width: 559
Flags: W
LayerCount: 2
Fore
SplineSet
572 0 m 1,0,-1
 499 0 l 1,1,-1
 503 -38 l 1,2,3
 503 -106 503 -106 451 -152 c 0,4,5
 401 -197 401 -197 332 -197 c 2,6,-1
 212 -197 l 2,7,8
 120 -197 120 -197 66 -129 c 0,9,10
 19 -67 19 -67 19 28 c 2,11,-1
 19 167 l 1,12,-1
 97 167 l 1,13,-1
 97 -3 l 2,14,15
 97 -59 97 -59 136 -90 c 0,16,17
 171 -119 171 -119 229 -119 c 2,18,-1
 329 -119 l 2,19,20
 370 -119 370 -119 397 -97 c 0,21,22
 427 -73 427 -73 427 -31 c 0,23,24
 427 -8 427 -8 354 -1 c 0,25,26
 342 0 342 0 264 0 c 1,27,-1
 258 78 l 1,28,-1
 572 78 l 1,29,-1
 572 0 l 1,0,-1
EndSplineSet
EndChar

StartChar: uFDF2
Encoding: 65010 65010 215
Width: 977
Flags: W
LayerCount: 2
Fore
SplineSet
710 613 m 1,0,1
 710 587 710 587 695 568 c 0,2,3
 679 548 679 548 652 548 c 0,4,5
 633 548 633 548 605 572 c 1,6,7
 586 548 586 548 560 548 c 0,8,9
 509 548 509 548 506 613 c 1,10,-1
 525 613 l 1,11,12
 525 570 525 570 560 570 c 0,13,14
 594 570 594 570 596 613 c 1,15,-1
 617 613 l 1,16,17
 617 570 617 570 653 570 c 256,18,19
 689 570 689 570 689 613 c 1,20,-1
 710 613 l 1,0,1
921 119 m 2,21,22
 921 63 921 63 887.5 31.5 c 128,-1,23
 854 0 854 0 796 0 c 2,24,-1
 722 0 l 2,25,26
 646 0 646 0 607 29 c 1,27,28
 579 8 579 8 557 3 c 0,29,30
 543 0 543 0 463 0 c 0,31,32
 412 0 412 0 388 13 c 0,33,34
 377 21 377 21 308 85 c 1,35,36
 263 -10 263 -10 164 -10 c 0,37,38
 100 -10 100 -10 58 32.5 c 128,-1,39
 16 75 16 75 16 141 c 0,40,41
 16 208 16 208 106 299 c 1,42,-1
 85 323 l 1,43,-1
 137 377 l 1,44,-1
 370 128 l 2,45,46
 399 97 399 97 410 90 c 0,47,48
 432 77 432 77 510 77 c 0,49,50
 548 77 548 77 560 98 c 0,51,52
 567 112 567 112 567 153 c 2,53,-1
 567 500 l 1,54,-1
 646 500 l 1,55,-1
 646 138 l 2,56,57
 646 95 646 95 671 85 c 0,58,59
 688 78 688 78 791 78 c 0,60,61
 825 78 825 78 838 97 c 0,62,63
 844 107 844 107 844 153 c 2,64,-1
 844 500 l 1,65,-1
 921 500 l 1,66,-1
 921 119 l 2,21,22
240 135 m 0,67,68
 240 163 240 163 225 178 c 2,69,-1
 163 241 l 1,70,71
 126 206 126 206 116 194 c 0,72,73
 93 165 93 165 93 135 c 0,74,75
 93 104 93 104 113.5 85 c 128,-1,76
 134 66 134 66 165 66 c 0,77,78
 195 66 195 66 217.5 85.5 c 128,-1,79
 240 105 240 105 240 135 c 0,67,68
EndSplineSet
Ligature2: "'liga' Standard Ligatures in Arabic lookup 5 subtable" uFEDF uFEE0 uFEEA
EndChar

StartChar: periodcentered
Encoding: 183 183 216
AltUni2: 002219.ffffffff.0 0002d9.ffffffff.0
Width: 223
Flags: W
LayerCount: 2
Fore
SplineSet
109 283 m 0,0,1
 67 283 67 283 67 328 c 0,2,3
 67 375 67 375 109 375 c 0,4,5
 150 375 150 375 150 328 c 0,6,7
 150 310 150 310 139.5 296.5 c 128,-1,8
 129 283 129 283 109 283 c 0,0,1
EndSplineSet
EndChar

StartChar: exclam
Encoding: 33 33 218
Width: 240
Flags: W
LayerCount: 2
Fore
SplineSet
78 622 m 1,0,-1
 162 622 l 1,1,-1
 162 417 l 1,2,-1
 143 147 l 1,3,-1
 98 147 l 1,4,-1
 78 417 l 1,5,-1
 78 622 l 1,0,-1
78 0 m 1,6,-1
 78 89 l 1,7,-1
 162 89 l 1,8,-1
 162 0 l 1,9,-1
 78 0 l 1,6,-1
EndSplineSet
EndChar

StartChar: quotedbl
Encoding: 34 34 219
Width: 308
Flags: W
LayerCount: 2
Fore
SplineSet
43 622 m 1,0,-1
 119 622 l 1,1,-1
 106 373 l 1,2,-1
 55 373 l 1,3,-1
 43 622 l 1,0,-1
187 622 m 1,4,-1
 265 622 l 1,5,-1
 252 373 l 1,6,-1
 201 373 l 1,7,-1
 187 622 l 1,4,-1
EndSplineSet
EndChar

StartChar: numbersign
Encoding: 35 35 220
Width: 481
Flags: W
LayerCount: 2
Fore
SplineSet
0 188 m 1,0,-1
 14 238 l 1,1,-1
 111 238 l 1,2,-1
 150 384 l 1,3,-1
 53 384 l 1,4,-1
 66 432 l 1,5,-1
 165 432 l 1,6,-1
 215 622 l 1,7,-1
 277 622 l 1,8,-1
 228 432 l 1,9,-1
 320 432 l 1,10,-1
 373 622 l 1,11,-1
 434 622 l 1,12,-1
 384 432 l 1,13,-1
 481 432 l 1,14,-1
 469 384 l 1,15,-1
 371 384 l 1,16,-1
 330 238 l 1,17,-1
 428 238 l 1,18,-1
 416 188 l 1,19,-1
 318 188 l 1,20,-1
 267 0 l 1,21,-1
 203 0 l 1,22,-1
 254 188 l 1,23,-1
 162 188 l 1,24,-1
 109 0 l 1,25,-1
 48 0 l 1,26,-1
 98 188 l 1,27,-1
 0 188 l 1,0,-1
174 238 m 1,28,-1
 268 238 l 1,29,-1
 308 384 l 1,30,-1
 213 384 l 1,31,-1
 174 238 l 1,28,-1
EndSplineSet
EndChar

StartChar: dollar
Encoding: 36 36 221
Width: 481
Flags: W
LayerCount: 2
Fore
SplineSet
221 275 m 1,0,1
 163 288 163 288 124 306.5 c 128,-1,2
 85 325 85 325 63 357 c 128,-1,3
 41 389 41 389 41 437 c 0,4,5
 41 479 41 479 56.5 511.5 c 128,-1,6
 72 544 72 544 97.5 564.5 c 128,-1,7
 123 585 123 585 152.5 595.5 c 128,-1,8
 182 606 182 606 221 609 c 1,9,-1
 221 671 l 1,10,-1
 263 671 l 1,11,-1
 263 609 l 1,12,13
 320 604 320 604 360.5 582 c 128,-1,14
 401 560 401 560 423 519 c 0,15,16
 437 488 437 488 438 446 c 1,17,-1
 364 446 l 1,18,19
 357 492 357 492 334 515 c 128,-1,20
 311 538 311 538 263 546 c 1,21,-1
 263 343 l 1,22,23
 320 328 320 328 345 318 c 0,24,25
 386 304 386 304 408 283 c 128,-1,26
 430 262 430 262 442.5 232.5 c 128,-1,27
 455 203 455 203 455 167 c 0,28,29
 455 121 455 121 433.5 79 c 128,-1,30
 412 37 412 37 370 13.5 c 128,-1,31
 328 -10 328 -10 263 -14 c 1,32,-1
 263 -84 l 1,33,-1
 221 -84 l 1,34,-1
 221 -14 l 1,35,36
 150 -10 150 -10 106 16.5 c 128,-1,37
 62 43 62 43 43 90 c 0,38,39
 27 126 27 126 28 185 c 1,40,-1
 106 185 l 1,41,42
 106 141 106 141 117.5 114 c 128,-1,43
 129 87 129 87 153.5 71 c 128,-1,44
 178 55 178 55 221 48 c 1,45,-1
 221 275 l 1,0,1
221 546 m 1,46,47
 172 544 172 544 145.5 517 c 128,-1,48
 119 490 119 490 119 447 c 0,49,50
 119 412 119 412 143 386 c 128,-1,51
 167 360 167 360 221 352 c 1,52,-1
 221 546 l 1,46,47
263 48 m 1,53,54
 288 50 288 50 305.5 55.5 c 128,-1,55
 323 61 323 61 338.5 73 c 128,-1,56
 354 85 354 85 365.5 106.5 c 128,-1,57
 377 128 377 128 377 158 c 0,58,59
 377 197 377 197 352.5 222.5 c 128,-1,60
 328 248 328 248 263 267 c 1,61,-1
 263 48 l 1,53,54
EndSplineSet
EndChar

StartChar: percent
Encoding: 37 37 222
Width: 771
Flags: W
LayerCount: 2
Fore
SplineSet
531 634 m 1,0,-1
 588 634 l 1,1,-1
 206 -35 l 1,2,-1
 150 -35 l 1,3,-1
 531 634 l 1,0,-1
31 456 m 0,4,5
 31 531 31 531 70 570 c 128,-1,6
 109 609 109 609 176 609 c 0,7,8
 240 609 240 609 277 570 c 128,-1,9
 314 531 314 531 314 458 c 0,10,11
 314 410 314 410 297.5 373 c 128,-1,12
 281 336 281 336 247 318.5 c 128,-1,13
 213 301 213 301 172 301 c 0,14,15
 109 301 109 301 70 341.5 c 128,-1,16
 31 382 31 382 31 456 c 0,4,5
100 456 m 0,17,18
 100 399 100 399 121.5 375.5 c 128,-1,19
 143 352 143 352 174 352 c 0,20,21
 206 352 206 352 226.5 375.5 c 128,-1,22
 247 399 247 399 247 455 c 0,23,24
 247 510 247 510 226.5 535 c 128,-1,25
 206 560 206 560 174 560 c 0,26,27
 143 560 143 560 121.5 534 c 128,-1,28
 100 508 100 508 100 456 c 0,17,18
434 144 m 256,29,30
 434 219 434 219 472 259 c 128,-1,31
 510 299 510 299 575 299 c 0,32,33
 642 299 642 299 679 259 c 128,-1,34
 716 219 716 219 716 146 c 0,35,36
 716 98 716 98 699.5 60.5 c 128,-1,37
 683 23 683 23 647.5 5.5 c 128,-1,38
 612 -12 612 -12 573 -12 c 0,39,40
 510 -12 510 -12 472 28.5 c 128,-1,41
 434 69 434 69 434 144 c 256,29,30
499 144 m 0,42,43
 499 89 499 89 520.5 64 c 128,-1,44
 542 39 542 39 575 39 c 0,45,46
 607 39 607 39 627.5 64 c 128,-1,47
 648 89 648 89 648 143 c 0,48,49
 648 199 648 199 627.5 223 c 128,-1,50
 607 247 607 247 575 247 c 0,51,52
 542 247 542 247 520.5 222 c 128,-1,53
 499 197 499 197 499 144 c 0,42,43
EndSplineSet
EndChar

StartChar: ampersand
Encoding: 38 38 223
Width: 577
Flags: W
LayerCount: 2
Fore
SplineSet
476 0 m 1,0,-1
 419 70 l 1,1,2
 391 41 391 41 372.5 27.5 c 128,-1,3
 354 14 354 14 332.5 4 c 128,-1,4
 311 -6 311 -6 287 -10 c 128,-1,5
 263 -14 263 -14 234 -14 c 0,6,7
 150 -14 150 -14 101.5 33 c 128,-1,8
 53 80 53 80 53 156 c 0,9,10
 53 201 53 201 68.5 233 c 128,-1,11
 84 265 84 265 110.5 288 c 128,-1,12
 137 311 137 311 195 347 c 1,13,14
 160 386 160 386 144.5 418.5 c 128,-1,15
 129 451 129 451 129 485 c 0,16,17
 129 544 129 544 169 583 c 128,-1,18
 209 622 209 622 277 622 c 0,19,20
 343 622 343 622 379.5 586.5 c 128,-1,21
 416 551 416 551 416 495 c 0,22,23
 416 460 416 460 402.5 430.5 c 128,-1,24
 389 401 389 401 368 380.5 c 128,-1,25
 347 360 347 360 304 330 c 1,26,-1
 417 195 l 1,27,28
 432 230 432 230 442 293 c 1,29,-1
 515 293 l 1,30,31
 508 240 508 240 496.5 203.5 c 128,-1,32
 485 167 485 167 464 133 c 1,33,-1
 575 0 l 1,34,-1
 476 0 l 1,0,-1
265 380 m 1,35,36
 308 408 308 408 325.5 435 c 128,-1,37
 343 462 343 462 343 490 c 0,38,39
 343 522 343 522 324.5 541 c 128,-1,40
 306 560 306 560 273 560 c 256,41,42
 240 560 240 560 221.5 541 c 128,-1,43
 203 522 203 522 203 492 c 0,44,45
 203 469 203 469 215.5 444 c 128,-1,46
 228 419 228 419 265 380 c 1,35,36
236 293 m 1,47,48
 197 270 197 270 174.5 249.5 c 128,-1,49
 152 229 152 229 140.5 207 c 128,-1,50
 129 185 129 185 129 158 c 0,51,52
 129 111 129 111 162 79.5 c 128,-1,53
 195 48 195 48 245 48 c 0,54,55
 286 48 286 48 319 67.5 c 128,-1,56
 352 87 352 87 378 123 c 1,57,-1
 236 293 l 1,47,48
EndSplineSet
EndChar

StartChar: quotesingle
Encoding: 39 39 224
Width: 165
Flags: W
LayerCount: 2
Fore
SplineSet
45 622 m 1,0,-1
 121 622 l 1,1,-1
 106 373 l 1,2,-1
 57 373 l 1,3,-1
 45 622 l 1,0,-1
EndSplineSet
EndChar

StartChar: parenleft
Encoding: 40 40 225
Width: 288
Flags: W
LayerCount: 2
Fore
SplineSet
203 631 m 1,0,-1
 254 631 l 1,1,2
 206 540 206 540 184.5 484 c 128,-1,3
 163 428 163 428 150 367 c 0,4,5
 141 308 141 308 141 226 c 0,6,7
 141 160 141 160 147.5 112 c 128,-1,8
 154 64 154 64 168 18.5 c 128,-1,9
 182 -27 182 -27 201.5 -71 c 128,-1,10
 221 -115 221 -115 254 -180 c 1,11,-1
 203 -180 l 1,12,13
 160 -113 160 -113 133 -64 c 0,14,15
 100 4 100 4 81 75 c 128,-1,16
 62 146 62 146 62 226 c 0,17,18
 62 308 62 308 84 386 c 0,19,20
 102 451 102 451 135 519 c 0,21,22
 162 568 162 568 203 631 c 1,0,-1
EndSplineSet
EndChar

StartChar: parenright
Encoding: 41 41 226
Width: 288
Flags: W
LayerCount: 2
Fore
SplineSet
85 -180 m 1,0,-1
 33 -180 l 1,1,2
 82 -89 82 -89 104 -32 c 128,-1,3
 126 25 126 25 137 85 c 0,4,5
 147 146 147 146 147 226 c 0,6,7
 147 291 147 291 140 339 c 128,-1,8
 133 387 133 387 119.5 432.5 c 128,-1,9
 106 478 106 478 86.5 522 c 128,-1,10
 67 566 67 566 33 631 c 1,11,-1
 85 631 l 1,12,13
 129 565 129 565 154 515 c 0,14,15
 188 447 188 447 207 376.5 c 128,-1,16
 226 306 226 306 226 226 c 0,17,18
 226 144 226 144 206.5 72 c 128,-1,19
 187 0 187 0 152 -66 c 0,20,21
 128 -117 128 -117 85 -180 c 1,0,-1
EndSplineSet
EndChar

StartChar: asterisk
Encoding: 42 42 227
Width: 338
Flags: W
LayerCount: 2
Fore
SplineSet
143 527 m 1,0,-1
 143 622 l 1,1,-1
 195 622 l 1,2,-1
 195 527 l 1,3,-1
 284 556 l 1,4,-1
 302 512 l 1,5,-1
 209 483 l 1,6,-1
 267 401 l 1,7,-1
 224 373 l 1,8,-1
 167 453 l 1,9,-1
 111 373 l 1,10,-1
 70 401 l 1,11,-1
 128 483 l 1,12,-1
 35 512 l 1,13,-1
 53 556 l 1,14,-1
 143 527 l 1,0,-1
EndSplineSet
EndChar

StartChar: plus
Encoding: 43 43 228
Width: 507
Flags: W
LayerCount: 2
Fore
SplineSet
217 0 m 1,0,-1
 217 183 l 1,1,-1
 33 183 l 1,2,-1
 33 256 l 1,3,-1
 217 256 l 1,4,-1
 217 438 l 1,5,-1
 289 438 l 1,6,-1
 289 256 l 1,7,-1
 473 256 l 1,8,-1
 473 183 l 1,9,-1
 289 183 l 1,10,-1
 289 0 l 1,11,-1
 217 0 l 1,0,-1
EndSplineSet
EndChar

StartChar: comma
Encoding: 44 44 229
Width: 240
Flags: W
LayerCount: 2
Fore
SplineSet
76 0 m 1,0,-1
 76 92 l 1,1,-1
 165 92 l 1,2,-1
 165 8 l 2,3,4
 165 -53 165 -53 144.5 -81 c 128,-1,5
 124 -109 124 -109 76 -126 c 1,6,-1
 76 -86 l 1,7,8
 90 -82 90 -82 99 -73 c 128,-1,9
 108 -64 108 -64 113.5 -48.5 c 128,-1,10
 119 -33 119 -33 121 0 c 1,11,-1
 76 0 l 1,0,-1
EndSplineSet
EndChar

StartChar: hyphen
Encoding: 45 45 230
Width: 288
Flags: W
LayerCount: 2
Fore
SplineSet
37 203 m 1,0,-1
 37 281 l 1,1,-1
 250 281 l 1,2,-1
 250 203 l 1,3,-1
 37 203 l 1,0,-1
EndSplineSet
EndChar

StartChar: period
Encoding: 46 46 231
Width: 240
Flags: W
LayerCount: 2
Fore
SplineSet
76 0 m 1,0,-1
 76 92 l 1,1,-1
 165 92 l 1,2,-1
 165 0 l 1,3,-1
 76 0 l 1,0,-1
EndSplineSet
EndChar

StartChar: slash
Encoding: 47 47 232
Width: 240
Flags: W
LayerCount: 2
Fore
SplineSet
197 622 m 1,0,-1
 262 622 l 1,1,-1
 64 0 l 1,2,-1
 0 0 l 1,3,-1
 197 622 l 1,0,-1
EndSplineSet
EndChar

StartChar: zero
Encoding: 48 48 233
Width: 481
Flags: W
LayerCount: 2
Fore
SplineSet
31 293 m 0,0,1
 31 462 31 462 98 544 c 0,2,3
 150 609 150 609 245 609 c 0,4,5
 289 609 289 609 323 594 c 128,-1,6
 357 579 357 579 382 553 c 0,7,8
 399 533 399 533 415.5 498.5 c 128,-1,9
 432 464 432 464 440.5 413 c 128,-1,10
 449 362 449 362 449 302 c 0,11,12
 449 133 449 133 384 51 c 0,13,14
 330 -14 330 -14 238 -14 c 0,15,16
 174 -14 174 -14 127 20.5 c 128,-1,17
 80 55 80 55 55.5 128 c 128,-1,18
 31 201 31 201 31 293 c 0,0,1
115 291 m 0,19,20
 115 147 115 147 152 94 c 0,21,22
 183 53 183 53 240 53 c 0,23,24
 295 53 295 53 325 96 c 0,25,26
 366 154 366 154 366 301 c 0,27,28
 366 446 366 446 328 499 c 0,29,30
 299 540 299 540 242 540 c 0,31,32
 176 540 176 540 145.5 479.5 c 128,-1,33
 115 419 115 419 115 291 c 0,19,20
EndSplineSet
EndChar

StartChar: one
Encoding: 49 49 234
Width: 481
Flags: W
LayerCount: 2
Fore
SplineSet
226 0 m 1,0,-1
 226 436 l 1,1,-1
 84 436 l 1,2,-1
 84 492 l 1,3,4
 146 497 146 497 172.5 506 c 128,-1,5
 199 515 199 515 217.5 539 c 128,-1,6
 236 563 236 563 247 609 c 1,7,-1
 309 609 l 1,8,-1
 309 0 l 1,9,-1
 226 0 l 1,0,-1
EndSplineSet
EndChar

StartChar: two
Encoding: 50 50 235
Width: 481
Flags: W
LayerCount: 2
Fore
SplineSet
43 391 m 1,0,1
 43 438 43 438 51 471 c 0,2,3
 62 514 62 514 90.5 545.5 c 128,-1,4
 119 577 119 577 159 593 c 128,-1,5
 199 609 199 609 248 609 c 0,6,7
 341 609 341 609 393.5 558.5 c 128,-1,8
 446 508 446 508 446 427 c 0,9,10
 446 389 446 389 435.5 361.5 c 128,-1,11
 425 334 425 334 402.5 308 c 128,-1,12
 380 282 380 282 345 260 c 0,13,14
 328 248 328 248 245 203 c 0,15,16
 211 185 211 185 185 167 c 0,17,18
 160 148 160 148 146 133 c 0,19,20
 131 119 131 119 125 105.5 c 128,-1,21
 119 92 119 92 113 72 c 1,22,-1
 444 72 l 1,23,-1
 444 0 l 1,24,-1
 27 0 l 1,25,26
 33 66 33 66 44 100.5 c 128,-1,27
 55 135 55 135 76.5 162 c 128,-1,28
 98 189 98 189 135 219 c 0,29,30
 152 232 152 232 217 268 c 0,31,32
 279 304 279 304 291 312 c 0,33,34
 320 332 320 332 334 347 c 256,35,36
 348 362 348 362 355 381.5 c 128,-1,37
 362 401 362 401 362 427 c 0,38,39
 362 478 362 478 330.5 509 c 128,-1,40
 299 540 299 540 242 540 c 0,41,42
 180 540 180 540 152 501 c 128,-1,43
 124 462 124 462 121 391 c 1,44,-1
 43 391 l 1,0,1
EndSplineSet
EndChar

StartChar: three
Encoding: 51 51 236
Width: 481
Flags: W
LayerCount: 2
Fore
SplineSet
100 187 m 1,0,1
 104 119 104 119 135.5 86 c 128,-1,2
 167 53 167 53 229 53 c 256,3,4
 291 53 291 53 326.5 86 c 128,-1,5
 362 119 362 119 362 170 c 0,6,7
 362 201 362 201 352.5 223 c 128,-1,8
 343 245 343 245 322 258 c 128,-1,9
 301 271 301 271 263 277 c 0,10,11
 242 281 242 281 187 281 c 1,12,-1
 187 343 l 1,13,14
 248 343 248 343 278.5 351 c 128,-1,15
 309 359 309 359 326 383 c 128,-1,16
 343 407 343 407 343 440 c 0,17,18
 343 485 343 485 313.5 512.5 c 128,-1,19
 284 540 284 540 232 540 c 0,20,21
 195 540 195 540 168 525 c 128,-1,22
 141 510 141 510 126 481.5 c 128,-1,23
 111 453 111 453 109 407 c 1,24,-1
 37 407 l 1,25,26
 39 453 39 453 48 481 c 0,27,28
 59 524 59 524 86 553.5 c 128,-1,29
 113 583 113 583 151 596 c 128,-1,30
 189 609 189 609 232 609 c 0,31,32
 321 609 321 609 371 563 c 128,-1,33
 421 517 421 517 421 446 c 0,34,35
 421 399 421 399 400.5 369.5 c 128,-1,36
 380 340 380 340 340 321 c 1,37,38
 373 312 373 312 389 299 c 0,39,40
 416 279 416 279 431 250 c 128,-1,41
 446 221 446 221 446 180 c 0,42,43
 446 124 446 124 418.5 76.5 c 128,-1,44
 391 29 391 29 341 7.5 c 128,-1,45
 291 -14 291 -14 229 -14 c 0,46,47
 176 -14 176 -14 138 1 c 128,-1,48
 100 16 100 16 75.5 41.5 c 128,-1,49
 51 67 51 67 38 102 c 128,-1,50
 25 137 25 137 21 187 c 1,51,-1
 100 187 l 1,0,1
EndSplineSet
EndChar

StartChar: four
Encoding: 52 52 237
Width: 481
Flags: W
LayerCount: 2
Fore
SplineSet
286 0 m 1,0,-1
 286 147 l 1,1,-1
 21 147 l 1,2,-1
 21 224 l 1,3,-1
 301 609 l 1,4,-1
 364 609 l 1,5,-1
 364 215 l 1,6,-1
 453 215 l 1,7,-1
 453 147 l 1,8,-1
 364 147 l 1,9,-1
 364 0 l 1,10,-1
 286 0 l 1,0,-1
286 215 m 1,11,-1
 286 488 l 1,12,-1
 92 215 l 1,13,-1
 286 215 l 1,11,-1
EndSplineSet
EndChar

StartChar: five
Encoding: 53 53 238
Width: 481
Flags: W
LayerCount: 2
Fore
SplineSet
50 270 m 1,0,-1
 100 595 l 1,1,-1
 412 595 l 1,2,-1
 412 522 l 1,3,-1
 152 522 l 1,4,-1
 128 354 l 1,5,6
 152 373 152 373 180 383 c 128,-1,7
 208 393 208 393 242 393 c 0,8,9
 316 393 316 393 373 352 c 0,10,11
 446 295 446 295 446 197 c 0,12,13
 446 141 446 141 420.5 91 c 128,-1,14
 395 41 395 41 346 13.5 c 128,-1,15
 297 -14 297 -14 229 -14 c 0,16,17
 165 -14 165 -14 119.5 9.5 c 128,-1,18
 74 33 74 33 51 76 c 0,19,20
 33 108 33 108 28 154 c 1,21,-1
 106 154 l 1,22,23
 111 108 111 108 143.5 80.5 c 128,-1,24
 176 53 176 53 230 53 c 0,25,26
 289 53 289 53 325.5 91 c 128,-1,27
 362 129 362 129 362 191 c 0,28,29
 362 252 362 252 325.5 288.5 c 128,-1,30
 289 325 289 325 232 325 c 0,31,32
 158 325 158 325 115 267 c 1,33,-1
 50 270 l 1,0,-1
EndSplineSet
EndChar

StartChar: six
Encoding: 54 54 239
Width: 481
Flags: W
LayerCount: 2
Fore
SplineSet
359 447 m 1,0,1
 350 495 350 495 324.5 517.5 c 128,-1,2
 299 540 299 540 258 540 c 256,3,4
 217 540 217 540 184.5 517 c 128,-1,5
 152 494 152 494 133.5 442.5 c 128,-1,6
 115 391 115 391 109 311 c 1,7,8
 156 387 156 387 254 387 c 0,9,10
 340 387 340 387 393 333 c 128,-1,11
 446 279 446 279 446 193 c 0,12,13
 446 143 446 143 423.5 93 c 128,-1,14
 401 43 401 43 356 14.5 c 128,-1,15
 311 -14 311 -14 245 -14 c 0,16,17
 152 -14 152 -14 98 45 c 0,18,19
 31 115 31 115 31 270 c 0,20,21
 31 375 31 375 58 454 c 128,-1,22
 85 533 85 533 136 571 c 128,-1,23
 187 609 187 609 258 609 c 0,24,25
 306 609 306 609 343 590 c 0,26,27
 371 577 371 577 390.5 555.5 c 128,-1,28
 410 534 410 534 421 508.5 c 128,-1,29
 432 483 432 483 434 447 c 1,30,-1
 359 447 l 1,0,1
121 188 m 0,31,32
 121 128 121 128 156 90.5 c 128,-1,33
 191 53 191 53 243 53 c 0,34,35
 297 53 297 53 332 90.5 c 128,-1,36
 367 128 367 128 367 188 c 0,37,38
 367 250 367 250 334.5 284 c 128,-1,39
 302 318 302 318 243 318 c 0,40,41
 188 318 188 318 154.5 284 c 128,-1,42
 121 250 121 250 121 188 c 0,31,32
EndSplineSet
EndChar

StartChar: seven
Encoding: 55 55 240
Width: 525
Flags: W
LayerCount: 2
Fore
SplineSet
481 387 m 1,0,-1
 417 277 l 2,1,2
 386 224 386 224 360 163 c 0,3,4
 321 66 321 66 292 -87 c 1,5,-1
 231 -87 l 1,6,7
 212 47 212 47 164 161 c 0,8,9
 128 248 128 248 46 387 c 1,10,-1
 112 421 l 1,11,12
 185 299 185 299 214 222 c 0,13,14
 217 214 217 214 229 169 c 2,15,-1
 260 57 l 1,16,-1
 268 56 l 1,17,18
 300 213 300 213 352 308 c 2,19,-1
 414 421 l 1,20,21
 444 405 444 405 481 387 c 1,0,-1
EndSplineSet
EndChar

StartChar: eight
Encoding: 56 56 241
Width: 525
Flags: W
LayerCount: 2
Fore
SplineSet
481 -49 m 1,0,1
 445 -65 445 -65 413 -85 c 1,2,3
 342 38 342 38 312 117 c 0,4,5
 308 130 308 130 296 175 c 2,6,-1
 268 281 l 1,7,-1
 260 282 l 1,8,9
 243 211 243 211 214 118 c 0,10,11
 191 48 191 48 111 -85 c 1,12,13
 73 -63 73 -63 44 -48 c 1,14,15
 129 96 129 96 164 178 c 0,16,17
 208 283 208 283 232 426 c 1,18,-1
 293 425 l 1,19,20
 325 230 325 230 407 80 c 0,21,22
 431 35 431 35 481 -49 c 1,0,1
EndSplineSet
EndChar

StartChar: nine
Encoding: 57 57 242
Width: 481
Flags: W
LayerCount: 2
Fore
SplineSet
123 147 m 1,0,1
 129 98 129 98 156 75.5 c 128,-1,2
 183 53 183 53 224 53 c 0,3,4
 270 53 270 53 303 81 c 128,-1,5
 336 109 336 109 354 170 c 0,6,7
 367 215 367 215 371 284 c 1,8,9
 357 262 357 262 345 248 c 0,10,11
 325 230 325 230 296 219 c 128,-1,12
 267 208 267 208 228 208 c 0,13,14
 172 208 172 208 127 232 c 128,-1,15
 82 256 82 256 58.5 301.5 c 128,-1,16
 35 347 35 347 35 399 c 256,17,18
 35 451 35 451 57.5 501 c 128,-1,19
 80 551 80 551 125 580 c 128,-1,20
 170 609 170 609 236 609 c 0,21,22
 328 609 328 609 384 549 c 0,23,24
 449 478 449 478 449 323 c 0,25,26
 449 219 449 219 422.5 140.5 c 128,-1,27
 396 62 396 62 345.5 24 c 128,-1,28
 295 -14 295 -14 224 -14 c 0,29,30
 176 -14 176 -14 139 4 c 0,31,32
 109 18 109 18 89.5 39.5 c 128,-1,33
 70 61 70 61 60 86 c 128,-1,34
 50 111 50 111 48 147 c 1,35,-1
 123 147 l 1,0,1
113 405 m 0,36,37
 113 345 113 345 147.5 310 c 128,-1,38
 182 275 182 275 238 275 c 0,39,40
 293 275 293 275 326.5 310 c 128,-1,41
 360 345 360 345 360 405 c 0,42,43
 360 466 360 466 324.5 503 c 128,-1,44
 289 540 289 540 238 540 c 0,45,46
 185 540 185 540 149 503.5 c 128,-1,47
 113 467 113 467 113 405 c 0,36,37
EndSplineSet
EndChar

StartChar: colon
Encoding: 58 58 243
Width: 240
Flags: W
LayerCount: 2
Fore
SplineSet
76 359 m 1,0,-1
 76 453 l 1,1,-1
 165 453 l 1,2,-1
 165 359 l 1,3,-1
 76 359 l 1,0,-1
76 0 m 1,4,-1
 76 92 l 1,5,-1
 165 92 l 1,6,-1
 165 0 l 1,7,-1
 76 0 l 1,4,-1
EndSplineSet
EndChar
